<svg class="main-svg" xmlns="http://www.w3.org/2000/svg" xmlns:xlink="http://www.w3.org/1999/xlink" width="570.909" height="483.636" style="" viewBox="0 0 570.909 483.636"><rect x="0" y="0" width="570.909" height="483.636" style="fill: rgb(255, 255, 255); fill-opacity: 1;"/><defs id="defs-bf49cb"><g class="clips"><clipPath id="clipbf49cbxyplot" class="plotclip"><rect width="402" height="419"/></clipPath><clipPath class="axesclip" id="clipbf49cbx"><rect x="60" y="0" width="402" height="483.636"/></clipPath><clipPath class="axesclip" id="clipbf49cby"><rect x="0" y="25" width="570.909" height="419"/></clipPath><clipPath class="axesclip" id="clipbf49cbxy"><rect x="60" y="25" width="402" height="419"/></clipPath></g><g class="gradients"/><g class="patterns"/></defs><g class="bglayer"/><g class="layer-below"><g class="imagelayer"/><g class="shapelayer"/></g><g class="cartesianlayer"><g class="subplot xy"><g class="layer-subplot"><g class="shapelayer"/><g class="imagelayer"/></g><g class="gridlayer"><g class="x"><path class="xgrid crisp" transform="translate(110.25,0)" d="M0,25v419" style="stroke: rgb(238, 238, 238); stroke-opacity: 1; stroke-width: 1px;"/><path class="xgrid crisp" transform="translate(232.86,0)" d="M0,25v419" style="stroke: rgb(238, 238, 238); stroke-opacity: 1; stroke-width: 1px;"/><path class="xgrid crisp" transform="translate(351.45,0)" d="M0,25v419" style="stroke: rgb(238, 238, 238); stroke-opacity: 1; stroke-width: 1px;"/></g><g class="y"><path class="ygrid crisp" transform="translate(0,348.68)" d="M60,0h402" style="stroke: rgb(238, 238, 238); stroke-opacity: 1; stroke-width: 1px;"/><path class="ygrid crisp" transform="translate(0,290.61)" d="M60,0h402" style="stroke: rgb(238, 238, 238); stroke-opacity: 1; stroke-width: 1px;"/><path class="ygrid crisp" transform="translate(0,232.54)" d="M60,0h402" style="stroke: rgb(238, 238, 238); stroke-opacity: 1; stroke-width: 1px;"/><path class="ygrid crisp" transform="translate(0,174.47)" d="M60,0h402" style="stroke: rgb(238, 238, 238); stroke-opacity: 1; stroke-width: 1px;"/><path class="ygrid crisp" transform="translate(0,116.4)" d="M60,0h402" style="stroke: rgb(238, 238, 238); stroke-opacity: 1; stroke-width: 1px;"/><path class="ygrid crisp" transform="translate(0,58.33)" d="M60,0h402" style="stroke: rgb(238, 238, 238); stroke-opacity: 1; stroke-width: 1px;"/></g></g><g class="zerolinelayer"><path class="yzl zl crisp" transform="translate(0,406.75)" d="M60,0h402" style="stroke: rgb(68, 68, 68); stroke-opacity: 1; stroke-width: 1px;"/></g><path class="xlines-below"/><path class="ylines-below"/><g class="overlines-below"/><g class="xaxislayer-below"/><g class="yaxislayer-below"/><g class="overaxes-below"/><g class="plot" transform="translate(60,25)" clip-path="url(#clipbf49cbxyplot)"><g class="scatterlayer mlayer"><g class="trace scatter trace098d6d" style="stroke-miterlimit: 2; opacity: 1;"><g class="fills"/><g class="errorbars"/><g class="lines"><path class="js-line" d="M0,380.49L10.05,380.83L12.06,380.62L24.12,380.84L26.13,380.91L50.25,380.83L52.26,380.2L66.33,380.34L68.34,380.29L78.39,380.52L80.4,379.9L92.46,380.18L94.47,379.36L106.53,379.99L108.54,378.78L116.58,378.77L118.59,379.24L120.6,378.87L122.61,377.58L134.67,378.52L136.68,377.19L144.72,378.13L146.73,378.66L148.74,378.73L150.75,377.42L162.81,379.51L164.82,378.61L176.88,380L178.89,379.17L190.95,379.95L192.96,379.2L205.02,379.39L207.03,378.38L213.06,377.68L215.07,377.32L219.09,376.77L221.1,374.2L227.13,371.56L229.14,371.58L231.15,371.84L233.16,371.1L237.18,368.45L239.19,365.81L241.2,360.63L243.21,359.29L245.22,361.26L247.23,360.43L249.24,352.97L251.25,350.32L255.27,349.86L257.28,348.98L259.29,350.03L261.3,348.55L263.31,329.24L265.32,327.67L267.33,317.97L269.34,322.4L271.35,320.88L273.36,326.38L275.37,323.94L277.38,282.19L279.39,283.03L281.4,285.42L283.41,285.23L285.42,286.77L287.43,300.67L289.44,301.04L291.45,254.44L293.46,266.3L295.47,226.8L297.48,234.06L299.49,240.28L301.5,259.39L303.51,264.03L305.52,182.9L307.53,191.55L309.54,217.42L311.55,158.96L313.56,178.4L315.57,201.87L317.58,171.35L319.59,149.05L321.6,20.95L323.61,145.39L325.62,160.31L327.63,187.38L329.64,260.28L333.66,96.8L335.67,152.03L337.68,184.66L339.69,186.94L341.7,197.01L343.71,273.03L345.72,180.03L347.73,135.23L349.74,195.53L351.75,219.04L353.76,228.39L355.77,245.69L357.78,307.89L359.79,227.29L361.8,215.53L363.81,251.23L369.84,286.23L371.85,328.95L373.86,259.41L375.87,268.3L377.88,295.56L379.89,308.69L383.91,327.74L385.92,354.02L387.93,312.97L389.94,317.13L391.95,329.01L393.96,334.71L395.97,337.96L397.98,344.16L399.99,361.79L402,335.12" style="vector-effect: non-scaling-stroke; fill: none; stroke: rgb(255, 127, 14); stroke-opacity: 1; stroke-width: 2px; opacity: 1;"/></g><g class="points"/><g class="text"/></g><g class="trace scatter tracecc9bcb" style="stroke-miterlimit: 2; opacity: 1;"><g class="fills"/><g class="errorbars"/><g class="lines"><path class="js-line" d="M0,379.41L44.22,380.89L46.23,380.93L98.49,381.5L100.5,381.46L124.62,381.69L126.63,381.72L146.73,381.42L148.74,381.29L156.78,381.11L158.79,381.29L170.85,383.42L172.86,383.84L184.92,385.52L186.93,385.55L192.96,384.94L194.97,384.46L201,382.05L203.01,380.9L211.05,375.07L213.06,373.34L223.11,363.41L225.12,361.22L243.21,339.97L245.22,337.57L257.28,322.63L259.29,319.64L271.35,299.43L273.36,295.91L285.42,275.97L287.43,273.06L293.46,265.51L295.47,263.47L301.5,259.07L303.51,258.1L317.58,252.17L319.59,251.5L329.64,249.11L331.65,248.85L339.69,248.7L341.7,248.9L349.74,250.82L351.75,251.6L359.79,255.85L361.8,257.18L369.84,263.55L371.85,265.39L381.9,276.03L383.91,278.43L393.96,291.69L395.97,294.59L402,303.73" style="vector-effect: non-scaling-stroke; fill: none; stroke: rgb(44, 160, 44); stroke-opacity: 1; stroke-width: 2px; opacity: 1;"/></g><g class="points"/><g class="text"/></g><g class="trace scatter trace37e758" style="stroke-miterlimit: 2; opacity: 1;"><g class="fills"><g><path class="js-fill" d="M0,398.05L22.11,393.17L24.12,392.82L42.21,390.49L44.22,390.33L62.31,389.67L64.32,389.67L120.6,390.68L122.61,390.75L146.73,391L148.74,390.88L158.79,390.74L160.8,390.93L174.87,393.3L176.88,393.66L186.93,394.81L188.94,394.79L194.97,393.97L196.98,393.39L203.01,390.48L205.02,389.18L213.06,382.67L215.07,380.78L227.13,368.03L229.14,365.76L255.27,335.03L257.28,332.18L267.33,315.77L269.34,312.24L285.42,285L287.43,282.08L293.46,274.48L295.47,272.41L301.5,267.91L303.51,266.88L317.58,260.63L319.59,259.93L329.64,257.42L331.65,257.16L339.69,257.1L341.7,257.36L347.73,258.86L349.74,259.63L357.78,264.05L359.79,265.49L367.83,272.49L369.84,274.54L377.88,283.95L379.89,286.59L389.94,301.37L391.95,304.64L402,322.37L402,322.37L402,285.09L389.94,270.91L387.93,268.76L375.87,257.31L373.86,255.65L363.81,248.5L361.8,247.31L353.76,243.41L351.75,242.66L343.71,240.7L341.7,240.45L333.66,240.36L331.65,240.54L321.6,242.5L319.59,243.08L307.53,247.54L305.52,248.42L297.48,252.79L295.47,254.53L289.44,261.33L287.43,264.04L279.39,276.44L277.38,279.81L257.28,313.09L255.27,315.89L241.2,332.98L239.19,335.47L223.11,354.34L221.1,356.44L211.05,365.68L209.04,367.25L201,372.45L198.99,373.45L192.96,375.48L190.95,375.87L182.91,376.25L180.9,376.09L170.85,374.32L168.84,373.86L156.78,371.6L154.77,371.46L144.72,371.99L142.71,372.11L122.61,372.55L120.6,372.53L92.46,372.93L90.45,372.99L64.32,372.95L62.31,372.87L44.22,371.45L42.21,371.2L26.13,368.37L24.12,367.91L6.03,362.83L4.02,362.16L0,360.77Z" style="fill: rgb(214, 39, 40); fill-opacity: 0.5; stroke-width: 0;"/></g></g><g class="errorbars"/><g class="lines"><path class="js-line" d="M0,398.05L22.11,393.17L24.12,392.82L42.21,390.49L44.22,390.33L62.31,389.67L64.32,389.67L120.6,390.68L122.61,390.75L146.73,391L148.74,390.88L158.79,390.74L160.8,390.93L174.87,393.3L176.88,393.66L186.93,394.81L188.94,394.79L194.97,393.97L196.98,393.39L203.01,390.48L205.02,389.18L213.06,382.67L215.07,380.78L227.13,368.03L229.14,365.76L255.27,335.03L257.28,332.18L267.33,315.77L269.34,312.24L285.42,285L287.43,282.08L293.46,274.48L295.47,272.41L301.5,267.91L303.51,266.88L317.58,260.63L319.59,259.93L329.64,257.42L331.65,257.16L339.69,257.1L341.7,257.36L347.73,258.86L349.74,259.63L357.78,264.05L359.79,265.49L367.83,272.49L369.84,274.54L377.88,283.95L379.89,286.59L389.94,301.37L391.95,304.64L402,322.37L402,322.37L402,285.09L389.94,270.91L387.93,268.76L375.87,257.31L373.86,255.65L363.81,248.5L361.8,247.31L353.76,243.41L351.75,242.66L343.71,240.7L341.7,240.45L333.66,240.36L331.65,240.54L321.6,242.5L319.59,243.08L307.53,247.54L305.52,248.42L297.48,252.79L295.47,254.53L289.44,261.33L287.43,264.04L279.39,276.44L277.38,279.81L257.28,313.09L255.27,315.89L241.2,332.98L239.19,335.47L223.11,354.34L221.1,356.44L211.05,365.68L209.04,367.25L201,372.45L198.99,373.45L192.96,375.48L190.95,375.87L182.91,376.25L180.9,376.09L170.85,374.32L168.84,373.86L156.78,371.6L154.77,371.46L144.72,371.99L142.71,372.11L122.61,372.55L120.6,372.53L92.46,372.93L90.45,372.99L64.32,372.95L62.31,372.87L44.22,371.45L42.21,371.2L26.13,368.37L24.12,367.91L6.03,362.83L4.02,362.16L0,360.77" style="vector-effect: non-scaling-stroke; fill: none; stroke: rgb(214, 39, 40); stroke-opacity: 1; stroke-width: 0px; opacity: 1;"/></g><g class="points"/><g class="text"/></g></g></g><g class="overplot"/><path class="xlines-above crisp" d="M0,0" style="fill: none;"/><path class="ylines-above crisp" d="M0,0" style="fill: none;"/><g class="overlines-above"/><g class="xaxislayer-above"><g class="xtick"><text text-anchor="middle" x="0" y="457" transform="translate(110.25,0)" style="font-family: 'Open Sans', verdana, arial, sans-serif; font-size: 12px; fill: rgb(68, 68, 68); fill-opacity: 1; white-space: pre; opacity: 1;">Nov 2021</text></g><g class="xtick"><text text-anchor="middle" x="0" y="457" style="font-family: 'Open Sans', verdana, arial, sans-serif; font-size: 12px; fill: rgb(68, 68, 68); fill-opacity: 1; white-space: pre; opacity: 1;" transform="translate(232.86,0)">Jan 2022</text></g><g class="xtick"><text text-anchor="middle" x="0" y="457" style="font-family: 'Open Sans', verdana, arial, sans-serif; font-size: 12px; fill: rgb(68, 68, 68); fill-opacity: 1; white-space: pre; opacity: 1;" transform="translate(351.45,0)">Mar 2022</text></g></g><g class="yaxislayer-above"><g class="ytick"><text text-anchor="end" x="59" y="4.199999999999999" transform="translate(0,406.75)" style="font-family: 'Open Sans', verdana, arial, sans-serif; font-size: 12px; fill: rgb(68, 68, 68); fill-opacity: 1; white-space: pre; opacity: 1;">0</text></g><g class="ytick"><text text-anchor="end" x="59" y="4.199999999999999" style="font-family: 'Open Sans', verdana, arial, sans-serif; font-size: 12px; fill: rgb(68, 68, 68); fill-opacity: 1; white-space: pre; opacity: 1;" transform="translate(0,348.68)">100k</text></g><g class="ytick"><text text-anchor="end" x="59" y="4.199999999999999" style="font-family: 'Open Sans', verdana, arial, sans-serif; font-size: 12px; fill: rgb(68, 68, 68); fill-opacity: 1; white-space: pre; opacity: 1;" transform="translate(0,290.61)">200k</text></g><g class="ytick"><text text-anchor="end" x="59" y="4.199999999999999" style="font-family: 'Open Sans', verdana, arial, sans-serif; font-size: 12px; fill: rgb(68, 68, 68); fill-opacity: 1; white-space: pre; opacity: 1;" transform="translate(0,232.54)">300k</text></g><g class="ytick"><text text-anchor="end" x="59" y="4.199999999999999" style="font-family: 'Open Sans', verdana, arial, sans-serif; font-size: 12px; fill: rgb(68, 68, 68); fill-opacity: 1; white-space: pre; opacity: 1;" transform="translate(0,174.47)">400k</text></g><g class="ytick"><text text-anchor="end" x="59" y="4.199999999999999" style="font-family: 'Open Sans', verdana, arial, sans-serif; font-size: 12px; fill: rgb(68, 68, 68); fill-opacity: 1; white-space: pre; opacity: 1;" transform="translate(0,116.4)">500k</text></g><g class="ytick"><text text-anchor="end" x="59" y="4.199999999999999" style="font-family: 'Open Sans', verdana, arial, sans-serif; font-size: 12px; fill: rgb(68, 68, 68); fill-opacity: 1; white-space: pre; opacity: 1;" transform="translate(0,58.33)">600k</text></g></g><g class="overaxes-above"/></g></g><g class="polarlayer"/><g class="ternarylayer"/><g class="geolayer"/><g class="funnelarealayer"/><g class="pielayer"/><g class="iciclelayer"/><g class="treemaplayer"/><g class="sunburstlayer"/><g class="glimages"/><defs id="topdefs-bf49cb"><g class="clips"/><clipPath id="legendbf49cb"><rect width="91" height="67" x="0" y="0"/></clipPath></defs><g class="layer-above"><g class="imagelayer"/><g class="shapelayer"/></g><g class="infolayer"><g class="legend" pointer-events="all" transform="translate(470.04,25)"><rect class="bg" shape-rendering="crispEdges" width="91" height="67" x="0" y="0" style="stroke: rgb(68, 68, 68); stroke-opacity: 1; fill: rgb(255, 255, 255); fill-opacity: 1; stroke-width: 0px;"/><g class="scrollbox" transform="" clip-path="url(#legendbf49cb)"><g class="groups"><g class="traces" transform="translate(0,14.5)" style="opacity: 1;"><text class="legendtext" text-anchor="start" x="40" y="4.680000000000001" style="font-family: 'Open Sans', verdana, arial, sans-serif; font-size: 12px; fill: rgb(68, 68, 68); fill-opacity: 1; white-space: pre;">Data</text><g class="layers" style="opacity: 1;"><g class="legendfill"/><g class="legendlines"><path class="js-line" d="M5,0h30" style="fill: none; stroke: rgb(255, 127, 14); stroke-opacity: 1; stroke-width: 2px;"/></g><g class="legendsymbols"><g class="legendpoints"/></g></g><rect class="legendtoggle" x="0" y="-9.5" width="85.81232070922852" height="19" style="fill: rgb(0, 0, 0); fill-opacity: 0;"/></g><g class="traces" transform="translate(0,33.5)" style="opacity: 1;"><text class="legendtext" text-anchor="start" x="40" y="4.680000000000001" style="font-family: 'Open Sans', verdana, arial, sans-serif; font-size: 12px; fill: rgb(68, 68, 68); fill-opacity: 1; white-space: pre;">loess</text><g class="layers" style="opacity: 1;"><g class="legendfill"/><g class="legendlines"><path class="js-line" d="M5,0h30" style="fill: none; stroke: rgb(44, 160, 44); stroke-opacity: 1; stroke-width: 2px;"/></g><g class="legendsymbols"><g class="legendpoints"/></g></g><rect class="legendtoggle" x="0" y="-9.5" width="85.81232070922852" height="19" style="fill: rgb(0, 0, 0); fill-opacity: 0;"/></g><g class="traces" transform="translate(0,52.5)" style="opacity: 1;"><text class="legendtext" text-anchor="start" x="40" y="4.680000000000001" style="font-family: 'Open Sans', verdana, arial, sans-serif; font-size: 12px; fill: rgb(68, 68, 68); fill-opacity: 1; white-space: pre;">95% CI</text><g class="layers" style="opacity: 1;"><g class="legendfill"><path class="js-fill" d="M5,-2h30v6h-30z" style="stroke-width: 0; fill: rgb(214, 39, 40); fill-opacity: 0.5;"/></g><g class="legendlines"><path class="js-line" d="M5,-2h30" style="fill: none; stroke: rgb(214, 39, 40); stroke-opacity: 1; stroke-width: 0px;"/></g><g class="legendsymbols"><g class="legendpoints"/></g></g><rect class="legendtoggle" x="0" y="-9.5" width="85.81232070922852" height="19" style="fill: rgb(0, 0, 0); fill-opacity: 0;"/></g></g></g><rect class="scrollbar" rx="20" ry="3" width="0" height="0" x="0" y="0" style="fill: rgb(128, 139, 164); fill-opacity: 1;"/></g><g class="g-gtitle"/><g class="g-xtitle" transform="translate(0,-15.099174179077124)"><text class="xtitle" x="261" y="496" text-anchor="middle" style="font-family: 'Open Sans', verdana, arial, sans-serif; font-size: 14px; fill: rgb(68, 68, 68); opacity: 1; font-weight: normal; white-space: pre;">date</text></g><g class="g-ytitle"><text class="ytitle" transform="rotate(-90,22,234.5)" x="22" y="234.5" text-anchor="middle" style="font-family: 'Open Sans', verdana, arial, sans-serif; font-size: 14px; fill: rgb(68, 68, 68); opacity: 1; font-weight: normal; white-space: pre;">new_cases</text></g></g></svg>