<svg class="main-svg" xmlns="http://www.w3.org/2000/svg" xmlns:xlink="http://www.w3.org/1999/xlink" width="570.909" height="483.636" style="" viewBox="0 0 570.909 483.636"><rect x="0" y="0" width="570.909" height="483.636" style="fill: rgb(255, 255, 255); fill-opacity: 1;"/><defs id="defs-6fd8eb"><g class="clips"><clipPath id="clip6fd8ebxyplot" class="plotclip"><rect width="375" height="419"/></clipPath><clipPath class="axesclip" id="clip6fd8ebx"><rect x="60" y="0" width="375" height="483.636"/></clipPath><clipPath class="axesclip" id="clip6fd8eby"><rect x="0" y="25" width="570.909" height="419"/></clipPath><clipPath class="axesclip" id="clip6fd8ebxy"><rect x="60" y="25" width="375" height="419"/></clipPath></g><g class="gradients"/><g class="patterns"/></defs><g class="bglayer"/><g class="layer-below"><g class="imagelayer"/><g class="shapelayer"/></g><g class="cartesianlayer"><g class="subplot xy"><g class="layer-subplot"><g class="shapelayer"/><g class="imagelayer"/></g><g class="gridlayer"><g class="x"><path class="xgrid crisp" transform="translate(126.08,0)" d="M0,25v419" style="stroke: rgb(238, 238, 238); stroke-opacity: 1; stroke-width: 1px;"/><path class="xgrid crisp" transform="translate(198.09,0)" d="M0,25v419" style="stroke: rgb(238, 238, 238); stroke-opacity: 1; stroke-width: 1px;"/><path class="xgrid crisp" transform="translate(270.09000000000003,0)" d="M0,25v419" style="stroke: rgb(238, 238, 238); stroke-opacity: 1; stroke-width: 1px;"/><path class="xgrid crisp" transform="translate(342.29,0)" d="M0,25v419" style="stroke: rgb(238, 238, 238); stroke-opacity: 1; stroke-width: 1px;"/><path class="xgrid crisp" transform="translate(414.29,0)" d="M0,25v419" style="stroke: rgb(238, 238, 238); stroke-opacity: 1; stroke-width: 1px;"/></g><g class="y"><path class="ygrid crisp" transform="translate(0,372.75)" d="M60,0h375" style="stroke: rgb(238, 238, 238); stroke-opacity: 1; stroke-width: 1px;"/><path class="ygrid crisp" transform="translate(0,322.27)" d="M60,0h375" style="stroke: rgb(238, 238, 238); stroke-opacity: 1; stroke-width: 1px;"/><path class="ygrid crisp" transform="translate(0,271.78)" d="M60,0h375" style="stroke: rgb(238, 238, 238); stroke-opacity: 1; stroke-width: 1px;"/><path class="ygrid crisp" transform="translate(0,221.3)" d="M60,0h375" style="stroke: rgb(238, 238, 238); stroke-opacity: 1; stroke-width: 1px;"/><path class="ygrid crisp" transform="translate(0,170.82)" d="M60,0h375" style="stroke: rgb(238, 238, 238); stroke-opacity: 1; stroke-width: 1px;"/><path class="ygrid crisp" transform="translate(0,120.33)" d="M60,0h375" style="stroke: rgb(238, 238, 238); stroke-opacity: 1; stroke-width: 1px;"/><path class="ygrid crisp" transform="translate(0,69.85)" d="M60,0h375" style="stroke: rgb(238, 238, 238); stroke-opacity: 1; stroke-width: 1px;"/></g></g><g class="zerolinelayer"><path class="yzl zl crisp" transform="translate(0,423.24)" d="M60,0h375" style="stroke: rgb(68, 68, 68); stroke-opacity: 1; stroke-width: 1px;"/></g><path class="xlines-below"/><path class="ylines-below"/><g class="overlines-below"/><g class="xaxislayer-below"/><g class="yaxislayer-below"/><g class="overaxes-below"/><g class="plot" transform="translate(60,25)" clip-path="url(#clip6fd8ebxyplot)"><g class="scatterlayer mlayer"><g class="trace scatter traceafc2b0" style="stroke-miterlimit: 2; opacity: 1;"><g class="fills"/><g class="errorbars"/><g class="lines"><path class="js-line" d="M0,359.02L5.52,356.7L11.64,348.29L17.56,344.43L23.67,336.28L29.59,344.52L35.7,350.34L41.82,345.22L47.74,341.49L53.85,338.95L59.77,338.69L72,347.08L77.52,346.79L83.64,328.92L89.56,335.3L95.67,335.86L101.59,341.75L107.71,333.65L113.82,330.83L119.74,318.29L125.85,297.84L131.77,297.78L137.89,309.31L144,281.85L149.53,247.34L155.64,271.92L161.56,257.24L167.67,260.97L173.59,280.84L179.71,280.25L185.82,286.1L191.74,266.67L197.86,242.92L203.77,240.4L209.89,279.76L216,272.46L221.73,249.07L227.84,238.27L233.76,204.65L239.87,209.41L245.79,216.35L251.91,222.54L258.02,234.21L263.94,212.94L270.06,198.85L275.97,212.98L282.09,213.82L288.2,191.65L293.73,212.91L299.84,183.74L305.76,204.68L311.88,210.65L317.79,171.5L323.91,199.02L330.02,188.09L335.94,189.48L342.06,76.59L347.97,76.07L354.09,122.52L360.21,137.35L365.73,110.76L371.84,20.95L375,210.24" style="vector-effect: non-scaling-stroke; fill: none; stroke: rgb(0, 0, 139); stroke-opacity: 1; stroke-width: 2px; opacity: 1;"/></g><g class="points"/><g class="text"/></g><g class="trace scatter trace952348" style="stroke-miterlimit: 2; opacity: 1;"><g class="fills"/><g class="errorbars"/><g class="lines"><path class="js-line" d="M0,396.95L11.64,396.86L17.56,396.48L35.7,396.8L41.82,397.03L72,397.04L77.52,396.8L89.56,397.05L95.67,397.11L119.74,396.7L125.85,396.57L137.89,397.04L144,396.47L161.56,396.48L167.67,395.83L173.59,396.9L179.71,396.58L185.82,396.8L191.74,395.5L197.86,396.59L203.77,396.55L221.73,396.51L227.84,396.05L233.76,395.96L239.87,394.98L245.79,394.73L251.91,395.42L263.94,395.74L270.06,396.04L282.09,396.43L288.2,395.91L293.73,394.91L299.84,394.91L323.91,398.05L330.02,393.69L335.94,395.24L342.06,395.82L365.73,396.53L371.84,396.19L375,397.33" style="vector-effect: non-scaling-stroke; fill: none; stroke: rgb(190, 190, 190); stroke-opacity: 1; stroke-width: 2px; opacity: 1;"/></g><g class="points"/><g class="text"/></g><g class="trace scatter trace98ef28" style="stroke-miterlimit: 2; opacity: 1;"><g class="fills"/><g class="errorbars"/><g class="lines"><path class="js-line" d="M0,394.57L11.64,394.21L17.56,393.85L29.59,394.02L35.7,394.92L47.74,395.06L53.85,394.36L59.77,394.13L65.89,394.72L77.52,393.83L83.64,393.66L107.71,392.56L113.82,393.12L119.74,391.55L125.85,391.01L131.77,390.37L137.89,392.31L144,389.17L149.53,389.85L155.64,388.55L161.56,388.25L167.67,387.25L173.59,389.01L179.71,384.29L185.82,387.72L191.74,389.08L197.86,389.5L203.77,388.98L209.89,390.73L221.73,389.53L227.84,386.8L245.79,387.7L251.91,385.31L258.02,384.3L263.94,385.05L270.06,380L275.97,385.04L282.09,387.88L288.2,387.51L299.84,386.39L305.76,387.42L311.88,387.28L317.79,386.38L330.02,388.8L335.94,387.46L347.97,384.88L354.09,386.19L360.21,383.47L365.73,385.47L371.84,383.82L375,391.89" style="vector-effect: non-scaling-stroke; fill: none; stroke: rgb(190, 190, 190); stroke-opacity: 1; stroke-width: 2px; opacity: 1;"/></g><g class="points"/><g class="text"/></g><g class="trace scatter trace6ad170" style="stroke-miterlimit: 2; opacity: 1;"><g class="fills"/><g class="errorbars"/><g class="lines"><path class="js-line" d="M0,346.13L5.52,349.11L11.64,314.07L17.56,289.18L23.67,322.87L29.59,339.65L35.7,348.2L41.82,353.28L47.74,349.13L53.85,342.97L59.77,345.49L65.89,359L72,355.06L77.52,354.54L83.64,350.72L89.56,352.81L95.67,353.83L101.59,360.79L107.71,361.08L113.82,361.58L119.74,350.33L125.85,342.66L131.77,250.01L137.89,303.25L144,304.8L149.53,314.79L155.64,310.38L161.56,321.05L167.67,316.29L173.59,333.28L179.71,330.27L185.82,330.62L191.74,326.28L197.86,318.05L203.77,323.88L209.89,343.06L216,337.47L221.73,279.36L227.84,237.29L233.76,221.22L239.87,286.51L245.79,303L251.91,315.13L258.02,328.03L263.94,319.5L270.06,318.83L275.97,316.35L282.09,338.51L288.2,337.82L293.73,334.88L299.84,323.97L305.76,335.54L311.88,258.44L317.79,306.19L323.91,324.39L330.02,330.79L335.94,281.29L342.06,241.27L347.97,283.26L354.09,315.28L360.21,319.49L365.73,319.77L371.84,305.6L375,357.25" style="vector-effect: non-scaling-stroke; fill: none; stroke: rgb(190, 190, 190); stroke-opacity: 1; stroke-width: 2px; opacity: 1;"/></g><g class="points"/><g class="text"/></g><g class="trace scatter trace1c1d85" style="stroke-miterlimit: 2; opacity: 1;"><g class="fills"/><g class="errorbars"/><g class="lines"><path class="js-line" d="M119.74,398.05L125.85,392.06L131.77,394.88L137.89,396.08L144,395.43L155.64,395.7L161.56,393.55L167.67,394.03L173.59,392.79L179.71,392.03L185.82,392.58L191.74,391.65L197.86,392.27L203.77,392.04L209.89,393.93L216,390.1L221.73,391.38L233.76,393L239.87,391.9L245.79,393.1L251.91,392.62L270.06,390.11L275.97,391.75L282.09,392.69L288.2,392.48L293.73,391.92L299.84,390.07L305.76,386.11L311.88,387.27L317.79,389.62L323.91,389.03L330.02,390.62L335.94,389.51L347.97,389.76L354.09,392.29L360.21,388.17L365.73,389.88L371.84,388.2L375,393.74" style="vector-effect: non-scaling-stroke; fill: none; stroke: rgb(190, 190, 190); stroke-opacity: 1; stroke-width: 2px; opacity: 1;"/></g><g class="points"/><g class="text"/></g><g class="trace scatter tracee085c0" style="stroke-miterlimit: 2; opacity: 1;"><g class="fills"/><g class="errorbars"/><g class="lines"><path class="js-line" d="M0,386.09L11.64,376.73L17.56,378.91L23.67,380.99L29.59,382L35.7,383.55L41.82,382.97L47.74,378.2L53.85,378.91L59.77,375.3L65.89,382.03L72,380.21L77.52,380.71L83.64,375.2L89.56,365.52L101.59,368.77L107.71,368.93L113.82,370.87L119.74,363.93L125.85,357.62L131.77,360.59L137.89,368.45L144,351.33L149.53,352.64L155.64,345.89L161.56,344.74L167.67,344.64L173.59,356.32L179.71,355.53L185.82,354.15L191.74,337.37L197.86,329.5L203.77,328.5L209.89,347.09L216,332.1L221.73,333.57L227.84,326.7L233.76,321.06L239.87,329.21L245.79,331.36L251.91,336.39L258.02,336.89L263.94,325.75L270.06,322.96L275.97,329.19L282.09,341.26L288.2,312.29L293.73,303.34L299.84,280.15L305.76,319.6L311.88,328.07L317.79,333.06L323.91,336.39L330.02,338.11L335.94,319.87L342.06,289.2L347.97,275.61L354.09,334.01L360.21,330.47L365.73,316.32L371.84,287.98L375,354.59" style="vector-effect: non-scaling-stroke; fill: none; stroke: rgb(190, 190, 190); stroke-opacity: 1; stroke-width: 2px; opacity: 1;"/></g><g class="points"/><g class="text"/></g><g class="trace scatter trace4768a0" style="stroke-miterlimit: 2; opacity: 1;"><g class="fills"/><g class="errorbars"/><g class="lines"><path class="js-line" d="M0,384.12L5.52,388.68L11.64,388.01L23.67,389.58L29.59,389.72L35.7,390.57L41.82,390.11L47.74,385.55L53.85,388.97L59.77,388.56L65.89,379.49L72,387.35L77.52,388.34L89.56,380.07L95.67,374.78L101.59,375.83L107.71,369.41L113.82,376.22L119.74,369.64L125.85,364.03L131.77,365.62L144,367.08L149.53,363.72L155.64,364.55L161.56,363.5L167.67,357.95L173.59,366.21L179.71,365.28L185.82,363.41L191.74,358.02L197.86,354.56L209.89,363.48L216,359.27L221.73,358.66L227.84,349.2L233.76,351.65L239.87,345.13L245.79,344.08L251.91,353.65L258.02,357.58L263.94,352.08L270.06,352.36L275.97,354.93L282.09,360.85L288.2,358.65L293.73,355.55L299.84,348.62L305.76,355.39L311.88,349.14L317.79,350.64L323.91,350.49L330.02,354.68L335.94,351.63L342.06,351.58L347.97,354.77L354.09,361.4L360.21,346.56L365.73,341.77L371.84,325.23L375,368.53" style="vector-effect: non-scaling-stroke; fill: none; stroke: rgb(190, 190, 190); stroke-opacity: 1; stroke-width: 2px; opacity: 1;"/></g><g class="points"/><g class="text"/></g><g class="trace scatter traceefb69a" style="stroke-miterlimit: 2; opacity: 1;"><g class="fills"/><g class="errorbars"/><g class="lines"><path class="js-line" d="M0,388.81L5.52,389.79L11.64,387.96L17.56,388.68L23.67,388.56L29.59,391.02L35.7,392.3L47.74,392.62L53.85,391.77L59.77,391.39L65.89,393.15L72,392.82L77.52,393.28L83.64,392.28L89.56,392.54L95.67,392.18L101.59,393.6L113.82,393.59L119.74,391.39L125.85,387.03L131.77,389.55L137.89,391.16L144,390.73L149.53,389.99L155.64,386.42L161.56,363.88L167.67,365.04L173.59,381.28L179.71,391.25L191.74,390.99L197.86,388.41L203.77,387.79L209.89,389.96L216,388.66L221.73,388.96L239.87,387.92L245.79,389.37L258.02,390.14L263.94,389.65L270.06,385.5L275.97,389.2L282.09,388.19L288.2,389.69L299.84,390L305.76,391.39L317.79,390.21L323.91,390.83L330.02,389.85L335.94,389.96L342.06,385.68L347.97,384.43L354.09,384.71L360.21,383.06L365.73,389.36L371.84,386.15L375,395.07" style="vector-effect: non-scaling-stroke; fill: none; stroke: rgb(190, 190, 190); stroke-opacity: 1; stroke-width: 2px; opacity: 1;"/></g><g class="points"/><g class="text"/></g><g class="trace scatter traceb07b1f" style="stroke-miterlimit: 2; opacity: 1;"><g class="fills"/><g class="errorbars"/><g class="lines"><path class="js-line" d="M0,390.8L11.64,392.97L17.56,392.36L29.59,393.29L35.7,392.83L41.82,392.96L47.74,390.01L53.85,385.99L59.77,388.31L65.89,391.18L72,389L77.52,390.35L83.64,388.26L89.56,387.71L95.67,381.1L101.59,387.85L107.71,388.43L113.82,388.59L119.74,385.08L125.85,380.98L131.77,380.64L149.53,380.31L155.64,375.68L161.56,377.68L167.67,372.54L173.59,377.31L179.71,375.34L185.82,376.36L191.74,374.51L197.86,370.84L203.77,372.2L209.89,377.29L216,373.39L221.73,373.72L227.84,368.98L233.76,364.96L239.87,361.82L245.79,363.42L251.91,367.8L258.02,371.09L263.94,357.01L270.06,352.5L275.97,358.22L282.09,365.95L288.2,364.32L293.73,364.7L299.84,358.78L305.76,366.41L311.88,364.68L317.79,364.11L323.91,367.73L330.02,370.17L335.94,368.49L342.06,351.91L347.97,360.81L354.09,370.74L360.21,367.94L365.73,368.92L371.84,357.99L375,382.28" style="vector-effect: non-scaling-stroke; fill: none; stroke: rgb(190, 190, 190); stroke-opacity: 1; stroke-width: 2px; opacity: 1;"/></g><g class="points"/><g class="text"/></g><g class="trace scatter trace0bf766" style="stroke-miterlimit: 2; opacity: 1;"><g class="fills"/><g class="errorbars"/><g class="lines"><path class="js-line" d="M209.89,386.67L216,388.92L221.73,383.54L227.84,369.26L233.76,366.49L239.87,366.04L245.79,360.96L251.91,359.83L258.02,365.06L263.94,358.64L270.06,355.56L275.97,344.04L282.09,349.47L288.2,348.41L293.73,351.92L299.84,339.06L305.76,344.71L311.88,336.87L317.79,331.55L323.91,331.12L330.02,312.29L335.94,296.2L342.06,289.7L347.97,286.86L354.09,303.11L360.21,302.46L365.73,295.74L371.84,266.49L375,337.88" style="vector-effect: non-scaling-stroke; fill: none; stroke: rgb(190, 190, 190); stroke-opacity: 1; stroke-width: 2px; opacity: 1;"/></g><g class="points"/><g class="text"/></g><g class="trace scatter traceb9064c" style="stroke-miterlimit: 2; opacity: 1;"><g class="fills"/><g class="errorbars"/><g class="lines"><path class="js-line" d="M0,397.19L11.64,395.3L17.56,395.75L29.59,395.54L35.7,395.9L59.77,393.95L65.89,394.78L72,393.29L77.52,393.95L89.56,391.39L95.67,387.91L101.59,387.04L107.71,383.22L113.82,387.22L119.74,385.24L131.77,379.8L137.89,382.05L144,375.14L149.53,373.09L155.64,362.6L161.56,366.15L167.67,365.8L173.59,372.64L179.71,370L185.82,356.56L191.74,363.51L197.86,363.17L203.77,357.68L209.89,356.22L216,355.16L221.73,340.72L227.84,321.43L233.76,323.35L239.87,329.76L245.79,329.22L251.91,333.69L258.02,332.32L263.94,323.76L270.06,326L282.09,346.1L288.2,340.41L293.73,346.57L299.84,294.7L305.76,329.62L311.88,337.21L317.79,341.31L323.91,343.56L330.02,343.17L335.94,331.48L342.06,334.79L347.97,334.22L354.09,341.06L360.21,336.43L365.73,338.27L371.84,324.09L375,365.05" style="vector-effect: non-scaling-stroke; fill: none; stroke: rgb(190, 190, 190); stroke-opacity: 1; stroke-width: 2px; opacity: 1;"/></g><g class="points"/><g class="text"/></g></g></g><g class="overplot"/><path class="xlines-above crisp" d="M0,0" style="fill: none;"/><path class="ylines-above crisp" d="M0,0" style="fill: none;"/><g class="overlines-above"/><g class="xaxislayer-above"><g class="xtick"><text text-anchor="middle" x="0" y="457" transform="translate(126.08,0)" style="font-family: 'Open Sans', verdana, arial, sans-serif; font-size: 12px; fill: rgb(68, 68, 68); fill-opacity: 1; white-space: pre; opacity: 1;">2018</text></g><g class="xtick"><text text-anchor="middle" x="0" y="457" style="font-family: 'Open Sans', verdana, arial, sans-serif; font-size: 12px; fill: rgb(68, 68, 68); fill-opacity: 1; white-space: pre; opacity: 1;" transform="translate(198.09,0)">2019</text></g><g class="xtick"><text text-anchor="middle" x="0" y="457" style="font-family: 'Open Sans', verdana, arial, sans-serif; font-size: 12px; fill: rgb(68, 68, 68); fill-opacity: 1; white-space: pre; opacity: 1;" transform="translate(270.09000000000003,0)">2020</text></g><g class="xtick"><text text-anchor="middle" x="0" y="457" style="font-family: 'Open Sans', verdana, arial, sans-serif; font-size: 12px; fill: rgb(68, 68, 68); fill-opacity: 1; white-space: pre; opacity: 1;" transform="translate(342.29,0)">2021</text></g><g class="xtick"><text text-anchor="middle" x="0" y="457" style="font-family: 'Open Sans', verdana, arial, sans-serif; font-size: 12px; fill: rgb(68, 68, 68); fill-opacity: 1; white-space: pre; opacity: 1;" transform="translate(414.29,0)">2022</text></g></g><g class="yaxislayer-above"><g class="ytick"><text text-anchor="end" x="59" y="4.199999999999999" transform="translate(0,423.24)" style="font-family: 'Open Sans', verdana, arial, sans-serif; font-size: 12px; fill: rgb(68, 68, 68); fill-opacity: 1; white-space: pre; opacity: 1;">0</text></g><g class="ytick"><text text-anchor="end" x="59" y="4.199999999999999" style="font-family: 'Open Sans', verdana, arial, sans-serif; font-size: 12px; fill: rgb(68, 68, 68); fill-opacity: 1; white-space: pre; opacity: 1;" transform="translate(0,372.75)">50k</text></g><g class="ytick"><text text-anchor="end" x="59" y="4.199999999999999" style="font-family: 'Open Sans', verdana, arial, sans-serif; font-size: 12px; fill: rgb(68, 68, 68); fill-opacity: 1; white-space: pre; opacity: 1;" transform="translate(0,322.27)">100k</text></g><g class="ytick"><text text-anchor="end" x="59" y="4.199999999999999" style="font-family: 'Open Sans', verdana, arial, sans-serif; font-size: 12px; fill: rgb(68, 68, 68); fill-opacity: 1; white-space: pre; opacity: 1;" transform="translate(0,271.78)">150k</text></g><g class="ytick"><text text-anchor="end" x="59" y="4.199999999999999" style="font-family: 'Open Sans', verdana, arial, sans-serif; font-size: 12px; fill: rgb(68, 68, 68); fill-opacity: 1; white-space: pre; opacity: 1;" transform="translate(0,221.3)">200k</text></g><g class="ytick"><text text-anchor="end" x="59" y="4.199999999999999" style="font-family: 'Open Sans', verdana, arial, sans-serif; font-size: 12px; fill: rgb(68, 68, 68); fill-opacity: 1; white-space: pre; opacity: 1;" transform="translate(0,170.82)">250k</text></g><g class="ytick"><text text-anchor="end" x="59" y="4.199999999999999" style="font-family: 'Open Sans', verdana, arial, sans-serif; font-size: 12px; fill: rgb(68, 68, 68); fill-opacity: 1; white-space: pre; opacity: 1;" transform="translate(0,120.33)">300k</text></g><g class="ytick"><text text-anchor="end" x="59" y="4.199999999999999" style="font-family: 'Open Sans', verdana, arial, sans-serif; font-size: 12px; fill: rgb(68, 68, 68); fill-opacity: 1; white-space: pre; opacity: 1;" transform="translate(0,69.85)">350k</text></g></g><g class="overaxes-above"/></g></g><g class="polarlayer"/><g class="ternarylayer"/><g class="geolayer"/><g class="funnelarealayer"/><g class="pielayer"/><g class="iciclelayer"/><g class="treemaplayer"/><g class="sunburstlayer"/><g class="glimages"/><defs id="topdefs-6fd8eb"><g class="clips"/><clipPath id="legend6fd8eb"><rect width="119" height="219" x="0" y="0"/></clipPath></defs><g class="layer-above"><g class="imagelayer"/><g class="shapelayer"/></g><g class="infolayer"><g class="legend" pointer-events="all" transform="translate(442.5,25)"><rect class="bg" shape-rendering="crispEdges" width="119" height="219" x="0" y="0" style="stroke: rgb(68, 68, 68); stroke-opacity: 1; fill: rgb(255, 255, 255); fill-opacity: 1; stroke-width: 0px;"/><g class="scrollbox" transform="" clip-path="url(#legend6fd8eb)"><g class="groups"><g class="traces" transform="translate(0,14.5)" style="opacity: 1;"><text class="legendtext" text-anchor="start" x="40" y="4.680000000000001" style="font-family: 'Open Sans', verdana, arial, sans-serif; font-size: 12px; fill: rgb(68, 68, 68); fill-opacity: 1; white-space: pre;">plotly</text><g class="layers" style="opacity: 1;"><g class="legendfill"/><g class="legendlines"><path class="js-line" d="M5,0h30" style="fill: none; stroke: rgb(0, 0, 139); stroke-opacity: 1; stroke-width: 2px;"/></g><g class="legendsymbols"><g class="legendpoints"/></g></g><rect class="legendtoggle" x="0" y="-9.5" width="113.42151641845703" height="19" style="fill: rgb(0, 0, 0); fill-opacity: 0;"/></g><g class="traces" transform="translate(0,33.5)" style="opacity: 1;"><text class="legendtext" text-anchor="start" x="40" y="4.680000000000001" style="font-family: 'Open Sans', verdana, arial, sans-serif; font-size: 12px; fill: rgb(68, 68, 68); fill-opacity: 1; white-space: pre;">rbokeh</text><g class="layers" style="opacity: 1;"><g class="legendfill"/><g class="legendlines"><path class="js-line" d="M5,0h30" style="fill: none; stroke: rgb(190, 190, 190); stroke-opacity: 1; stroke-width: 2px;"/></g><g class="legendsymbols"><g class="legendpoints"/></g></g><rect class="legendtoggle" x="0" y="-9.5" width="113.42151641845703" height="19" style="fill: rgb(0, 0, 0); fill-opacity: 0;"/></g><g class="traces" transform="translate(0,52.5)" style="opacity: 1;"><text class="legendtext" text-anchor="start" x="40" y="4.680000000000001" style="font-family: 'Open Sans', verdana, arial, sans-serif; font-size: 12px; fill: rgb(68, 68, 68); fill-opacity: 1; white-space: pre;">highcharter</text><g class="layers" style="opacity: 1;"><g class="legendfill"/><g class="legendlines"><path class="js-line" d="M5,0h30" style="fill: none; stroke: rgb(190, 190, 190); stroke-opacity: 1; stroke-width: 2px;"/></g><g class="legendsymbols"><g class="legendpoints"/></g></g><rect class="legendtoggle" x="0" y="-9.5" width="113.42151641845703" height="19" style="fill: rgb(0, 0, 0); fill-opacity: 0;"/></g><g class="traces" transform="translate(0,71.5)" style="opacity: 1;"><text class="legendtext" text-anchor="start" x="40" y="4.680000000000001" style="font-family: 'Open Sans', verdana, arial, sans-serif; font-size: 12px; fill: rgb(68, 68, 68); fill-opacity: 1; white-space: pre;">lattice</text><g class="layers" style="opacity: 1;"><g class="legendfill"/><g class="legendlines"><path class="js-line" d="M5,0h30" style="fill: none; stroke: rgb(190, 190, 190); stroke-opacity: 1; stroke-width: 2px;"/></g><g class="legendsymbols"><g class="legendpoints"/></g></g><rect class="legendtoggle" x="0" y="-9.5" width="113.42151641845703" height="19" style="fill: rgb(0, 0, 0); fill-opacity: 0;"/></g><g class="traces" transform="translate(0,90.5)" style="opacity: 1;"><text class="legendtext" text-anchor="start" x="40" y="4.680000000000001" style="font-family: 'Open Sans', verdana, arial, sans-serif; font-size: 12px; fill: rgb(68, 68, 68); fill-opacity: 1; white-space: pre;">esquisse</text><g class="layers" style="opacity: 1;"><g class="legendfill"/><g class="legendlines"><path class="js-line" d="M5,0h30" style="fill: none; stroke: rgb(190, 190, 190); stroke-opacity: 1; stroke-width: 2px;"/></g><g class="legendsymbols"><g class="legendpoints"/></g></g><rect class="legendtoggle" x="0" y="-9.5" width="113.42151641845703" height="19" style="fill: rgb(0, 0, 0); fill-opacity: 0;"/></g><g class="traces" transform="translate(0,109.5)" style="opacity: 1;"><text class="legendtext" text-anchor="start" x="40" y="4.680000000000001" style="font-family: 'Open Sans', verdana, arial, sans-serif; font-size: 12px; fill: rgb(68, 68, 68); fill-opacity: 1; white-space: pre;">leaflet</text><g class="layers" style="opacity: 1;"><g class="legendfill"/><g class="legendlines"><path class="js-line" d="M5,0h30" style="fill: none; stroke: rgb(190, 190, 190); stroke-opacity: 1; stroke-width: 2px;"/></g><g class="legendsymbols"><g class="legendpoints"/></g></g><rect class="legendtoggle" x="0" y="-9.5" width="113.42151641845703" height="19" style="fill: rgb(0, 0, 0); fill-opacity: 0;"/></g><g class="traces" transform="translate(0,128.5)" style="opacity: 1;"><text class="legendtext" text-anchor="start" x="40" y="4.680000000000001" style="font-family: 'Open Sans', verdana, arial, sans-serif; font-size: 12px; fill: rgb(68, 68, 68); fill-opacity: 1; white-space: pre;">dygraphs</text><g class="layers" style="opacity: 1;"><g class="legendfill"/><g class="legendlines"><path class="js-line" d="M5,0h30" style="fill: none; stroke: rgb(190, 190, 190); stroke-opacity: 1; stroke-width: 2px;"/></g><g class="legendsymbols"><g class="legendpoints"/></g></g><rect class="legendtoggle" x="0" y="-9.5" width="113.42151641845703" height="19" style="fill: rgb(0, 0, 0); fill-opacity: 0;"/></g><g class="traces" transform="translate(0,147.5)" style="opacity: 1;"><text class="legendtext" text-anchor="start" x="40" y="4.680000000000001" style="font-family: 'Open Sans', verdana, arial, sans-serif; font-size: 12px; fill: rgb(68, 68, 68); fill-opacity: 1; white-space: pre;">ggvis</text><g class="layers" style="opacity: 1;"><g class="legendfill"/><g class="legendlines"><path class="js-line" d="M5,0h30" style="fill: none; stroke: rgb(190, 190, 190); stroke-opacity: 1; stroke-width: 2px;"/></g><g class="legendsymbols"><g class="legendpoints"/></g></g><rect class="legendtoggle" x="0" y="-9.5" width="113.42151641845703" height="19" style="fill: rgb(0, 0, 0); fill-opacity: 0;"/></g><g class="traces" transform="translate(0,166.5)" style="opacity: 1;"><text class="legendtext" text-anchor="start" x="40" y="4.680000000000001" style="font-family: 'Open Sans', verdana, arial, sans-serif; font-size: 12px; fill: rgb(68, 68, 68); fill-opacity: 1; white-space: pre;">colourpicker</text><g class="layers" style="opacity: 1;"><g class="legendfill"/><g class="legendlines"><path class="js-line" d="M5,0h30" style="fill: none; stroke: rgb(190, 190, 190); stroke-opacity: 1; stroke-width: 2px;"/></g><g class="legendsymbols"><g class="legendpoints"/></g></g><rect class="legendtoggle" x="0" y="-9.5" width="113.42151641845703" height="19" style="fill: rgb(0, 0, 0); fill-opacity: 0;"/></g><g class="traces" transform="translate(0,185.5)" style="opacity: 1;"><text class="legendtext" text-anchor="start" x="40" y="4.680000000000001" style="font-family: 'Open Sans', verdana, arial, sans-serif; font-size: 12px; fill: rgb(68, 68, 68); fill-opacity: 1; white-space: pre;">patchwork</text><g class="layers" style="opacity: 1;"><g class="legendfill"/><g class="legendlines"><path class="js-line" d="M5,0h30" style="fill: none; stroke: rgb(190, 190, 190); stroke-opacity: 1; stroke-width: 2px;"/></g><g class="legendsymbols"><g class="legendpoints"/></g></g><rect class="legendtoggle" x="0" y="-9.5" width="113.42151641845703" height="19" style="fill: rgb(0, 0, 0); fill-opacity: 0;"/></g><g class="traces" transform="translate(0,204.5)" style="opacity: 1;"><text class="legendtext" text-anchor="start" x="40" y="4.680000000000001" style="font-family: 'Open Sans', verdana, arial, sans-serif; font-size: 12px; fill: rgb(68, 68, 68); fill-opacity: 1; white-space: pre;">ggforce</text><g class="layers" style="opacity: 1;"><g class="legendfill"/><g class="legendlines"><path class="js-line" d="M5,0h30" style="fill: none; stroke: rgb(190, 190, 190); stroke-opacity: 1; stroke-width: 2px;"/></g><g class="legendsymbols"><g class="legendpoints"/></g></g><rect class="legendtoggle" x="0" y="-9.5" width="113.42151641845703" height="19" style="fill: rgb(0, 0, 0); fill-opacity: 0;"/></g></g></g><rect class="scrollbar" rx="20" ry="3" width="0" height="0" x="0" y="0" style="fill: rgb(128, 139, 164); fill-opacity: 1;"/></g><g class="g-gtitle"/><g class="g-xtitle" transform="translate(0,-15.099174179077124)"><text class="xtitle" x="247.5" y="496" text-anchor="middle" style="font-family: 'Open Sans', verdana, arial, sans-serif; font-size: 14px; fill: rgb(68, 68, 68); opacity: 1; font-weight: normal; white-space: pre;">end</text></g><g class="g-ytitle"><text class="ytitle" transform="rotate(-90,22,234.5)" x="22" y="234.5" text-anchor="middle" style="font-family: 'Open Sans', verdana, arial, sans-serif; font-size: 14px; fill: rgb(68, 68, 68); opacity: 1; font-weight: normal; white-space: pre;">downloads</text></g></g></svg>