<svg class="main-svg" xmlns="http://www.w3.org/2000/svg" xmlns:xlink="http://www.w3.org/1999/xlink" width="570.909" height="483.636" style="" viewBox="0 0 570.909 483.636"><rect x="0" y="0" width="570.909" height="483.636" style="fill: rgb(255, 255, 255); fill-opacity: 1;"/><defs id="defs-2a3cbc"><g class="clips"><clipPath id="clip2a3cbcxyplot" class="plotclip"><rect width="360" height="399"/></clipPath><clipPath class="axesclip" id="clip2a3cbcx"><rect x="89" y="0" width="360" height="483.636"/></clipPath><clipPath class="axesclip" id="clip2a3cbcy"><rect x="0" y="42" width="570.909" height="399"/></clipPath><clipPath class="axesclip" id="clip2a3cbcxy"><rect x="89" y="42" width="360" height="399"/></clipPath></g><g class="gradients"/><g class="patterns"/></defs><g class="bglayer"><rect class="bg" x="89" y="42" width="360" height="399" style="fill: rgb(235, 235, 235); fill-opacity: 1; stroke-width: 0;"/></g><g class="layer-below"><g class="imagelayer"/><g class="shapelayer"/></g><g class="cartesianlayer"><g class="subplot xy"><g class="layer-subplot"><g class="shapelayer"/><g class="imagelayer"/></g><g class="gridlayer"><g class="x"><path class="xgrid crisp" transform="translate(95.55,0)" d="M0,42v399" style="stroke: rgb(255, 255, 255); stroke-opacity: 1; stroke-width: 0.664176px;"/><path class="xgrid crisp" transform="translate(197,0)" d="M0,42v399" style="stroke: rgb(255, 255, 255); stroke-opacity: 1; stroke-width: 0.664176px;"/><path class="xgrid crisp" transform="translate(288.64,0)" d="M0,42v399" style="stroke: rgb(255, 255, 255); stroke-opacity: 1; stroke-width: 0.664176px;"/><path class="xgrid crisp" transform="translate(390.09,0)" d="M0,42v399" style="stroke: rgb(255, 255, 255); stroke-opacity: 1; stroke-width: 0.664176px;"/></g><g class="y"><path class="ygrid crisp" transform="translate(0,422.95)" d="M89,0h360" style="stroke: rgb(255, 255, 255); stroke-opacity: 1; stroke-width: 0.664176px;"/><path class="ygrid crisp" transform="translate(0,324.91)" d="M89,0h360" style="stroke: rgb(255, 255, 255); stroke-opacity: 1; stroke-width: 0.664176px;"/><path class="ygrid crisp" transform="translate(0,226.87)" d="M89,0h360" style="stroke: rgb(255, 255, 255); stroke-opacity: 1; stroke-width: 0.664176px;"/><path class="ygrid crisp" transform="translate(0,128.82999999999998)" d="M89,0h360" style="stroke: rgb(255, 255, 255); stroke-opacity: 1; stroke-width: 0.664176px;"/></g></g><g class="zerolinelayer"/><path class="xlines-below"/><path class="ylines-below"/><g class="overlines-below"/><g class="xaxislayer-below"/><g class="yaxislayer-below"/><g class="overaxes-below"/><g class="plot" transform="translate(89,42)" clip-path="url(#clip2a3cbcxyplot)"><g class="scatterlayer mlayer"><g class="trace scatter trace764e75" style="stroke-miterlimit: 2; opacity: 1;"><g class="fills"/><g class="errorbars"/><g class="lines"><path class="js-line" d="M16.36,380.08L58.91,380.15L62.18,379.81L85.09,378.4L88.36,378.1L101.45,377.6L104.73,377.35L114.55,375.57L117.82,373.82L121.09,373.37L124.36,374.03L127.64,373.75L130.91,371.23L134.18,370.34L137.45,370.37L150.55,369.74L153.82,363.22L157.09,362.69L160.36,359.41L163.64,360.91L166.91,360.39L170.18,362.25L173.45,361.43L176.73,347.33L180,347.61L183.27,348.42L186.55,348.36L189.82,348.88L193.09,353.57L196.36,353.69L199.64,337.96L202.91,341.97L206.18,328.63L212.73,333.18L216,339.63L219.27,341.2L222.55,313.8L225.82,316.72L229.09,325.46L232.36,305.72L235.64,312.28L238.91,320.21L242.18,309.9L245.45,302.37L248.73,259.12L252,301.14L255.27,306.18L258.55,315.32L261.82,339.93L268.36,284.73L271.64,303.38L274.91,314.4L278.18,315.17L281.45,318.57L284.73,344.24L288,312.83L291.27,297.71L294.55,318.07L297.82,326.01L301.09,329.16L304.36,335.01L307.64,356.01L310.91,328.79L314.18,324.82L317.45,336.88L327.27,348.7L330.55,363.12L333.82,339.64L337.09,342.64L340.36,351.85L343.64,356.28" style="vector-effect: non-scaling-stroke; fill: none; stroke: rgb(248, 118, 109); stroke-opacity: 1; stroke-width: 1.88976px; opacity: 1;"/></g><g class="points"/><g class="text"/></g><g class="trace scatter traceecf165" style="stroke-miterlimit: 2; opacity: 1;"><g class="fills"/><g class="errorbars"/><g class="lines"><path class="js-line" d="M16.36,343.82L22.91,321.76L26.18,318.51L29.45,310.91L32.73,307.53L36,301.7L39.27,297.71L42.55,269.12L45.82,278.79L49.09,276.79L52.36,270.38L58.91,290.85L62.18,268.67L65.45,214.4L68.73,240.75L72,239.9L75.27,247.43L78.55,263.32L81.82,233.01L85.09,241.82L88.36,233.34L91.64,243.29L94.91,247.71L98.18,249.28L101.45,248.18L104.73,259.16L108,250.13L111.27,242.03L114.55,245.77L121.09,267.66L124.36,266.53L127.64,270.48L130.91,256.53L134.18,255.95L137.45,262.74L140.73,267.74L144,280.77L150.55,285.99L153.82,266.23L160.36,261.69L163.64,270.33L166.91,272.14L170.18,282.77L173.45,286.07L176.73,258.52L180,251.37L183.27,262.46L186.55,265.48L189.82,255.13L193.09,270.01L196.36,270.87L199.64,245.1L202.91,240.61L206.18,225.6L209.45,234.93L212.73,240.19L216,252.9L219.27,264.56L222.55,225.99L225.82,210.88L229.09,232.42L232.36,224.65L235.64,187.73L238.91,236.67L242.18,219.25L245.45,226L248.73,164.82L252,192.94L255.27,232.6L258.55,198.95L261.82,277.77L265.09,257.11L268.36,205.48L271.64,248.73L274.91,258.37L278.18,246.56L281.45,258.32L284.73,297.54L288,234.87L291.27,243.77L294.55,269.75L301.09,282.75L304.36,294.9L307.64,309.55L310.91,296.93L314.18,288.37L317.45,289.46L320.73,297.3L324,297.62L330.55,332.01L333.82,306.84L337.09,315.91L340.36,314.62L343.64,325.55" style="vector-effect: non-scaling-stroke; fill: none; stroke: rgb(196, 154, 0); stroke-opacity: 1; stroke-width: 1.88976px; opacity: 1; stroke-dasharray: 9px, 9px;"/></g><g class="points"/><g class="text"/></g><g class="trace scatter trace276594" style="stroke-miterlimit: 2; opacity: 1;"><g class="fills"/><g class="errorbars"/><g class="lines"><path class="js-line" d="M16.36,153.39L19.64,128.91L22.91,167.89L26.18,131.78L29.45,194.25L32.73,215.16L36,184.23L39.27,126.14L42.55,108.78L45.82,143.37L49.09,121.48L52.36,189.33L55.64,219.23L58.91,178.26L62.18,82.71L65.45,67.66L68.73,61.96L72,66.88L75.27,130.23L78.55,178.5L81.82,122.35L85.09,26.83L88.36,33.56L91.64,18.14L94.91,50.45L101.45,165.58L104.73,145.72L108,45.06L111.27,43.92L114.55,62.17L117.82,97.01L121.09,133.79L124.36,187.48L127.64,97.56L130.91,105.19L134.18,137.43L137.45,55.36L140.73,132.7L144,179.27L147.27,224.65L150.55,222.67L153.82,199.06L157.09,141.31L160.36,175.78L163.64,184.66L166.91,225.35L170.18,250.93L173.45,249.64L176.73,227.86L180,206.78L183.27,214L186.55,233.41L189.82,267.62L193.09,294.44L196.36,272.06L199.64,230.01L202.91,239.27L206.18,238.21L209.45,229.69L212.73,266.2L216,293.57L219.27,258.47L222.55,235.22L225.82,224.92L229.09,209.21L232.36,219.35L235.64,263.07L238.91,292.45L242.18,250.4L245.45,215.09L248.73,206.74L252,208.79L255.27,194.66L258.55,254.2L261.82,296.33L268.36,204.2L271.64,203.89L274.91,201.71L278.18,190.79L281.45,260.56L284.73,306.74L288,262.64L291.27,208.11L294.55,225.05L297.82,160.46L301.09,281.76L304.36,282.37L307.64,313.21L310.91,312.78L314.18,241.35L317.45,222.14L320.73,263L324,270.24L327.27,317.58L330.55,334.53L333.82,287.79L337.09,268.03L340.36,284.2L343.64,278.78" style="vector-effect: non-scaling-stroke; fill: none; stroke: rgb(83, 180, 0); stroke-opacity: 1; stroke-width: 1.88976px; opacity: 1; stroke-dasharray: 3px, 3px;"/></g><g class="points"/><g class="text"/></g><g class="trace scatter tracec82940" style="stroke-miterlimit: 2; opacity: 1;"><g class="fills"/><g class="errorbars"/><g class="lines"><path class="js-line" d="M16.36,205.57L19.64,235.26L22.91,198.73L26.18,190.56L29.45,286.69L32.73,274.39L36,93.34L39.27,205.35L42.55,192.89L45.82,192.78L49.09,191.47L52.36,274.57L55.64,275.98L58.91,230.02L62.18,148.46L65.45,169.72L68.73,224.81L72,184.41L75.27,315.42L78.55,288.63L81.82,190.64L85.09,261.76L88.36,248.73L91.64,260.53L94.91,233.52L98.18,331.37L101.45,335.4L104.73,264.17L108,301.09L111.27,310.04L114.55,310.3L117.82,289.72L121.09,353.92L124.36,359.36L127.64,304.56L130.91,331.84L134.18,333.51L137.45,341.48L140.73,328.59L144,355.66L147.27,367.87L150.55,338.4L153.82,353.62L157.09,343.27L160.36,352.69L163.64,348.85L166.91,364.98L170.18,373.95L173.45,361.33L176.73,358.82L180,352.72L183.27,360.83L186.55,359.87L193.09,375.51L196.36,356.53L199.64,366.33L202.91,367.95L206.18,365.86L209.45,365.7L212.73,374.57L216,375.59L219.27,365.43L222.55,371.06L229.09,368.16L232.36,368.51L235.64,374.89L238.91,377.89L242.18,372.14L245.45,373.26L248.73,368.66L252,365.65L255.27,372.81L258.55,376.62L261.82,377.06L265.09,370.12L268.36,373.09L271.64,370.72L278.18,367.52L281.45,377.75L284.73,376.78L288,371.59L291.27,372.91L294.55,369.83L297.82,368.56L301.09,370.76L304.36,376.96L307.64,379L310.91,374.7L314.18,372.41L320.73,363.7L324,362.29L327.27,375.11L330.55,378.67L333.82,372.14L337.09,374.13L340.36,359.66L343.64,365.87" style="vector-effect: non-scaling-stroke; fill: none; stroke: rgb(0, 192, 148); stroke-opacity: 1; stroke-width: 1.88976px; opacity: 1; stroke-dasharray: 9px, 3px, 3px, 3px;"/></g><g class="points"/><g class="text"/></g><g class="trace scatter trace3fb62a" style="stroke-miterlimit: 2; opacity: 1;"><g class="fills"/><g class="errorbars"/><g class="lines"><path class="js-line" d="M16.36,356.27L26.18,334.48L29.45,335.27L32.73,347.41L36,344.12L39.27,324.28L42.55,318.29L45.82,319.23L49.09,308.77L52.36,329.5L55.64,334.82L58.91,325.49L62.18,308.58L65.45,290.63L68.73,292.02L72,296.5L75.27,305.14L78.55,321.25L81.82,323.81L85.09,299.12L88.36,306.87L91.64,285.89L94.91,301.19L98.18,308.34L101.45,330.86L104.73,338.12L108,321.51L111.27,311.84L114.55,296.57L121.09,326.62L124.36,351.65L127.64,351.4L130.91,325.94L134.18,326.06L137.45,329.86L140.73,328.72L144,339.57L147.27,355.51L150.55,353.76L153.82,343.41L157.09,340.37L160.36,339.06L163.64,340.77L166.91,347.72L170.18,363.37L173.45,361.49L176.73,351.07L180,345.47L183.27,350.33L186.55,353.24L189.82,358.3L193.09,367.81L196.36,371.38L199.64,374.77L202.91,364.25L206.18,360.67L209.45,359.25L212.73,362.58L216,372.5L219.27,371.06L222.55,361.91L225.82,366.37L229.09,362.89L232.36,364.21L235.64,366.87L238.91,374.42L242.18,372.99L245.45,367.45L248.73,367.35L252,367.09L255.27,364.07L261.82,374.54L265.09,375.6L268.36,370.32L271.64,368.72L274.91,370.44L278.18,371.1L281.45,372.88L284.73,376.92L288,377.61L291.27,373.09L294.55,371.96L297.82,372.78L301.09,373.57L304.36,376.08L307.64,378.3L310.91,376.75L314.18,374.48L317.45,374.17L324,373.5L327.27,375.56L330.55,378.56L333.82,378.06L337.09,375.54L340.36,374.57L343.64,374.97" style="vector-effect: non-scaling-stroke; fill: none; stroke: rgb(0, 182, 235); stroke-opacity: 1; stroke-width: 1.88976px; opacity: 1; stroke-dasharray: 15px, 15px;"/></g><g class="points"/><g class="text"/></g><g class="trace scatter trace99f562" style="stroke-miterlimit: 2; opacity: 1;"><g class="fills"/><g class="errorbars"/><g class="lines"><path class="js-line" d="M16.36,369.56L19.64,370.12L22.91,369.65L29.45,372.64L32.73,375.32L42.55,373.13L45.82,371.81L52.36,373.7L55.64,377.53L58.91,375.03L62.18,375.66L65.45,374.04L68.73,371.27L72,373.61L75.27,372.89L78.55,377.72L81.82,375.67L85.09,369.95L88.36,374.38L91.64,373.59L94.91,375.35L98.18,374.48L101.45,377.73L104.73,375.18L108,375.65L111.27,377.1L114.55,374.7L117.82,377.5L121.09,376.55L124.36,377.69L127.64,377.94L137.45,376.82L140.73,377.36L147.27,378.69L150.55,378.23L153.82,378.22L157.09,377.39L163.64,377.66L166.91,379.11L170.18,377.96L173.45,378.75L180,378.28L183.27,378.53L199.64,379.51L202.91,379.63L219.27,380.19L222.55,377.83L225.82,379.93L229.09,377.61L232.36,379.89L235.64,378.83L238.91,380.46L242.18,380.51L252,380.46L255.27,378.3L258.55,380.56L261.82,380.68L265.09,379.52L268.36,379.8L271.64,380.49L274.91,378.09L278.18,380.44L281.45,380.57L284.73,380.66L288,379.84L291.27,380.11L294.55,371.11L297.82,380.4L301.09,380.83L304.36,380.86L307.64,380.13L314.18,379.21L317.45,380.45L330.55,380.72L333.82,380.12L340.36,380.47L343.64,379.71" style="vector-effect: non-scaling-stroke; fill: none; stroke: rgb(165, 138, 255); stroke-opacity: 1; stroke-width: 1.88976px; opacity: 1; stroke-dasharray: 15px, 6px, 3px, 6px;"/></g><g class="points"/><g class="text"/></g><g class="trace scatter trace3a6c1d" style="stroke-miterlimit: 2; opacity: 1;"><g class="fills"/><g class="errorbars"/><g class="lines"><path class="js-line" d="M16.36,366.88L22.91,365.56L26.18,361.7L29.45,358.66L32.73,366.65L36,362.42L39.27,364.32L42.55,346.42L45.82,355.77L49.09,363.95L52.36,358.62L55.64,369.19L58.91,364.23L62.18,364.24L65.45,367.45L68.73,368.31L72,372.28L75.27,367.68L78.55,374.59L81.82,369.13L85.09,370.31L88.36,370.69L91.64,367.7L94.91,367.64L98.18,371.64L101.45,373.69L104.73,380.3L108,372.53L111.27,375.56L114.55,374.08L117.82,375.19L121.09,376.21L124.36,375.91L130.91,373.98L134.18,377.82L137.45,374.35L140.73,375.74L144,375.85L147.27,378.12L150.55,373.39L153.82,375.51L157.09,379.97L160.36,375.63L163.64,375.32L166.91,377.06L170.18,376.85L173.45,374.69L176.73,375.31L180,373.2L183.27,372.85L186.55,374.17L189.82,377.47L193.09,373.76L196.36,368.99L199.64,371.59L202.91,368.39L206.18,371.22L212.73,374.4L216,373.14L219.27,366.98L222.55,370.39L225.82,373.49L229.09,370.44L232.36,366.25L235.64,371.48L238.91,372.55L242.18,370.89L245.45,370.08L248.73,361.99L252,368.24L255.27,368L258.55,370.55L261.82,369.48L265.09,366.22L268.36,365.45L271.64,365.55L274.91,364.31L278.18,368.27L281.45,369.61L291.27,364.8L294.55,365.78L297.82,365.31L301.09,367.63L307.64,370.84L310.91,367.06L314.18,363.43L317.45,366.21L320.73,368.85L324,367.54L327.27,371.93L330.55,369.76L333.82,369.51L337.09,368.46L340.36,368.26L343.64,370.23" style="vector-effect: non-scaling-stroke; fill: none; stroke: rgb(251, 97, 215); stroke-opacity: 1; stroke-width: 1.88976px; opacity: 1; stroke-dasharray: 9px, 9px;"/></g><g class="points"/><g class="text"/></g></g></g><g class="overplot"/><path class="xlines-above crisp" d="" style="fill: none; stroke-width: 1px; stroke: rgb(0, 0, 0); stroke-opacity: 0;"/><path class="ylines-above crisp" d="" style="fill: none; stroke-width: 1px; stroke: rgb(0, 0, 0); stroke-opacity: 0;"/><g class="overlines-above"/><g class="xaxislayer-above"><path class="xtick ticks crisp" d="M0,442v3.65296803652968" transform="translate(95.55,0)" style="stroke: rgb(51, 51, 51); stroke-opacity: 1; stroke-width: 0.664176px;"/><path class="xtick ticks crisp" d="M0,442v3.65296803652968" transform="translate(197,0)" style="stroke: rgb(51, 51, 51); stroke-opacity: 1; stroke-width: 0.664176px;"/><path class="xtick ticks crisp" d="M0,442v3.65296803652968" transform="translate(288.64,0)" style="stroke: rgb(51, 51, 51); stroke-opacity: 1; stroke-width: 0.664176px;"/><path class="xtick ticks crisp" d="M0,442v3.65296803652968" transform="translate(390.09,0)" style="stroke: rgb(51, 51, 51); stroke-opacity: 1; stroke-width: 0.664176px;"/><g class="xtick"><text text-anchor="middle" x="0" y="459.6803652968037" transform="translate(95.55,0)" style="font-family: 'Open Sans', verdana, arial, sans-serif; font-size: 11.6895px; fill: rgb(77, 77, 77); fill-opacity: 1; white-space: pre; opacity: 1;">2022-01-01</text></g><g class="xtick"><text text-anchor="middle" x="0" y="459.6803652968037" style="font-family: 'Open Sans', verdana, arial, sans-serif; font-size: 11.6895px; fill: rgb(77, 77, 77); fill-opacity: 1; white-space: pre; opacity: 1;" transform="translate(197,0)">2022-02-01</text></g><g class="xtick"><text text-anchor="middle" x="0" y="459.6803652968037" style="font-family: 'Open Sans', verdana, arial, sans-serif; font-size: 11.6895px; fill: rgb(77, 77, 77); fill-opacity: 1; white-space: pre; opacity: 1;" transform="translate(288.64,0)">2022-03-01</text></g><g class="xtick"><text text-anchor="middle" x="0" y="459.6803652968037" style="font-family: 'Open Sans', verdana, arial, sans-serif; font-size: 11.6895px; fill: rgb(77, 77, 77); fill-opacity: 1; white-space: pre; opacity: 1;" transform="translate(390.09,0)">2022-04-01</text></g></g><g class="yaxislayer-above"><path class="ytick ticks crisp" d="M88,0h-3.65296803652968" transform="translate(0,422.95)" style="stroke: rgb(51, 51, 51); stroke-opacity: 1; stroke-width: 0.664176px;"/><path class="ytick ticks crisp" d="M88,0h-3.65296803652968" transform="translate(0,324.91)" style="stroke: rgb(51, 51, 51); stroke-opacity: 1; stroke-width: 0.664176px;"/><path class="ytick ticks crisp" d="M88,0h-3.65296803652968" transform="translate(0,226.87)" style="stroke: rgb(51, 51, 51); stroke-opacity: 1; stroke-width: 0.664176px;"/><path class="ytick ticks crisp" d="M88,0h-3.65296803652968" transform="translate(0,128.82999999999998)" style="stroke: rgb(51, 51, 51); stroke-opacity: 1; stroke-width: 0.664176px;"/><g class="ytick"><text text-anchor="end" x="82.00913242009132" y="4.09132420091325" transform="translate(0,422.95)" style="font-family: 'Open Sans', verdana, arial, sans-serif; font-size: 11.6895px; fill: rgb(77, 77, 77); fill-opacity: 1; white-space: pre; opacity: 1;">0</text></g><g class="ytick"><text text-anchor="end" x="82.00913242009132" y="4.09132420091325" style="font-family: 'Open Sans', verdana, arial, sans-serif; font-size: 11.6895px; fill: rgb(77, 77, 77); fill-opacity: 1; white-space: pre; opacity: 1;" transform="translate(0,324.91)">500,000</text></g><g class="ytick"><text text-anchor="end" x="82.00913242009132" y="4.09132420091325" style="font-family: 'Open Sans', verdana, arial, sans-serif; font-size: 11.6895px; fill: rgb(77, 77, 77); fill-opacity: 1; white-space: pre; opacity: 1;" transform="translate(0,226.87)">1,000,000</text></g><g class="ytick"><text text-anchor="end" x="82.00913242009132" y="4.09132420091325" style="font-family: 'Open Sans', verdana, arial, sans-serif; font-size: 11.6895px; fill: rgb(77, 77, 77); fill-opacity: 1; white-space: pre; opacity: 1;" transform="translate(0,128.82999999999998)">1,500,000</text></g></g><g class="overaxes-above"/></g></g><g class="polarlayer"/><g class="ternarylayer"/><g class="geolayer"/><g class="funnelarealayer"/><g class="pielayer"/><g class="iciclelayer"/><g class="treemaplayer"/><g class="sunburstlayer"/><g class="glimages"/><defs id="topdefs-2a3cbc"><g class="clips"/><clipPath id="legend2a3cbc"><rect width="104.22047244094487" height="222.2204724409449" x="1.88976377952756" y="1.88976377952756"/></clipPath></defs><g class="layer-above"><g class="imagelayer"/><g class="shapelayer"><path data-index="0" fill-rule="evenodd" d="M89,441H449V42H89Z" style="opacity: 1; stroke: rgb(0, 0, 0); stroke-opacity: 0; fill: rgb(0, 0, 0); fill-opacity: 0; stroke-width: 0px;"/></g></g><g class="infolayer"><g class="legend" pointer-events="all" transform="translate(456.2,42)"><rect class="bg" shape-rendering="crispEdges" width="106.11023622047244" height="224.11023622047244" x="0.94488188976378" y="0.94488188976378" style="stroke: rgb(0, 0, 0); stroke-opacity: 0; fill: rgb(255, 255, 255); fill-opacity: 1; stroke-width: 1.88976px;"/><g class="scrollbox" transform="" clip-path="url(#legend2a3cbc)"><text class="legendtitletext" text-anchor="start" x="3.88976377952756" y="20.885197569481868" style="font-family: 'Open Sans', verdana, arial, sans-serif; font-size: 14.6119px; fill: rgb(0, 0, 0); fill-opacity: 1; white-space: pre;">지역</text><g class="groups" transform=""><g class="traces" transform="translate(1.88976377952756,35.38519756948187)" style="opacity: 1;"><text class="legendtext" text-anchor="start" x="40" y="4.55890410958905" style="font-family: 'Open Sans', verdana, arial, sans-serif; font-size: 11.6895px; fill: rgb(0, 0, 0); fill-opacity: 1; white-space: pre;">한국</text><g class="layers" style="opacity: 1;"><g class="legendfill"/><g class="legendlines"><path class="js-line" d="M5,0h30" style="fill: none; stroke: rgb(248, 118, 109); stroke-opacity: 1; stroke-width: 1.88976px;"/></g><g class="legendsymbols"><g class="legendpoints"/></g></g><rect class="legendtoggle" x="0" y="-9.5" width="98.5316047668457" height="19" style="fill: rgb(0, 0, 0); fill-opacity: 0;"/></g></g><g class="groups" transform="translate(0,10)"><g class="traces" transform="translate(1.88976377952756,54.38519756948187)" style="opacity: 1;"><text class="legendtext" text-anchor="start" x="40" y="4.55890410958905" style="font-family: 'Open Sans', verdana, arial, sans-serif; font-size: 11.6895px; fill: rgb(0, 0, 0); fill-opacity: 1; white-space: pre;">아시아</text><g class="layers" style="opacity: 1;"><g class="legendfill"/><g class="legendlines"><path class="js-line" d="M5,0h30" style="fill: none; stroke: rgb(196, 154, 0); stroke-opacity: 1; stroke-dasharray: 9px, 9px; stroke-width: 1.88976px;"/></g><g class="legendsymbols"><g class="legendpoints"/></g></g><rect class="legendtoggle" x="0" y="-9.5" width="98.5316047668457" height="19" style="fill: rgb(0, 0, 0); fill-opacity: 0;"/></g></g><g class="groups" transform="translate(0,20)"><g class="traces" transform="translate(1.88976377952756,73.38519756948187)" style="opacity: 1;"><text class="legendtext" text-anchor="start" x="40" y="4.55890410958905" style="font-family: 'Open Sans', verdana, arial, sans-serif; font-size: 11.6895px; fill: rgb(0, 0, 0); fill-opacity: 1; white-space: pre;">유럽</text><g class="layers" style="opacity: 1;"><g class="legendfill"/><g class="legendlines"><path class="js-line" d="M5,0h30" style="fill: none; stroke: rgb(83, 180, 0); stroke-opacity: 1; stroke-dasharray: 3px, 3px; stroke-width: 1.88976px;"/></g><g class="legendsymbols"><g class="legendpoints"/></g></g><rect class="legendtoggle" x="0" y="-9.5" width="98.5316047668457" height="19" style="fill: rgb(0, 0, 0); fill-opacity: 0;"/></g></g><g class="groups" transform="translate(0,30)"><g class="traces" transform="translate(1.88976377952756,92.38519756948187)" style="opacity: 1;"><text class="legendtext" text-anchor="start" x="40" y="4.55890410958905" style="font-family: 'Open Sans', verdana, arial, sans-serif; font-size: 11.6895px; fill: rgb(0, 0, 0); fill-opacity: 1; white-space: pre;">북미</text><g class="layers" style="opacity: 1;"><g class="legendfill"/><g class="legendlines"><path class="js-line" d="M5,0h30" style="fill: none; stroke: rgb(0, 192, 148); stroke-opacity: 1; stroke-dasharray: 9px, 3px, 3px, 3px; stroke-width: 1.88976px;"/></g><g class="legendsymbols"><g class="legendpoints"/></g></g><rect class="legendtoggle" x="0" y="-9.5" width="98.5316047668457" height="19" style="fill: rgb(0, 0, 0); fill-opacity: 0;"/></g></g><g class="groups" transform="translate(0,40)"><g class="traces" transform="translate(1.88976377952756,111.38519756948187)" style="opacity: 1;"><text class="legendtext" text-anchor="start" x="40" y="4.55890410958905" style="font-family: 'Open Sans', verdana, arial, sans-serif; font-size: 11.6895px; fill: rgb(0, 0, 0); fill-opacity: 1; white-space: pre;">남미</text><g class="layers" style="opacity: 1;"><g class="legendfill"/><g class="legendlines"><path class="js-line" d="M5,0h30" style="fill: none; stroke: rgb(0, 182, 235); stroke-opacity: 1; stroke-dasharray: 15px, 15px; stroke-width: 1.88976px;"/></g><g class="legendsymbols"><g class="legendpoints"/></g></g><rect class="legendtoggle" x="0" y="-9.5" width="98.5316047668457" height="19" style="fill: rgb(0, 0, 0); fill-opacity: 0;"/></g></g><g class="groups" transform="translate(0,50)"><g class="traces" transform="translate(1.88976377952756,130.38519756948187)" style="opacity: 1;"><text class="legendtext" text-anchor="start" x="40" y="4.55890410958905" style="font-family: 'Open Sans', verdana, arial, sans-serif; font-size: 11.6895px; fill: rgb(0, 0, 0); fill-opacity: 1; white-space: pre;">아프리카</text><g class="layers" style="opacity: 1;"><g class="legendfill"/><g class="legendlines"><path class="js-line" d="M5,0h30" style="fill: none; stroke: rgb(165, 138, 255); stroke-opacity: 1; stroke-dasharray: 15px, 6px, 3px, 6px; stroke-width: 1.88976px;"/></g><g class="legendsymbols"><g class="legendpoints"/></g></g><rect class="legendtoggle" x="0" y="-9.5" width="98.5316047668457" height="19" style="fill: rgb(0, 0, 0); fill-opacity: 0;"/></g></g><g class="groups" transform="translate(0,60)"><g class="traces" transform="translate(1.88976377952756,149.38519756948187)" style="opacity: 1;"><text class="legendtext" text-anchor="start" x="40" y="4.55890410958905" style="font-family: 'Open Sans', verdana, arial, sans-serif; font-size: 11.6895px; fill: rgb(0, 0, 0); fill-opacity: 1; white-space: pre;">오세아니아</text><g class="layers" style="opacity: 1;"><g class="legendfill"/><g class="legendlines"><path class="js-line" d="M5,0h30" style="fill: none; stroke: rgb(251, 97, 215); stroke-opacity: 1; stroke-dasharray: 9px, 9px; stroke-width: 1.88976px;"/></g><g class="legendsymbols"><g class="legendpoints"/></g></g><rect class="legendtoggle" x="0" y="-9.5" width="98.5316047668457" height="19" style="fill: rgb(0, 0, 0); fill-opacity: 0;"/></g></g></g><rect class="scrollbar" rx="20" ry="3" width="0" height="0" x="0" y="0" style="fill: rgb(128, 139, 164); fill-opacity: 1;"/></g><g class="g-gtitle"><text class="gtitle" x="89" y="21" text-anchor="start" dy="0em" style="font-family: 'Open Sans', verdana, arial, sans-serif; font-size: 17.53px; fill: rgb(0, 0, 0); opacity: 1; font-weight: normal; white-space: pre;">코로나19 신규확진자수</text></g><g class="g-xtitle" transform="translate(0,-13.933991438356088)"><text class="xtitle" x="269" y="494.8356164383561" text-anchor="middle" style="font-family: 'Open Sans', verdana, arial, sans-serif; font-size: 14.61px; fill: rgb(0, 0, 0); opacity: 1; font-weight: normal; white-space: pre;">날짜</text></g><g class="g-ytitle" transform="translate(-32.9794921875,0)"><text class="ytitle" transform="rotate(-90,49.7762557077626,241.5)" x="49.7762557077626" y="241.5" text-anchor="middle" style="font-family: 'Open Sans', verdana, arial, sans-serif; font-size: 14.61px; fill: rgb(0, 0, 0); opacity: 1; font-weight: normal; white-space: pre;">확진자수</text></g></g></svg>