<svg class="main-svg" xmlns="http://www.w3.org/2000/svg" xmlns:xlink="http://www.w3.org/1999/xlink" width="570.909" height="459.091" style="" viewBox="0 0 570.909 459.091"><rect x="0" y="0" width="570.909" height="459.091" style="fill: rgb(255, 255, 255); fill-opacity: 1;"/><defs id="defs-d0af07"><g class="clips"/><g class="gradients"/><g class="patterns"/></defs><g class="bglayer"/><g class="layer-below"><g class="imagelayer"/><g class="shapelayer"/></g><g class="cartesianlayer"/><g class="polarlayer"/><g class="ternarylayer"/><g class="geolayer"/><g class="funnelarealayer"/><g class="pielayer"/><g class="iciclelayer"/><g class="treemaplayer"/><g class="sunburstlayer"/><g class="glimages"/><defs id="topdefs-d0af07"><g class="clips"/></defs><g class="indicatorlayer"><g class="trace"><g class="numbers" transform="translate(285.49938201904297,364.0779495239258)"><text text-anchor="middle" class="number" x="0" y="0" style="font-family: 'Open Sans', verdana, arial, sans-serif; font-size: 40px; fill: rgb(68, 68, 68); fill-opacity: 1; white-space: pre;">만족도 :3.5</text><text text-anchor="middle" class="delta" x="0" y="0" dy="-40" style="font-family: 'Open Sans', verdana, arial, sans-serif; font-size: 35px; fill: rgb(0, 0, 139); fill-opacity: 1; white-space: pre;">−0.5</text></g><g class="angular" transform="translate(285.5,372.25)"><g class="bg-arc"><path d="M-260.5,-3.190204911778855e-14A260.5,260.5 0 0,1 260.5,0L195.375,0A195.375,195.375 0 0,0 -195.375,-2.3926536838341414e-14Z" style="stroke: rgb(68, 68, 68); stroke-opacity: 1; fill: rgb(255, 255, 255); fill-opacity: 1; stroke-width: 0;"/></g><g class="bg-arc"><path d="M-260.5,-3.190204911778855e-14A260.5,260.5 0 0,1 -215.2352007093167,-146.7448751255735L-161.42640053198753,-110.05865634418012A195.375,195.375 0 0,0 -195.375,-2.3926536838341414e-14Z" style="stroke: rgb(255, 255, 255); stroke-opacity: 1; fill: rgb(239, 243, 255); fill-opacity: 1; stroke-width: 5;"/></g><g class="bg-arc"><path d="M-215.2352007093167,-146.7448751255735A260.5,260.5 0 0,1 -95.17133684744593,-242.4926115218152L-71.37850263558444,-181.8694586413614A195.375,195.375 0 0,0 -161.42640053198753,-110.05865634418012Z" style="stroke: rgb(255, 255, 255); stroke-opacity: 1; fill: rgb(189, 215, 231); fill-opacity: 1; stroke-width: 5;"/></g><g class="bg-arc"><path d="M-95.17133684744593,-242.4926115218152A260.5,260.5 0 0,1 57.966703295619915,-253.96872112336504L43.47502747171494,-190.4765408425238A195.375,195.375 0 0,0 -71.37850263558444,-181.8694586413614Z" style="stroke: rgb(255, 255, 255); stroke-opacity: 1; fill: rgb(107, 174, 214); fill-opacity: 1; stroke-width: 5;"/></g><g class="bg-arc"><path d="M57.966703295619915,-253.96872112336504A260.5,260.5 0 0,1 190.9600126116697,-177.18499818932455L143.2200094587523,-132.8887486419934A195.375,195.375 0 0,0 43.47502747171494,-190.4765408425238Z" style="stroke: rgb(255, 255, 255); stroke-opacity: 1; fill: rgb(49, 130, 189); fill-opacity: 1; stroke-width: 5;"/></g><g class="bg-arc"><path d="M190.9600126116697,-177.18499818932455A260.5,260.5 0 0,1 257.590430231646,-38.82551033889348L193.1928226737345,-29.11913275417011A195.375,195.375 0 0,0 143.2200094587523,-132.8887486419934Z" style="stroke: rgb(255, 255, 255); stroke-opacity: 1; fill: rgb(8, 81, 156); fill-opacity: 1; stroke-width: 5;"/></g><g class="value-arc"><path d="M-244.21875,-2.990817104792677e-14A244.21875,244.21875 0 0,1 122.10937499999997,-211.4996415804809L105.82812499999997,-183.2996893697501A211.65625,211.65625 0 0,0 -211.65625,-2.5920414908203197e-14Z" style="stroke: rgb(68, 68, 68); stroke-opacity: 1; fill: rgb(0, 0, 139); fill-opacity: 1; stroke-width: 0;"/></g><g class="threshold-arc"><path d="M230.3017202744193,-110.90746315187157A255.615625,255.615625 0 0,1 230.3017202744193,-110.90746315187157L180.427462380596,-86.88928641834525A200.259375,200.259375 0 0,0 180.427462380596,-86.88928641834525Z" style="stroke: rgb(255, 255, 255); stroke-opacity: 1; fill: rgb(0, 0, 0); fill-opacity: 1; stroke-width: 3;"/></g><g class="gauge-outline"><path d="M-260.5,-3.190204911778855e-14A260.5,260.5 0 0,1 260.5,0L195.375,0A195.375,195.375 0 0,0 -195.375,-2.3926536838341414e-14Z" style="stroke: rgb(68, 68, 68); stroke-opacity: 1; fill: rgb(0, 0, 0); fill-opacity: 0; stroke-width: 1;"/></g></g><g class="angularaxis crisp"><path class="xangularaxistick ticks crisp" d="M0.5,0h5" transform="translate(25,372.24999999999994)rotate(-180)" style="stroke: rgb(68, 68, 68); stroke-opacity: 1; stroke-width: 1px;"/><path class="xangularaxistick ticks crisp" d="M0.5,0h5" transform="translate(70.2647992906833,225.5051248744265)rotate(-145.71428571428572)" style="stroke: rgb(68, 68, 68); stroke-opacity: 1; stroke-width: 1px;"/><path class="xangularaxistick ticks crisp" d="M0.5,0h5" transform="translate(190.32866315255407,129.7573884781848)rotate(-111.42857142857143)" style="stroke: rgb(68, 68, 68); stroke-opacity: 1; stroke-width: 1px;"/><path class="xangularaxistick ticks crisp" d="M0.5,0h5" transform="translate(343.46670329561994,118.28127887663496)rotate(-77.14285714285714)" style="stroke: rgb(68, 68, 68); stroke-opacity: 1; stroke-width: 1px;"/><path class="xangularaxistick ticks crisp" d="M0.5,0h5" transform="translate(476.4600126116697,195.06500181067545)rotate(-42.857142857142875)" style="stroke: rgb(68, 68, 68); stroke-opacity: 1; stroke-width: 1px;"/><path class="xangularaxistick ticks crisp" d="M0.5,0h5" transform="translate(543.090430231646,333.4244896611065)rotate(-8.57142857142858)" style="stroke: rgb(68, 68, 68); stroke-opacity: 1; stroke-width: 1px;"/><g class="xangularaxistick"><text text-anchor="end" x="-7.9" y="4.199999999999998" transform="translate(25,372.24999999999994)" style="font-family: 'Open Sans', verdana, arial, sans-serif; font-size: 12px; fill: rgb(68, 68, 68); fill-opacity: 1; white-space: pre; opacity: 1;">0</text></g><g class="xangularaxistick"><text text-anchor="end" x="-6.527286317096361" y="-2.3319937459281266" transform="translate(70.2647992906833,225.5051248744265)" style="font-family: 'Open Sans', verdana, arial, sans-serif; font-size: 12px; fill: rgb(68, 68, 68); fill-opacity: 1; white-space: pre; opacity: 1;">1</text></g><g class="xangularaxistick"><text text-anchor="end" x="-2.8861940924945215" y="-8.053567308696445" transform="translate(190.32866315255407,129.7573884781848)" style="font-family: 'Open Sans', verdana, arial, sans-serif; font-size: 12px; fill: rgb(68, 68, 68); fill-opacity: 1; white-space: pre; opacity: 1;">2</text></g><g class="xangularaxistick"><text text-anchor="start" x="1.7579153782548842" y="-9.107169572856263" transform="translate(343.46670329561994,118.28127887663496)" style="font-family: 'Open Sans', verdana, arial, sans-serif; font-size: 12px; fill: rgb(68, 68, 68); fill-opacity: 1; white-space: pre; opacity: 1;">3</text></g><g class="xangularaxistick"><text text-anchor="start" x="5.7911097874556265" y="-3.9269613373552033" transform="translate(476.4600126116697,195.06500181067545)" style="font-family: 'Open Sans', verdana, arial, sans-serif; font-size: 12px; fill: rgb(68, 68, 68); fill-opacity: 1; white-space: pre; opacity: 1;">4</text></g><g class="xangularaxistick"><text text-anchor="start" x="7.811763527178516" y="2.6179541285309407" transform="translate(543.090430231646,333.4244896611065)" style="font-family: 'Open Sans', verdana, arial, sans-serif; font-size: 12px; fill: rgb(68, 68, 68); fill-opacity: 1; white-space: pre; opacity: 1;">5</text></g></g><text class="title" text-anchor="middle" x="0" y="0" style="font-family: 'Open Sans', verdana, arial, sans-serif; font-size: 30px; fill: rgb(68, 68, 68); fill-opacity: 1; white-space: pre;" transform="translate(285.5,86.00115585327148)"><tspan style="font-weight:bold">조사 만족도</tspan></text></g></g><g class="layer-above"><g class="imagelayer"/><g class="shapelayer"/></g><g class="infolayer"><g class="g-gtitle"/></g></svg>