<svg class="main-svg" xmlns="http://www.w3.org/2000/svg" xmlns:xlink="http://www.w3.org/1999/xlink" width="570.909" height="483.636" style="" viewBox="0 0 570.909 483.636"><rect x="0" y="0" width="570.909" height="483.636" style="fill: rgb(255, 255, 255); fill-opacity: 1;"/><defs id="defs-9ab09d"><g class="clips"><clipPath id="clip9ab09dxyplot" class="plotclip"><rect width="488" height="392"/></clipPath><clipPath class="axesclip" id="clip9ab09dx"><rect x="58" y="0" width="488" height="483.636"/></clipPath><clipPath class="axesclip" id="clip9ab09dy"><rect x="0" y="50" width="570.909" height="392"/></clipPath><clipPath class="axesclip" id="clip9ab09dxy"><rect x="58" y="50" width="488" height="392"/></clipPath></g><g class="gradients"/><g class="patterns"/></defs><g class="bglayer"/><g class="layer-below"><g class="imagelayer"/><g class="shapelayer"/></g><g class="cartesianlayer"><g class="subplot xy"><g class="layer-subplot"><g class="shapelayer"/><g class="imagelayer"/></g><g class="gridlayer"><g class="x"><path class="xgrid crisp" transform="translate(60.53,0)" d="M0,50v392" style="stroke: rgb(238, 238, 238); stroke-opacity: 1; stroke-width: 1px;"/><path class="xgrid crisp" transform="translate(153.07999999999998,0)" d="M0,50v392" style="stroke: rgb(238, 238, 238); stroke-opacity: 1; stroke-width: 1px;"/><path class="xgrid crisp" transform="translate(246.65,0)" d="M0,50v392" style="stroke: rgb(238, 238, 238); stroke-opacity: 1; stroke-width: 1px;"/><path class="xgrid crisp" transform="translate(338.7,0)" d="M0,50v392" style="stroke: rgb(238, 238, 238); stroke-opacity: 1; stroke-width: 1px;"/><path class="xgrid crisp" transform="translate(432.26,0)" d="M0,50v392" style="stroke: rgb(238, 238, 238); stroke-opacity: 1; stroke-width: 1px;"/><path class="xgrid crisp" transform="translate(524.31,0)" d="M0,50v392" style="stroke: rgb(238, 238, 238); stroke-opacity: 1; stroke-width: 1px;"/></g><g class="y"><path class="ygrid crisp" transform="translate(0,363.92)" d="M58,0h488" style="stroke: rgb(238, 238, 238); stroke-opacity: 1; stroke-width: 1px;"/><path class="ygrid crisp" transform="translate(0,305.43)" d="M58,0h488" style="stroke: rgb(238, 238, 238); stroke-opacity: 1; stroke-width: 1px;"/><path class="ygrid crisp" transform="translate(0,246.94)" d="M58,0h488" style="stroke: rgb(238, 238, 238); stroke-opacity: 1; stroke-width: 1px;"/><path class="ygrid crisp" transform="translate(0,188.46)" d="M58,0h488" style="stroke: rgb(238, 238, 238); stroke-opacity: 1; stroke-width: 1px;"/><path class="ygrid crisp" transform="translate(0,129.97)" d="M58,0h488" style="stroke: rgb(238, 238, 238); stroke-opacity: 1; stroke-width: 1px;"/><path class="ygrid crisp" transform="translate(0,71.49)" d="M58,0h488" style="stroke: rgb(238, 238, 238); stroke-opacity: 1; stroke-width: 1px;"/></g></g><g class="zerolinelayer"><path class="yzl zl crisp" transform="translate(0,422.4)" d="M58,0h488" style="stroke: rgb(68, 68, 68); stroke-opacity: 1; stroke-width: 1px;"/></g><path class="xlines-below"/><path class="ylines-below"/><g class="overlines-below"/><g class="xaxislayer-below"/><g class="yaxislayer-below"/><g class="overaxes-below"/><g class="plot" transform="translate(58,50)" clip-path="url(#clip9ab09dxyplot)"><g class="scatterlayer mlayer"><g class="trace scatter trace97e2d6" style="stroke-miterlimit: 2; opacity: 1;"><g class="fills"/><g class="errorbars"/><g class="lines"><path class="js-line" d="M25.42,372.4L42.2,371.98L42.71,371.62L45.25,370.09L45.76,369.46L48.3,366.28L48.81,364.11L50.84,358.38L51.35,356.94L53.39,349.5L53.89,348.4L55.42,345.14L55.93,342.65L59.49,335.42L60,334.53L64.57,329.44L65.08,329.2L68.13,326.75L68.64,326.63L72.71,323.4L73.22,323.78L78.3,322.58L78.81,322.48L106.27,320.03L106.78,320.01L125.6,319.29L126.1,319.23L138.31,317.72L138.82,317.46L146.95,315.63L147.46,315.47L154.07,312.32L154.58,311.66L157.12,308.56L157.63,308.16L158.14,307.43L158.65,305.21L159.67,304.65L160.18,303.22L161.7,301.27L162.21,299.14L163.23,297.85L163.74,296.23L165.26,294.21L165.77,292.09L168.82,286.97L169.33,285.22L177.47,273.59L177.97,272.5L179.5,271.27L180.01,269.9L183.06,266.72L183.57,265.33L186.62,262.89L187.13,261.21L190.18,258.89L190.69,257.39L195.26,252.13L195.77,251.02L197.3,249.75L197.81,248.61L201.37,243.81L201.87,243.21L204.42,239.64L204.93,238.38L207.98,234.59L208.49,233.33L213.06,227.7L213.57,226.71L215.6,224.84L216.11,224.36L222.72,217.45L223.23,216.88L230.86,210.38L231.37,208.82L233.91,206.45L234.42,205.92L242.05,198.19L242.56,197.86L243.57,196.84L244.08,196.17L251.2,189.54L251.71,189.11L258.83,184.69L259.34,184.46L268.49,181.41L269,181.28L279.68,179.68L280.19,179.64L302.56,176.99L303.07,176.9L306.63,175.67L307.14,175.47L320.36,171.14L320.87,171.07L330.53,169.37L331.04,169.29L343.24,168.16L343.75,168.01L357.48,165.81L357.99,165.61L364.6,162.94L365.11,162.66L375.28,156.79L375.79,156.18L390.03,144.47L390.54,143.99L394.1,140.48L394.61,139.34L399.69,135.3L400.2,135.26L401.72,133.26L402.23,132.94L405.28,131.23L405.79,130.92L441.39,116.8L441.9,116.79L444.44,116.01L444.95,115.9L448,115.37" style="vector-effect: non-scaling-stroke; fill: none; stroke: rgb(31, 119, 180); stroke-opacity: 1; stroke-width: 2px; opacity: 1;"/></g><g class="points"/><g class="text"/></g><g class="trace scatter trace100694" style="stroke-miterlimit: 2; opacity: 1;"><g class="fills"/><g class="errorbars"/><g class="lines"><path class="js-line" d="M24.4,372.4L73.22,371.65L73.73,371.64L155.09,370.79L155.6,370.79L184.08,369.55L184.58,369.5L233.91,363.89L234.42,363.87L252.22,362.55L252.73,362.42L278.66,358.78L279.17,358.75L301.55,358.17L302.05,358.15L317.82,356.81L318.33,356.77L334.09,355.65L334.6,355.63L393.08,354.35L393.59,354.2L402.23,350.99L402.74,350.76L419.52,346.31L420.03,346.23L448,344.13" style="vector-effect: non-scaling-stroke; fill: none; stroke: rgb(255, 127, 14); stroke-opacity: 1; stroke-width: 2px; opacity: 1; stroke-dasharray: 9px, 9px;"/></g><g class="points"/><g class="text"/></g><g class="trace scatter trace3781c3" style="stroke-miterlimit: 2; opacity: 1;"><g class="fills"/><g class="errorbars"/><g class="lines"><path class="js-line" d="M27.96,372.4L127.63,371.65L128.14,371.64L181.53,370.9L182.04,370.86L208.49,369.01L208.99,368.99L229.84,368.51L230.35,368.5L339.68,366.04L340.19,366.02L354.43,364.73L354.94,364.65L366.13,361.93L366.64,361.81L377.32,358.75L377.82,358.64L401.72,354.66L402.23,354.4L404.78,353.26L405.28,352.84L412.4,345.54L412.91,344.81L427.15,324.78L427.66,324.31L435.8,319.95L436.3,319.78L442.91,318.2L443.42,318.13L448,317.45" style="vector-effect: non-scaling-stroke; fill: none; stroke: rgb(44, 160, 44); stroke-opacity: 1; stroke-width: 2px; opacity: 1; stroke-dasharray: 3px, 3px;"/></g><g class="points"/><g class="text"/></g><g class="trace scatter trace3511b4" style="stroke-miterlimit: 2; opacity: 1;"><g class="fills"/><g class="errorbars"/><g class="lines"><path class="js-line" d="M35.59,372.4L44.23,371.78L44.74,371.52L47.79,368.88L48.3,368.19L52.37,357.68L52.88,355.76L57.45,341.41L57.96,340.67L59.49,336.13L60,334.96L62.03,330.65L62.54,328.99L65.08,323.94L65.59,323.47L68.13,318.87L68.64,318.49L69.66,317.12L70.17,316.35L75.76,310.66L76.27,310.48L77.29,309.53L77.79,308.94L80.85,307.1L81.35,306.87L83.39,306.01L83.9,305.68L87.46,304.56L87.97,304.37L99.15,302.38L99.66,302.32L144.41,299.53L144.92,299.41L151.02,297.33L151.53,296.92L156.62,293.04L157.12,292.48L158.65,291.29L159.16,290.44L166.28,280.96L166.79,280.1L171.87,272.43L172.38,272.08L175.43,267.29L175.94,266.96L178.99,262.27L179.5,261.87L187.64,247.89L188.14,246.23L191.2,239.65L191.7,237.65L196.28,220.34L196.79,219.19L197.3,218.16L197.81,215.4L200.35,204.31L200.86,203.29L203.91,190.21L204.42,189.51L206.96,180.03L207.47,179.39L207.98,178.82L208.49,177.01L210.52,171.77L211.03,171.32L211.54,170.93L212.05,169.56L214.08,165.84L214.59,165.47L215.6,164.22L216.11,163.47L221.2,158.88L221.71,158.74L223.74,157.6L224.25,157.3L230.35,155.52L230.86,155.41L237.98,154.49L238.49,154.39L250.18,153.53L250.69,153.53L275.1,152.78L275.61,152.77L291.88,150.95L292.39,150.8L296.97,149.75L297.48,149.51L307.14,146.49L307.65,146.42L311.21,145.03L311.72,144.95L314.26,143.76L314.77,143.68L319.34,141.33L319.85,141.05L324.94,138.71L325.45,138.64L331.04,136.36L331.55,136.09L334.09,135.16L334.6,134.92L360.03,122.61L360.53,122.52L362.57,121.61L363.08,121.4L370.7,118.63L371.21,118.62L377.32,115.4L377.82,114.86L379.35,113.91L379.86,113.23L384.94,108.45L385.45,108.32L386.47,107.47L386.98,106.88L389.52,105.07L390.03,103.15L392.06,100.79L392.57,100.66L393.59,100.05L394.1,99.58L399.18,96.9L399.69,96.78L401.72,95.87L402.23,95.67L404.27,94.97L404.78,94.84L406.81,94.32L407.32,94.08L409.86,93.07L410.37,93.07L422.07,87.2L422.57,82.15L427.15,78.19L427.66,78.19L428.68,78.19L429.18,77.36L431.22,74.83L431.73,74.83L434.78,72.15L435.29,72.15L436.3,71.45L436.81,71.06L438.34,69.91L438.85,69.91L442.41,68.13L442.91,67.86L445.46,66.88L445.97,66.88L448,66.15" style="vector-effect: non-scaling-stroke; fill: none; stroke: rgb(214, 39, 40); stroke-opacity: 1; stroke-width: 2px; opacity: 1; stroke-dasharray: 9px, 3px, 3px, 3px;"/></g><g class="points"/><g class="text"/></g><g class="trace scatter trace702990" style="stroke-miterlimit: 2; opacity: 1;"><g class="fills"/><g class="errorbars"/><g class="lines"><path class="js-line" d="M32.54,372.4L45.76,371.77L46.27,371.59L49.32,369.54L49.83,369.04L53.39,364.09L53.89,363.34L58.98,355.65L59.49,354.79L64.06,348.48L64.57,347.87L66.61,345.38L67.12,344.7L71.69,340.05L72.2,339.76L78.81,334.79L79.32,334.57L90,329.33L90.51,329.2L96.61,326.79L97.12,326.68L99.15,325.49L99.66,325.2L107.8,320.53L108.31,320.14L114.92,315.18L115.43,315L122.04,310.56L122.55,310.41L127.12,307.45L127.63,307.09L132.72,304.54L133.22,304.39L136.28,302.69L136.78,302.54L142.38,299.45L142.89,299.22L145.94,297.68L146.45,297.45L151.02,295.31L151.53,294.98L157.12,291.53L157.63,291.36L159.67,289.81L160.18,289.38L166.79,283.68L167.3,283L173.4,275.92L173.91,274.88L191.7,242.51L192.21,241.05L207.47,208.24L207.98,207.73L211.54,201.83L212.05,201.26L217.64,193.03L218.15,192.65L220.69,189.35L221.2,188.81L223.23,187.16L223.74,186.61L227.81,183.55L228.32,183.28L233.91,179.76L234.42,179.37L246.12,172.86L246.62,172.75L251.2,170.56L251.71,170.28L257.3,168L257.81,167.86L263.91,165.14L264.42,165.09L267.98,163.94L268.49,163.83L285.27,160.51L285.78,160.47L298.49,157.5L299,157.1L301.55,156.21L302.05,155.85L309.17,150.49L309.68,149.88L311.72,148.44L312.22,147.72L313.75,145.76L314.26,145.62L315.28,144.67L315.78,143.86L317.31,141.57L317.82,141.44L327.99,126.73L328.5,126.54L332.06,122.45L332.57,122.04L335.11,118.52L335.62,118.36L341.72,111.26L342.23,111.13L343.75,110.15L344.26,109.46L355.96,100.42L356.47,100.3L357.48,99.54L357.99,98.96L360.53,95.94L361.04,95.45L367.14,89.58L367.65,89.48L370.7,85.95L371.21,85.82L374.26,82.64L374.77,82.51L383.42,70.7L383.93,69.68L385.45,67.91L385.96,67.15L389.01,61.77L389.52,60.85L392.06,55.81L392.57,55.65L395.62,49.94L396.13,49.74L399.18,44.47L399.69,44.31L400.71,43.23L401.22,42.14L402.74,40.12L403.25,40.04L406.3,36.61L406.81,36.54L410.37,33.38L410.88,32.91L416.47,29.11L416.98,29.06L418.51,28.33L419.01,27.92L431.22,23.98L431.73,23.97L436.3,22.77L436.81,22.08L448,19.6" style="vector-effect: non-scaling-stroke; fill: none; stroke: rgb(148, 103, 189); stroke-opacity: 1; stroke-width: 2px; opacity: 1; stroke-dasharray: 15px, 15px;"/></g><g class="points"/><g class="text"/></g></g></g><g class="overplot"/><path class="xlines-above crisp" d="M0,0" style="fill: none;"/><path class="ylines-above crisp" d="M0,0" style="fill: none;"/><g class="overlines-above"/><g class="xaxislayer-above"><g class="xtick"><text text-anchor="middle" x="0" y="455" transform="translate(60.53,0)" style="font-family: 'Open Sans', verdana, arial, sans-serif; font-size: 12px; fill: rgb(68, 68, 68); fill-opacity: 1; white-space: pre; opacity: 1;">Jan 2020</text></g><g class="xtick"><text text-anchor="middle" x="0" y="455" style="font-family: 'Open Sans', verdana, arial, sans-serif; font-size: 12px; fill: rgb(68, 68, 68); fill-opacity: 1; white-space: pre; opacity: 1;" transform="translate(153.07999999999998,0)">Jul 2020</text></g><g class="xtick"><text text-anchor="middle" x="0" y="455" style="font-family: 'Open Sans', verdana, arial, sans-serif; font-size: 12px; fill: rgb(68, 68, 68); fill-opacity: 1; white-space: pre; opacity: 1;" transform="translate(246.65,0)">Jan 2021</text></g><g class="xtick"><text text-anchor="middle" x="0" y="455" style="font-family: 'Open Sans', verdana, arial, sans-serif; font-size: 12px; fill: rgb(68, 68, 68); fill-opacity: 1; white-space: pre; opacity: 1;" transform="translate(338.7,0)">Jul 2021</text></g><g class="xtick"><text text-anchor="middle" x="0" y="455" style="font-family: 'Open Sans', verdana, arial, sans-serif; font-size: 12px; fill: rgb(68, 68, 68); fill-opacity: 1; white-space: pre; opacity: 1;" transform="translate(432.26,0)">Jan 2022</text></g><g class="xtick"><text text-anchor="middle" x="0" y="455" style="font-family: 'Open Sans', verdana, arial, sans-serif; font-size: 12px; fill: rgb(68, 68, 68); fill-opacity: 1; white-space: pre; opacity: 1;" transform="translate(524.31,0)">Jul 2022</text></g></g><g class="yaxislayer-above"><g class="ytick"><text text-anchor="end" x="57" y="4.199999999999999" transform="translate(0,422.4)" style="font-family: 'Open Sans', verdana, arial, sans-serif; font-size: 12px; fill: rgb(68, 68, 68); fill-opacity: 1; white-space: pre; opacity: 1;">0</text></g><g class="ytick"><text text-anchor="end" x="57" y="4.199999999999999" style="font-family: 'Open Sans', verdana, arial, sans-serif; font-size: 12px; fill: rgb(68, 68, 68); fill-opacity: 1; white-space: pre; opacity: 1;" transform="translate(0,363.92)">500</text></g><g class="ytick"><text text-anchor="end" x="57" y="4.199999999999999" style="font-family: 'Open Sans', verdana, arial, sans-serif; font-size: 12px; fill: rgb(68, 68, 68); fill-opacity: 1; white-space: pre; opacity: 1;" transform="translate(0,305.43)">1000</text></g><g class="ytick"><text text-anchor="end" x="57" y="4.199999999999999" style="font-family: 'Open Sans', verdana, arial, sans-serif; font-size: 12px; fill: rgb(68, 68, 68); fill-opacity: 1; white-space: pre; opacity: 1;" transform="translate(0,246.94)">1500</text></g><g class="ytick"><text text-anchor="end" x="57" y="4.199999999999999" style="font-family: 'Open Sans', verdana, arial, sans-serif; font-size: 12px; fill: rgb(68, 68, 68); fill-opacity: 1; white-space: pre; opacity: 1;" transform="translate(0,188.46)">2000</text></g><g class="ytick"><text text-anchor="end" x="57" y="4.199999999999999" style="font-family: 'Open Sans', verdana, arial, sans-serif; font-size: 12px; fill: rgb(68, 68, 68); fill-opacity: 1; white-space: pre; opacity: 1;" transform="translate(0,129.97)">2500</text></g><g class="ytick"><text text-anchor="end" x="57" y="4.199999999999999" style="font-family: 'Open Sans', verdana, arial, sans-serif; font-size: 12px; fill: rgb(68, 68, 68); fill-opacity: 1; white-space: pre; opacity: 1;" transform="translate(0,71.49)">3000</text></g></g><g class="overaxes-above"/></g></g><g class="polarlayer"/><g class="ternarylayer"/><g class="geolayer"/><g class="funnelarealayer"/><g class="pielayer"/><g class="iciclelayer"/><g class="treemaplayer"/><g class="sunburstlayer"/><g class="glimages"/><defs id="topdefs-9ab09d"><g class="clips"/></defs><g class="layer-above"><g class="imagelayer"/><g class="shapelayer"/></g><g class="infolayer"><g class="g-gtitle"><text class="gtitle" x="285.4545" y="25" text-anchor="middle" dy="0em" style="font-family: 'Open Sans', verdana, arial, sans-serif; font-size: 17px; fill: rgb(68, 68, 68); opacity: 1; font-weight: normal; white-space: pre;">코로나 19 사망자수 추세</text></g><g class="g-xtitle"/><g class="g-ytitle"><text class="ytitle" transform="rotate(-90,20,246)" x="20" y="246" text-anchor="middle" style="font-family: 'Open Sans', verdana, arial, sans-serif; font-size: 14px; fill: rgb(68, 68, 68); opacity: 1; font-weight: normal; white-space: pre;">10만명당 사망자수 누계</text></g><g class="annotation" data-index="0" style="opacity: 1;"><g class="annotation-text-g" transform="rotate(0,526,165.37)"><g class="cursor-pointer" transform="translate(506,156)"><rect class="bg" x="0.5" y="0.5" width="39" height="18" style="stroke-width: 1px; stroke: rgb(0, 0, 0); stroke-opacity: 0; fill: rgb(0, 0, 0); fill-opacity: 0;"/><text class="annotation-text" text-anchor="middle" x="19.984375" y="13.8125" style="font-family: 'Open Sans', verdana, arial, sans-serif; font-size: 12px; fill: rgb(68, 68, 68); fill-opacity: 1; white-space: pre;">프랑스</text></g></g></g><g class="annotation" data-index="1" style="opacity: 1;"><g class="annotation-text-g" transform="rotate(0,520,403.63)"><g class="cursor-pointer" transform="translate(506,394)"><rect class="bg" x="0.5" y="0.5" width="27" height="18" style="stroke-width: 1px; stroke: rgb(0, 0, 0); stroke-opacity: 0; fill: rgb(0, 0, 0); fill-opacity: 0;"/><text class="annotation-text" text-anchor="middle" x="13.9833984375" y="13.8125" style="font-family: 'Open Sans', verdana, arial, sans-serif; font-size: 12px; fill: rgb(68, 68, 68); fill-opacity: 1; white-space: pre;">일본</text></g></g></g><g class="annotation" data-index="2" style="opacity: 1;"><g class="annotation-text-g" transform="rotate(0,520,116.15)"><g class="cursor-pointer" transform="translate(506,107)"><rect class="bg" x="0.5" y="0.5" width="27" height="18" style="stroke-width: 1px; stroke: rgb(0, 0, 0); stroke-opacity: 0; fill: rgb(0, 0, 0); fill-opacity: 0;"/><text class="annotation-text" text-anchor="middle" x="13.9833984375" y="13.8125" style="font-family: 'Open Sans', verdana, arial, sans-serif; font-size: 12px; fill: rgb(68, 68, 68); fill-opacity: 1; white-space: pre;">영국</text></g></g></g><g class="annotation" data-index="3" style="opacity: 1;"><g class="annotation-text-g" transform="rotate(0,520,69.6)"><g class="cursor-pointer" transform="translate(506,60)"><rect class="bg" x="0.5" y="0.5" width="27" height="18" style="stroke-width: 1px; stroke: rgb(0, 0, 0); stroke-opacity: 0; fill: rgb(0, 0, 0); fill-opacity: 0;"/><text class="annotation-text" text-anchor="middle" x="13.9833984375" y="13.8125" style="font-family: 'Open Sans', verdana, arial, sans-serif; font-size: 12px; fill: rgb(68, 68, 68); fill-opacity: 1; white-space: pre;">미국</text></g></g></g><g class="annotation" data-index="4" style="opacity: 1;"><g class="annotation-text-g" transform="rotate(0,520,357.95)"><g class="cursor-pointer" transform="translate(506,348)"><rect class="bg" x="0.5" y="0.5" width="27" height="18" style="stroke-width: 1px; stroke: rgb(0, 0, 0); stroke-opacity: 0; fill: rgb(0, 0, 0); fill-opacity: 0;"/><text class="annotation-text" text-anchor="middle" x="13.9833984375" y="13.8125" style="font-family: 'Open Sans', verdana, arial, sans-serif; font-size: 12px; fill: rgb(68, 68, 68); fill-opacity: 1; white-space: pre;">한국</text></g></g></g></g></svg>