<svg class="main-svg" xmlns="http://www.w3.org/2000/svg" xmlns:xlink="http://www.w3.org/1999/xlink" width="928.182" height="787.273" style="" viewBox="0 0 928.182 787.273"><rect x="0" y="0" width="928.182" height="787.273" style="fill: rgb(255, 255, 255); fill-opacity: 1;"/><defs id="defs-ce9b3d"><g class="clips"><clipPath id="clipce9b3dxyplot" class="plotclip"><rect width="756" height="695"/></clipPath><clipPath class="axesclip" id="clipce9b3dx"><rect x="52" y="0" width="756" height="787.273"/></clipPath><clipPath class="axesclip" id="clipce9b3dy"><rect x="0" y="50" width="928.182" height="695"/></clipPath><clipPath class="axesclip" id="clipce9b3dxy"><rect x="52" y="50" width="756" height="695"/></clipPath></g><g class="gradients"/><g class="patterns"/></defs><g class="bglayer"/><g class="layer-below"><g class="imagelayer"/><g class="shapelayer"/></g><g class="cartesianlayer"><g class="subplot xy"><g class="layer-subplot"><g class="shapelayer"/><g class="imagelayer"/></g><g class="gridlayer"><g class="x"/><g class="y"><path class="ygrid crisp" transform="translate(0,742.55)" d="M52,0h756" style="stroke: rgb(238, 238, 238); stroke-opacity: 1; stroke-width: 1px;"/><path class="ygrid crisp" transform="translate(0,560.27)" d="M52,0h756" style="stroke: rgb(238, 238, 238); stroke-opacity: 1; stroke-width: 1px;"/><path class="ygrid crisp" transform="translate(0,469.13)" d="M52,0h756" style="stroke: rgb(238, 238, 238); stroke-opacity: 1; stroke-width: 1px;"/><path class="ygrid crisp" transform="translate(0,377.99)" d="M52,0h756" style="stroke: rgb(238, 238, 238); stroke-opacity: 1; stroke-width: 1px;"/><path class="ygrid crisp" transform="translate(0,286.84000000000003)" d="M52,0h756" style="stroke: rgb(238, 238, 238); stroke-opacity: 1; stroke-width: 1px;"/><path class="ygrid crisp" transform="translate(0,195.7)" d="M52,0h756" style="stroke: rgb(238, 238, 238); stroke-opacity: 1; stroke-width: 1px;"/><path class="ygrid crisp" transform="translate(0,104.56)" d="M52,0h756" style="stroke: rgb(238, 238, 238); stroke-opacity: 1; stroke-width: 1px;"/></g></g><g class="zerolinelayer"><path class="yzl zl crisp" transform="translate(0,651.41)" d="M52,0h756" style="stroke: rgb(68, 68, 68); stroke-opacity: 1; stroke-width: 1px;"/></g><path class="xlines-below"/><path class="ylines-below"/><g class="overlines-below"/><g class="xaxislayer-below"/><g class="yaxislayer-below"/><g class="overaxes-below"/><g class="plot" transform="translate(52,50)" clip-path="url(#clipce9b3dxyplot)"><g class="violinlayer mlayer"><g class="trace violins" style="opacity: 1;"><path class="violin" d="M29.08,660.11L29.46,660.11Q29.66,653.64 29.79,650.4C29.92,647.16 30.08,643.92 30.25,640.68C30.42,637.44 30.62,634.21 30.8,630.97C30.99,627.73 31.2,624.5 31.36,621.26C31.52,618.02 31.68,614.78 31.78,611.54C31.88,608.3 31.95,605.07 31.96,601.83C31.97,598.59 31.92,595.35 31.84,592.11C31.76,588.87 31.62,585.64 31.48,582.4C31.34,579.16 31.15,575.93 30.99,572.69C30.83,569.45 30.65,566.21 30.51,562.97C30.37,559.73 30.24,556.5 30.14,553.26C30.04,550.02 29.96,546.79 29.91,543.55C29.86,540.31 29.83,537.07 29.82,533.83C29.81,530.59 29.82,527.36 29.84,524.12C29.86,520.88 29.9,517.64 29.94,514.4C29.98,511.16 30.03,507.93 30.09,504.69C30.15,501.45 30.21,498.22 30.28,494.98C30.35,491.74 30.43,488.5 30.53,485.26C30.62,482.02 30.72,478.79 30.85,475.55C30.98,472.31 31.12,469.08 31.29,465.84C31.46,462.6 31.66,459.36 31.89,456.12C32.12,452.88 32.38,449.65 32.67,446.41C32.96,443.17 33.29,439.94 33.63,436.7C33.97,433.46 34.35,430.22 34.73,426.98C35.11,423.74 35.51,420.51 35.91,417.27C36.31,414.03 36.73,410.79 37.14,407.55C37.55,404.31 37.97,401.08 38.38,397.84C38.8,394.6 39.21,391.37 39.63,388.13C40.05,384.89 40.46,381.65 40.9,378.41C41.34,375.17 41.78,371.93 42.26,368.7C42.74,365.46 43.23,362.22 43.76,358.99C44.3,355.75 44.87,352.51 45.47,349.27C46.07,346.03 46.72,342.8 47.35,339.56C47.98,336.32 48.66,333.09 49.24,329.85C49.82,326.62 50.41,323.38 50.84,320.13C51.27,316.9 51.64,313.66 51.83,310.42C52.02,307.18 52.08,303.94 52.01,300.7C51.94,297.46 51.69,294.22 51.38,290.99C51.07,287.75 50.6,284.51 50.13,281.28C49.65,278.04 49.08,274.8 48.53,271.56C47.98,268.32 47.39,265.09 46.82,261.85C46.25,258.61 45.68,255.38 45.12,252.14C44.56,248.9 44,245.66 43.45,242.42C42.9,239.18 42.35,235.95 41.82,232.71C41.28,229.47 40.74,226.23 40.24,222.99C39.74,219.75 39.25,216.52 38.81,213.28C38.38,210.05 37.97,206.81 37.63,203.57C37.3,200.33 37.02,197.09 36.8,193.85C36.59,190.61 36.45,187.38 36.34,184.14C36.23,180.9 36.2,177.67 36.16,174.43C36.12,171.19 36.13,167.95 36.09,164.71C36.05,161.47 36.01,158.24 35.9,155C35.79,151.76 35.65,148.53 35.43,145.29C35.21,142.05 34.91,138.81 34.59,135.57C34.27,132.33 33.87,129.1 33.49,125.86C33.11,122.62 32.67,119.38 32.29,116.14C31.91,112.9 31.52,109.67 31.2,106.43C30.88,103.2 30.59,99.96 30.35,96.72Q30.11,93.48 29.76,87L29.08,87" style="vector-effect: non-scaling-stroke; stroke-width: 2px; stroke: rgb(31, 119, 180); stroke-opacity: 1; fill: rgb(31, 119, 180); fill-opacity: 0.5;"/><path class="violin" d="M145.38,614.15L145.58,614.15Q145.67,606.52 145.74,602.7C145.81,598.88 145.89,595.07 145.98,591.25C146.07,587.43 146.18,583.62 146.29,579.8C146.4,575.98 146.53,572.17 146.65,568.35C146.77,564.53 146.9,560.72 147.02,556.9C147.14,553.08 147.26,549.27 147.38,545.45C147.5,541.63 147.62,537.82 147.76,534C147.9,530.18 148.03,526.37 148.2,522.55C148.37,518.73 148.56,514.92 148.78,511.1C149,507.28 149.25,503.47 149.52,499.65C149.79,495.83 150.1,492.02 150.4,488.2C150.7,484.38 151.03,480.57 151.32,476.75C151.61,472.93 151.91,469.12 152.16,465.3C152.41,461.48 152.63,457.67 152.82,453.85C153.01,450.03 153.15,446.22 153.28,442.4C153.41,438.58 153.49,434.77 153.62,430.95C153.75,427.13 153.86,423.32 154.05,419.5C154.24,415.68 154.46,411.86 154.78,408.05C155.1,404.23 155.49,400.41 155.97,396.6C156.45,392.78 157.03,388.96 157.65,385.15C158.27,381.33 158.99,377.51 159.69,373.7C160.39,369.88 161.17,366.07 161.87,362.25C162.57,358.44 163.29,354.62 163.9,350.8C164.51,346.99 165.07,343.17 165.52,339.35C165.97,335.54 166.34,331.72 166.58,327.9C166.82,324.09 166.96,320.27 166.97,316.45C166.98,312.63 166.89,308.81 166.67,305C166.45,301.18 166.09,297.36 165.64,293.55C165.19,289.73 164.6,285.91 163.96,282.1C163.31,278.28 162.54,274.46 161.77,270.65C161,266.83 160.14,263.02 159.35,259.2C158.56,255.38 157.73,251.57 157.01,247.75C156.29,243.94 155.6,240.12 155.02,236.3C154.44,232.49 153.95,228.67 153.54,224.85C153.13,221.04 152.82,217.22 152.57,213.4C152.32,209.59 152.16,205.77 152.02,201.95C151.88,198.13 151.82,194.32 151.75,190.5C151.68,186.68 151.65,182.87 151.58,179.05C151.51,175.23 151.45,171.42 151.35,167.6C151.25,163.78 151.13,159.97 150.96,156.15C150.79,152.33 150.57,148.52 150.32,144.7C150.07,140.88 149.78,137.07 149.48,133.25C149.18,129.43 148.84,125.62 148.52,121.8C148.21,117.98 147.88,114.17 147.59,110.35C147.3,106.53 147.03,102.72 146.8,98.9C146.57,95.08 146.37,91.27 146.21,87.45Q146.05,83.63 145.82,76L145.38,76" style="vector-effect: non-scaling-stroke; stroke-width: 2px; stroke: rgb(31, 119, 180); stroke-opacity: 1; fill: rgb(31, 119, 180); fill-opacity: 0.5;"/><path class="violin" d="M261.69,644.89L262.08,644.89Q262.28,640.07 262.41,637.66C262.54,635.25 262.71,632.83 262.88,630.42C263.05,628.01 263.25,625.59 263.44,623.18C263.63,620.77 263.84,618.36 264.01,615.95C264.17,613.54 264.33,611.12 264.43,608.71C264.53,606.3 264.59,603.89 264.59,601.48C264.59,599.07 264.53,596.65 264.43,594.24C264.34,591.83 264.18,589.42 264.02,587.01C263.86,584.6 263.65,582.18 263.46,579.77C263.27,577.36 263.06,574.95 262.89,572.54C262.72,570.13 262.55,567.71 262.42,565.3C262.29,562.89 262.18,560.47 262.09,558.06C262,555.65 261.95,553.24 261.9,550.83C261.85,548.42 261.83,546 261.81,543.59C261.79,541.18 261.78,538.77 261.78,536.36C261.78,533.95 261.79,531.53 261.81,529.12C261.83,526.71 261.85,524.3 261.88,521.89C261.91,519.48 261.94,517.06 261.97,514.65C262,512.24 262.03,509.83 262.07,507.42C262.11,505.01 262.15,502.59 262.2,500.18C262.25,497.77 262.29,495.35 262.35,492.94C262.41,490.53 262.47,488.12 262.56,485.71C262.65,483.3 262.76,480.88 262.91,478.47C263.06,476.06 263.22,473.65 263.44,471.24C263.66,468.83 263.91,466.41 264.21,464C264.51,461.59 264.86,459.18 265.23,456.77C265.61,454.35 266.02,451.94 266.46,449.53C266.9,447.11 267.37,444.7 267.85,442.29C268.33,439.88 268.83,437.47 269.34,435.06C269.85,432.65 270.37,430.23 270.9,427.82C271.44,425.41 271.98,423 272.55,420.59C273.13,418.17 273.72,415.76 274.35,413.35C274.98,410.94 275.64,408.53 276.33,406.12C277.02,403.7 277.76,401.29 278.49,398.88C279.22,396.47 280,394.06 280.73,391.65C281.45,389.24 282.19,386.83 282.84,384.41C283.49,382 284.11,379.59 284.62,377.17C285.13,374.77 285.56,372.36 285.91,369.94C286.25,367.53 286.5,365.12 286.69,362.7C286.88,360.29 286.96,357.88 287.03,355.47C287.1,353.06 287.1,350.64 287.09,348.23C287.08,345.82 287.04,343.41 286.99,341C286.94,338.59 286.88,336.17 286.81,333.76C286.74,331.35 286.67,328.94 286.57,326.53C286.47,324.12 286.37,321.7 286.21,319.29C286.05,316.88 285.88,314.46 285.63,312.05C285.38,309.64 285.08,307.23 284.7,304.82C284.32,302.4 283.87,299.99 283.35,297.58C282.83,295.16 282.22,292.75 281.58,290.35C280.94,287.93 280.21,285.52 279.49,283.11C278.77,280.7 277.98,278.29 277.24,275.88C276.49,273.47 275.73,271.06 275.02,268.64C274.31,266.23 273.61,263.82 272.97,261.4C272.33,258.99 271.74,256.59 271.19,254.17C270.64,251.76 270.14,249.35 269.67,246.93C269.21,244.52 268.79,242.11 268.4,239.7C268.01,237.29 267.66,234.87 267.34,232.46C267.02,230.05 266.72,227.64 266.46,225.23C266.2,222.82 265.98,220.4 265.79,217.99C265.6,215.58 265.44,213.17 265.33,210.76C265.22,208.35 265.15,205.93 265.11,203.52C265.07,201.11 265.08,198.69 265.11,196.28C265.14,193.87 265.21,191.46 265.28,189.05C265.35,186.64 265.45,184.22 265.55,181.81C265.64,179.4 265.76,176.99 265.85,174.58C265.94,172.17 266.04,169.75 266.11,167.34C266.18,164.93 266.24,162.52 266.26,160.11C266.28,157.7 266.28,155.28 266.22,152.87C266.16,150.46 266.07,148.05 265.93,145.64C265.79,143.23 265.58,140.81 265.37,138.4C265.15,135.99 264.9,133.57 264.64,131.16C264.39,128.75 264.09,126.34 263.84,123.93C263.59,121.52 263.34,119.1 263.12,116.69C262.9,114.28 262.7,111.87 262.54,109.46Q262.38,107.05 262.15,102.22L261.69,102.22" style="vector-effect: non-scaling-stroke; stroke-width: 2px; stroke: rgb(31, 119, 180); stroke-opacity: 1; fill: rgb(31, 119, 180); fill-opacity: 0.5;"/><path class="violin" d="M378,658.24L378.18,658.24Q378.27,652.01 378.33,648.9C378.39,645.79 378.46,642.68 378.54,639.57C378.62,636.46 378.71,633.35 378.79,630.24C378.88,627.13 378.97,624.01 379.05,620.9C379.12,617.79 379.2,614.68 379.24,611.57C379.29,608.46 379.32,605.34 379.32,602.23C379.32,599.12 379.31,596.01 379.27,592.9C379.23,589.79 379.16,586.68 379.09,583.57C379.02,580.46 378.92,577.34 378.84,574.23C378.76,571.12 378.67,568.01 378.6,564.9C378.53,561.79 378.45,558.68 378.4,555.57C378.35,552.46 378.31,549.34 378.29,546.23C378.27,543.12 378.27,540.01 378.28,536.9C378.29,533.79 378.33,530.67 378.38,527.56C378.43,524.45 378.51,521.34 378.6,518.23C378.69,515.12 378.8,512.01 378.93,508.9C379.06,505.79 379.21,502.67 379.37,499.56C379.53,496.45 379.71,493.34 379.91,490.23C380.11,487.12 380.33,484.01 380.56,480.9C380.79,477.79 381.04,474.67 381.31,471.56C381.58,468.45 381.88,465.34 382.2,462.23C382.52,459.12 382.86,456 383.23,452.89C383.6,449.78 383.99,446.67 384.4,443.56C384.81,440.45 385.24,437.34 385.67,434.23C386.1,431.12 386.55,428 386.99,424.89C387.42,421.78 387.86,418.67 388.28,415.56C388.7,412.45 389.11,409.33 389.52,406.22C389.92,403.11 390.31,400 390.71,396.89C391.11,393.78 391.5,390.67 391.9,387.56C392.31,384.45 392.71,381.33 393.14,378.22C393.57,375.11 394.01,372 394.49,368.89C394.97,365.78 395.47,362.67 396,359.56C396.53,356.45 397.09,353.33 397.66,350.22C398.23,347.11 398.83,344 399.4,340.89C399.97,337.78 400.56,334.67 401.06,331.55C401.56,328.44 402.05,325.34 402.4,322.22C402.75,319.12 403.04,316 403.16,312.89C403.28,309.78 403.29,306.66 403.15,303.55C403.01,300.44 402.72,297.32 402.32,294.22C401.92,291.1 401.36,287.99 400.76,284.89C400.15,281.77 399.42,278.66 398.68,275.55C397.94,272.43 397.12,269.33 396.33,266.22C395.54,263.11 394.72,259.99 393.93,256.88C393.15,253.77 392.37,250.66 391.62,247.55C390.87,244.44 390.14,241.33 389.44,238.22C388.74,235.11 388.06,232 387.41,228.88C386.76,225.77 386.13,222.66 385.55,219.55C384.97,216.44 384.4,213.34 383.91,210.22C383.42,207.11 382.97,204 382.6,200.88C382.24,197.77 381.94,194.66 381.72,191.55C381.5,188.44 381.37,185.32 381.29,182.21C381.21,179.1 381.23,175.99 381.26,172.88C381.29,169.77 381.39,166.66 381.46,163.55C381.53,160.44 381.63,157.32 381.66,154.21C381.69,151.1 381.71,147.99 381.66,144.88C381.61,141.77 381.5,138.65 381.36,135.54C381.22,132.43 381.02,129.32 380.81,126.21C380.6,123.1 380.35,119.99 380.12,116.88C379.89,113.77 379.64,110.65 379.43,107.54C379.22,104.43 379.03,101.32 378.87,98.21Q378.71,95.1 378.48,88.88L378,88.88" style="vector-effect: non-scaling-stroke; stroke-width: 2px; stroke: rgb(31, 119, 180); stroke-opacity: 1; fill: rgb(31, 119, 180); fill-opacity: 0.5;"/><path class="violin" d="M494.31,482.84L494.83,482.84Q495.11,474.02 495.33,469.61C495.55,465.2 495.81,460.79 496.14,456.39C496.47,451.98 496.87,447.57 497.32,443.17C497.77,438.76 498.3,434.35 498.86,429.94C499.42,425.53 500.04,421.13 500.68,416.72C501.32,412.31 502,407.9 502.68,403.49C503.35,399.08 504.05,394.68 504.73,390.27C505.41,385.86 506.1,381.45 506.77,377.04C507.44,372.63 508.1,368.23 508.74,363.82C509.38,359.41 510.02,355 510.6,350.59C511.18,346.18 511.75,341.78 512.24,337.37C512.73,332.96 513.18,328.55 513.54,324.14C513.89,319.74 514.18,315.33 514.37,310.92C514.56,306.52 514.66,302.11 514.7,297.7C514.74,293.29 514.67,288.88 514.58,284.47C514.49,280.06 514.32,275.66 514.14,271.25C513.96,266.84 513.73,262.43 513.48,258.02C513.23,253.61 512.97,249.21 512.66,244.8C512.35,240.39 512,235.98 511.61,231.57C511.21,227.16 510.78,222.75 510.29,218.35C509.8,213.94 509.25,209.53 508.68,205.12C508.11,200.71 507.49,196.31 506.87,191.9C506.25,187.49 505.61,183.08 504.98,178.67C504.35,174.26 503.72,169.86 503.11,165.45C502.5,161.04 501.91,156.63 501.34,152.22C500.77,147.81 500.22,143.41 499.7,139C499.18,134.59 498.68,130.19 498.23,125.78C497.78,121.37 497.35,116.96 496.98,112.55C496.61,108.14 496.27,103.74 495.99,99.33C495.71,94.92 495.48,90.51 495.28,86.1Q495.09,81.69 494.82,72.88L494.31,72.88" style="vector-effect: non-scaling-stroke; stroke-width: 2px; stroke: rgb(31, 119, 180); stroke-opacity: 1; fill: rgb(31, 119, 180); fill-opacity: 0.5;"/><path class="violin" d="M610.62,653.89L611.46,653.89Q611.89,648.13 612.17,645.26C612.45,642.38 612.79,639.5 613.16,636.63C613.53,633.75 613.97,630.88 614.37,628.01C614.77,625.13 615.21,622.26 615.57,619.38C615.92,616.51 616.28,613.64 616.5,610.76C616.72,607.89 616.87,605.01 616.89,602.13C616.91,599.26 616.81,596.38 616.63,593.51C616.45,590.63 616.13,587.75 615.8,584.88C615.47,582 615.05,579.13 614.67,576.26C614.29,573.38 613.87,570.51 613.53,567.63C613.19,564.76 612.86,561.88 612.61,559C612.36,556.13 612.16,553.26 612.02,550.38C611.88,547.51 611.8,544.63 611.76,541.75C611.72,538.88 611.73,536 611.76,533.13C611.79,530.25 611.86,527.38 611.94,524.5C612.02,521.63 612.12,518.75 612.23,515.88C612.34,513 612.47,510.13 612.6,507.25C612.73,504.38 612.88,501.5 613.03,498.63C613.18,495.75 613.33,492.88 613.48,490C613.63,487.13 613.78,484.25 613.93,481.38C614.08,478.5 614.23,475.63 614.38,472.75C614.54,469.87 614.68,467 614.86,464.12C615.04,461.25 615.21,458.37 615.46,455.5C615.71,452.62 615.98,449.74 616.34,446.87C616.71,443.99 617.11,441.12 617.65,438.25C618.19,435.36 618.82,432.48 619.57,429.62C620.32,426.73 621.2,423.86 622.16,421C623.13,418.11 624.24,415.23 625.38,412.37C626.52,409.48 627.79,406.62 629,403.75C630.21,400.87 631.5,398.01 632.65,395.12C633.79,392.26 634.94,389.39 635.86,386.49C636.76,383.64 637.59,380.76 638.13,377.87C638.67,375.01 639.02,372.12 639.11,369.24C639.2,366.37 639.03,363.48 638.68,360.62C638.33,357.73 637.7,354.85 637.01,351.99C636.31,349.1 635.4,346.24 634.52,343.37C633.64,340.49 632.63,337.62 631.72,334.74C630.82,331.87 629.89,329 629.09,326.12C628.29,323.25 627.56,320.37 626.91,317.49C626.26,314.62 625.72,311.75 625.2,308.87C624.68,306 624.25,303.12 623.79,300.24C623.33,297.36 622.9,294.48 622.44,291.61C621.97,288.73 621.5,285.86 621,282.99C620.5,280.11 619.96,277.24 619.43,274.36C618.9,271.49 618.34,268.62 617.82,265.74C617.3,262.87 616.77,259.99 616.3,257.11C615.83,254.24 615.39,251.37 615,248.49C614.61,245.62 614.27,242.74 613.98,239.86C613.69,236.99 613.46,234.12 613.27,231.24C613.08,228.37 612.94,225.49 612.83,222.61C612.72,219.73 612.66,216.86 612.63,213.98C612.6,211.11 612.61,208.23 612.65,205.36C612.69,202.48 612.77,199.61 612.89,196.73C613.01,193.86 613.17,190.98 613.36,188.11C613.56,185.23 613.8,182.35 614.06,179.48C614.32,176.6 614.64,173.73 614.92,170.86C615.21,167.98 615.53,165.11 615.77,162.23C616.01,159.36 616.23,156.49 616.35,153.61C616.47,150.74 616.52,147.86 616.47,144.98C616.42,142.11 616.26,139.23 616.04,136.36C615.82,133.48 615.49,130.6 615.16,127.73C614.83,124.85 614.41,121.98 614.04,119.1C613.67,116.23 613.27,113.36 612.93,110.48C612.6,107.61 612.29,104.73 612.03,101.85Q611.77,98.98 611.39,93.23L610.62,93.23" style="vector-effect: non-scaling-stroke; stroke-width: 2px; stroke: rgb(31, 119, 180); stroke-opacity: 1; fill: rgb(31, 119, 180); fill-opacity: 0.5;"/><path class="violin" d="M726.92,656.4L727.51,656.4Q727.8,650.32 728,647.28C728.2,644.24 728.44,641.19 728.69,638.15C728.95,635.11 729.25,632.07 729.53,629.03C729.81,625.99 730.12,622.94 730.37,619.9C730.62,616.86 730.86,613.82 731.01,610.78C731.16,607.74 731.26,604.7 731.28,601.66C731.3,598.62 731.23,595.57 731.11,592.53C730.99,589.49 730.78,586.45 730.58,583.41C730.38,580.37 730.12,577.32 729.89,574.28C729.66,571.24 729.42,568.2 729.22,565.16C729.02,562.12 728.85,559.08 728.71,556.04C728.57,553 728.47,549.95 728.39,546.91C728.31,543.87 728.25,540.83 728.21,537.79C728.16,534.75 728.14,531.7 728.12,528.66C728.1,525.62 728.08,522.58 728.08,519.54C728.08,516.5 728.09,513.46 728.12,510.42C728.15,507.38 728.2,504.33 728.28,501.29C728.36,498.25 728.47,495.21 728.62,492.17C728.77,489.13 728.95,486.08 729.17,483.04C729.39,480 729.64,476.96 729.92,473.92C730.2,470.88 730.51,467.84 730.83,464.8C731.15,461.76 731.49,458.71 731.84,455.67C732.19,452.63 732.56,449.59 732.95,446.55C733.34,443.51 733.74,440.46 734.18,437.42C734.62,434.38 735.08,431.34 735.61,428.3C736.14,425.26 736.71,422.21 737.35,419.18C737.99,416.13 738.7,413.09 739.45,410.05C740.2,407 741.03,403.97 741.83,400.93C742.64,397.89 743.5,394.85 744.28,391.8C745.05,388.76 745.83,385.73 746.48,382.68C747.12,379.65 747.71,376.61 748.16,373.56C748.61,370.53 748.94,367.48 749.17,364.43C749.4,361.39 749.49,358.35 749.53,355.31C749.57,352.27 749.5,349.22 749.41,346.18C749.32,343.14 749.16,340.1 748.97,337.06C748.78,334.02 748.56,330.98 748.29,327.94C748.02,324.9 747.72,321.85 747.37,318.81C747.02,315.77 746.62,312.73 746.18,309.69C745.74,306.64 745.24,303.6 744.73,300.56C744.22,297.52 743.65,294.48 743.1,291.44C742.54,288.4 741.96,285.36 741.4,282.32C740.84,279.28 740.27,276.23 739.73,273.19C739.19,270.15 738.67,267.11 738.17,264.07C737.67,261.03 737.19,257.98 736.74,254.94C736.29,251.9 735.88,248.86 735.48,245.82C735.08,242.78 734.71,239.74 734.36,236.7C734.01,233.66 733.7,230.61 733.4,227.57C733.1,224.53 732.82,221.49 732.57,218.45C732.32,215.41 732.08,212.36 731.88,209.32C731.68,206.28 731.5,203.24 731.37,200.2C731.24,197.16 731.14,194.12 731.1,191.08C731.06,188.04 731.07,184.99 731.12,181.95C731.17,178.91 731.27,175.87 731.38,172.83C731.49,169.79 731.65,166.74 731.76,163.7C731.87,160.66 732.01,157.62 732.05,154.58C732.09,151.54 732.1,148.5 732.03,145.46C731.96,142.42 731.8,139.37 731.6,136.33C731.4,133.29 731.11,130.25 730.82,127.21C730.53,124.17 730.17,121.12 729.85,118.08C729.53,115.04 729.19,112 728.9,108.96C728.61,105.92 728.34,102.88 728.12,99.84Q727.9,96.8 727.57,90.71L726.92,90.71" style="vector-effect: non-scaling-stroke; stroke-width: 2px; stroke: rgb(31, 119, 180); stroke-opacity: 1; fill: rgb(31, 119, 180); fill-opacity: 0.5;"/><path class="box" d="M31.08,302.92H38.2M31.08,358.29H38.2V249.15H31.08ZM31.08,358.29V494.32M31.08,249.15V145.7" style="vector-effect: non-scaling-stroke; stroke-width: 2px; stroke: rgb(31, 119, 180); stroke-opacity: 1; fill: rgb(31, 119, 180); fill-opacity: 0.5;"/><path class="box" d="M147.38,320.47H154.51M147.38,367.18H154.51V276.26H147.38ZM147.38,367.18V490.67M147.38,276.26V145.7" style="vector-effect: non-scaling-stroke; stroke-width: 2px; stroke: rgb(31, 119, 180); stroke-opacity: 1; fill: rgb(31, 119, 180); fill-opacity: 0.5;"/><path class="box" d="M263.69,338.01H270.82M263.69,373.56H270.82V293.81H263.69ZM263.69,373.56V449.66M263.69,293.81V176.24" style="vector-effect: non-scaling-stroke; stroke-width: 2px; stroke: rgb(31, 119, 180); stroke-opacity: 1; fill: rgb(31, 119, 180); fill-opacity: 0.5;"/><path class="box" d="M380,316.59H387.12M380,373.56H387.12V276.04H380ZM380,373.56V487.48M380,276.04V145.7" style="vector-effect: non-scaling-stroke; stroke-width: 2px; stroke: rgb(31, 119, 180); stroke-opacity: 1; fill: rgb(31, 119, 180); fill-opacity: 0.5;"/><path class="box" d="M496.31,288.11H503.43M496.31,338.92H503.43V221.81H496.31ZM496.31,338.92V401.81M496.31,221.81V153.91" style="vector-effect: non-scaling-stroke; stroke-width: 2px; stroke: rgb(31, 119, 180); stroke-opacity: 1; fill: rgb(31, 119, 180); fill-opacity: 0.5;"/><path class="box" d="M612.62,363.53H619.74M612.62,392.47H619.74V305.54H612.62ZM612.62,392.47V494.32M612.62,305.54V192.64" style="vector-effect: non-scaling-stroke; stroke-width: 2px; stroke: rgb(31, 119, 180); stroke-opacity: 1; fill: rgb(31, 119, 180); fill-opacity: 0.5;"/><path class="box" d="M728.92,339.83H736.05M728.92,382.56H736.05V289.14H728.92ZM728.92,382.56V471.08M728.92,289.14V191.27" style="vector-effect: non-scaling-stroke; stroke-width: 2px; stroke: rgb(31, 119, 180); stroke-opacity: 1; fill: rgb(31, 119, 180); fill-opacity: 0.5;"/><path class="mean" d="M31.08,309.9H38.2" style="fill: none; vector-effect: non-scaling-stroke; stroke-width: 1px; stroke-dasharray: 2px, 1px; stroke: rgb(255, 0, 0); stroke-opacity: 1;"/><path class="mean" d="M147.38,323.99H154.51" style="fill: none; vector-effect: non-scaling-stroke; stroke-width: 1px; stroke-dasharray: 2px, 1px; stroke: rgb(255, 0, 0); stroke-opacity: 1;"/><path class="mean" d="M263.69,335.58H270.82" style="fill: none; vector-effect: non-scaling-stroke; stroke-width: 1px; stroke-dasharray: 2px, 1px; stroke: rgb(255, 0, 0); stroke-opacity: 1;"/><path class="mean" d="M380,322.4H387.12" style="fill: none; vector-effect: non-scaling-stroke; stroke-width: 1px; stroke-dasharray: 2px, 1px; stroke: rgb(255, 0, 0); stroke-opacity: 1;"/><path class="mean" d="M496.31,282.13H503.43" style="fill: none; vector-effect: non-scaling-stroke; stroke-width: 1px; stroke-dasharray: 2px, 1px; stroke: rgb(255, 0, 0); stroke-opacity: 1;"/><path class="mean" d="M612.62,362.81H619.74" style="fill: none; vector-effect: non-scaling-stroke; stroke-width: 1px; stroke-dasharray: 2px, 1px; stroke: rgb(255, 0, 0); stroke-opacity: 1;"/><path class="mean" d="M728.92,343.26H736.05" style="fill: none; vector-effect: non-scaling-stroke; stroke-width: 1px; stroke-dasharray: 2px, 1px; stroke: rgb(255, 0, 0); stroke-opacity: 1;"/><g class="points"><path class="point" transform="translate(29.08,601.41)" d="M3,0A3,3 0 1,1 0,-3A3,3 0 0,1 3,0Z" style="opacity: 1; stroke-width: 0px; fill: rgb(31, 119, 180); fill-opacity: 1;"/><path class="point" transform="translate(29.08,601.41)" d="M3,0A3,3 0 1,1 0,-3A3,3 0 0,1 3,0Z" style="opacity: 1; stroke-width: 0px; fill: rgb(31, 119, 180); fill-opacity: 1;"/><path class="point" transform="translate(29.08,601.41)" d="M3,0A3,3 0 1,1 0,-3A3,3 0 0,1 3,0Z" style="opacity: 1; stroke-width: 0px; fill: rgb(31, 119, 180); fill-opacity: 1;"/><path class="point" transform="translate(29.08,601.41)" d="M3,0A3,3 0 1,1 0,-3A3,3 0 0,1 3,0Z" style="opacity: 1; stroke-width: 0px; fill: rgb(31, 119, 180); fill-opacity: 1;"/><path class="point" transform="translate(29.08,601.41)" d="M3,0A3,3 0 1,1 0,-3A3,3 0 0,1 3,0Z" style="opacity: 1; stroke-width: 0px; fill: rgb(31, 119, 180); fill-opacity: 1;"/><path class="point" transform="translate(29.08,601.41)" d="M3,0A3,3 0 1,1 0,-3A3,3 0 0,1 3,0Z" style="opacity: 1; stroke-width: 0px; fill: rgb(31, 119, 180); fill-opacity: 1;"/><path class="point" transform="translate(29.08,601.41)" d="M3,0A3,3 0 1,1 0,-3A3,3 0 0,1 3,0Z" style="opacity: 1; stroke-width: 0px; fill: rgb(31, 119, 180); fill-opacity: 1;"/><path class="point" transform="translate(29.08,601.41)" d="M3,0A3,3 0 1,1 0,-3A3,3 0 0,1 3,0Z" style="opacity: 1; stroke-width: 0px; fill: rgb(31, 119, 180); fill-opacity: 1;"/><path class="point" transform="translate(29.08,601.41)" d="M3,0A3,3 0 1,1 0,-3A3,3 0 0,1 3,0Z" style="opacity: 1; stroke-width: 0px; fill: rgb(31, 119, 180); fill-opacity: 1;"/><path class="point" transform="translate(29.08,601.41)" d="M3,0A3,3 0 1,1 0,-3A3,3 0 0,1 3,0Z" style="opacity: 1; stroke-width: 0px; fill: rgb(31, 119, 180); fill-opacity: 1;"/><path class="point" transform="translate(29.08,536.24)" d="M3,0A3,3 0 1,1 0,-3A3,3 0 0,1 3,0Z" style="opacity: 1; stroke-width: 0px; fill: rgb(31, 119, 180); fill-opacity: 1;"/></g><g class="points"><path class="point" transform="translate(145.38,544.45)" d="M3,0A3,3 0 1,1 0,-3A3,3 0 0,1 3,0Z" style="opacity: 1; stroke-width: 0px; fill: rgb(31, 119, 180); fill-opacity: 1;"/></g><g class="points"><path class="point" transform="translate(261.69,601.41)" d="M3,0A3,3 0 1,1 0,-3A3,3 0 0,1 3,0Z" style="opacity: 1; stroke-width: 0px; fill: rgb(31, 119, 180); fill-opacity: 1;"/><path class="point" transform="translate(261.69,601.41)" d="M3,0A3,3 0 1,1 0,-3A3,3 0 0,1 3,0Z" style="opacity: 1; stroke-width: 0px; fill: rgb(31, 119, 180); fill-opacity: 1;"/><path class="point" transform="translate(261.69,601.41)" d="M3,0A3,3 0 1,1 0,-3A3,3 0 0,1 3,0Z" style="opacity: 1; stroke-width: 0px; fill: rgb(31, 119, 180); fill-opacity: 1;"/><path class="point" transform="translate(261.69,601.41)" d="M3,0A3,3 0 1,1 0,-3A3,3 0 0,1 3,0Z" style="opacity: 1; stroke-width: 0px; fill: rgb(31, 119, 180); fill-opacity: 1;"/><path class="point" transform="translate(261.69,601.41)" d="M3,0A3,3 0 1,1 0,-3A3,3 0 0,1 3,0Z" style="opacity: 1; stroke-width: 0px; fill: rgb(31, 119, 180); fill-opacity: 1;"/><path class="point" transform="translate(261.69,601.41)" d="M3,0A3,3 0 1,1 0,-3A3,3 0 0,1 3,0Z" style="opacity: 1; stroke-width: 0px; fill: rgb(31, 119, 180); fill-opacity: 1;"/><path class="point" transform="translate(261.69,601.41)" d="M3,0A3,3 0 1,1 0,-3A3,3 0 0,1 3,0Z" style="opacity: 1; stroke-width: 0px; fill: rgb(31, 119, 180); fill-opacity: 1;"/><path class="point" transform="translate(261.69,493.41)" d="M3,0A3,3 0 1,1 0,-3A3,3 0 0,1 3,0Z" style="opacity: 1; stroke-width: 0px; fill: rgb(31, 119, 180); fill-opacity: 1;"/><path class="point" transform="translate(261.69,173.5)" d="M3,0A3,3 0 1,1 0,-3A3,3 0 0,1 3,0Z" style="opacity: 1; stroke-width: 0px; fill: rgb(31, 119, 180); fill-opacity: 1;"/><path class="point" transform="translate(261.69,171.22)" d="M3,0A3,3 0 1,1 0,-3A3,3 0 0,1 3,0Z" style="opacity: 1; stroke-width: 0px; fill: rgb(31, 119, 180); fill-opacity: 1;"/><path class="point" transform="translate(261.69,170.31)" d="M3,0A3,3 0 1,1 0,-3A3,3 0 0,1 3,0Z" style="opacity: 1; stroke-width: 0px; fill: rgb(31, 119, 180); fill-opacity: 1;"/><path class="point" transform="translate(261.69,145.7)" d="M3,0A3,3 0 1,1 0,-3A3,3 0 0,1 3,0Z" style="opacity: 1; stroke-width: 0px; fill: rgb(31, 119, 180); fill-opacity: 1;"/><path class="point" transform="translate(261.69,145.7)" d="M3,0A3,3 0 1,1 0,-3A3,3 0 0,1 3,0Z" style="opacity: 1; stroke-width: 0px; fill: rgb(31, 119, 180); fill-opacity: 1;"/><path class="point" transform="translate(261.69,145.7)" d="M3,0A3,3 0 1,1 0,-3A3,3 0 0,1 3,0Z" style="opacity: 1; stroke-width: 0px; fill: rgb(31, 119, 180); fill-opacity: 1;"/><path class="point" transform="translate(261.69,145.7)" d="M3,0A3,3 0 1,1 0,-3A3,3 0 0,1 3,0Z" style="opacity: 1; stroke-width: 0px; fill: rgb(31, 119, 180); fill-opacity: 1;"/><path class="point" transform="translate(261.69,145.7)" d="M3,0A3,3 0 1,1 0,-3A3,3 0 0,1 3,0Z" style="opacity: 1; stroke-width: 0px; fill: rgb(31, 119, 180); fill-opacity: 1;"/><path class="point" transform="translate(261.69,145.7)" d="M3,0A3,3 0 1,1 0,-3A3,3 0 0,1 3,0Z" style="opacity: 1; stroke-width: 0px; fill: rgb(31, 119, 180); fill-opacity: 1;"/><path class="point" transform="translate(261.69,145.7)" d="M3,0A3,3 0 1,1 0,-3A3,3 0 0,1 3,0Z" style="opacity: 1; stroke-width: 0px; fill: rgb(31, 119, 180); fill-opacity: 1;"/><path class="point" transform="translate(261.69,145.7)" d="M3,0A3,3 0 1,1 0,-3A3,3 0 0,1 3,0Z" style="opacity: 1; stroke-width: 0px; fill: rgb(31, 119, 180); fill-opacity: 1;"/></g><g class="points"><path class="point" transform="translate(378,601.41)" d="M3,0A3,3 0 1,1 0,-3A3,3 0 0,1 3,0Z" style="opacity: 1; stroke-width: 0px; fill: rgb(31, 119, 180); fill-opacity: 1;"/><path class="point" transform="translate(378,601.41)" d="M3,0A3,3 0 1,1 0,-3A3,3 0 0,1 3,0Z" style="opacity: 1; stroke-width: 0px; fill: rgb(31, 119, 180); fill-opacity: 1;"/><path class="point" transform="translate(378,601.41)" d="M3,0A3,3 0 1,1 0,-3A3,3 0 0,1 3,0Z" style="opacity: 1; stroke-width: 0px; fill: rgb(31, 119, 180); fill-opacity: 1;"/></g><g class="points"/><g class="points"><path class="point" transform="translate(610.62,601.41)" d="M3,0A3,3 0 1,1 0,-3A3,3 0 0,1 3,0Z" style="opacity: 1; stroke-width: 0px; fill: rgb(31, 119, 180); fill-opacity: 1;"/><path class="point" transform="translate(610.62,601.41)" d="M3,0A3,3 0 1,1 0,-3A3,3 0 0,1 3,0Z" style="opacity: 1; stroke-width: 0px; fill: rgb(31, 119, 180); fill-opacity: 1;"/><path class="point" transform="translate(610.62,601.41)" d="M3,0A3,3 0 1,1 0,-3A3,3 0 0,1 3,0Z" style="opacity: 1; stroke-width: 0px; fill: rgb(31, 119, 180); fill-opacity: 1;"/><path class="point" transform="translate(610.62,601.41)" d="M3,0A3,3 0 1,1 0,-3A3,3 0 0,1 3,0Z" style="opacity: 1; stroke-width: 0px; fill: rgb(31, 119, 180); fill-opacity: 1;"/><path class="point" transform="translate(610.62,601.41)" d="M3,0A3,3 0 1,1 0,-3A3,3 0 0,1 3,0Z" style="opacity: 1; stroke-width: 0px; fill: rgb(31, 119, 180); fill-opacity: 1;"/><path class="point" transform="translate(610.62,601.41)" d="M3,0A3,3 0 1,1 0,-3A3,3 0 0,1 3,0Z" style="opacity: 1; stroke-width: 0px; fill: rgb(31, 119, 180); fill-opacity: 1;"/><path class="point" transform="translate(610.62,601.41)" d="M3,0A3,3 0 1,1 0,-3A3,3 0 0,1 3,0Z" style="opacity: 1; stroke-width: 0px; fill: rgb(31, 119, 180); fill-opacity: 1;"/><path class="point" transform="translate(610.62,601.41)" d="M3,0A3,3 0 1,1 0,-3A3,3 0 0,1 3,0Z" style="opacity: 1; stroke-width: 0px; fill: rgb(31, 119, 180); fill-opacity: 1;"/><path class="point" transform="translate(610.62,601.41)" d="M3,0A3,3 0 1,1 0,-3A3,3 0 0,1 3,0Z" style="opacity: 1; stroke-width: 0px; fill: rgb(31, 119, 180); fill-opacity: 1;"/><path class="point" transform="translate(610.62,601.41)" d="M3,0A3,3 0 1,1 0,-3A3,3 0 0,1 3,0Z" style="opacity: 1; stroke-width: 0px; fill: rgb(31, 119, 180); fill-opacity: 1;"/><path class="point" transform="translate(610.62,601.41)" d="M3,0A3,3 0 1,1 0,-3A3,3 0 0,1 3,0Z" style="opacity: 1; stroke-width: 0px; fill: rgb(31, 119, 180); fill-opacity: 1;"/><path class="point" transform="translate(610.62,525.31)" d="M3,0A3,3 0 1,1 0,-3A3,3 0 0,1 3,0Z" style="opacity: 1; stroke-width: 0px; fill: rgb(31, 119, 180); fill-opacity: 1;"/><path class="point" transform="translate(610.62,145.7)" d="M3,0A3,3 0 1,1 0,-3A3,3 0 0,1 3,0Z" style="opacity: 1; stroke-width: 0px; fill: rgb(31, 119, 180); fill-opacity: 1;"/><path class="point" transform="translate(610.62,145.7)" d="M3,0A3,3 0 1,1 0,-3A3,3 0 0,1 3,0Z" style="opacity: 1; stroke-width: 0px; fill: rgb(31, 119, 180); fill-opacity: 1;"/><path class="point" transform="translate(610.62,145.7)" d="M3,0A3,3 0 1,1 0,-3A3,3 0 0,1 3,0Z" style="opacity: 1; stroke-width: 0px; fill: rgb(31, 119, 180); fill-opacity: 1;"/><path class="point" transform="translate(610.62,145.7)" d="M3,0A3,3 0 1,1 0,-3A3,3 0 0,1 3,0Z" style="opacity: 1; stroke-width: 0px; fill: rgb(31, 119, 180); fill-opacity: 1;"/><path class="point" transform="translate(610.62,145.7)" d="M3,0A3,3 0 1,1 0,-3A3,3 0 0,1 3,0Z" style="opacity: 1; stroke-width: 0px; fill: rgb(31, 119, 180); fill-opacity: 1;"/><path class="point" transform="translate(610.62,145.7)" d="M3,0A3,3 0 1,1 0,-3A3,3 0 0,1 3,0Z" style="opacity: 1; stroke-width: 0px; fill: rgb(31, 119, 180); fill-opacity: 1;"/><path class="point" transform="translate(610.62,145.7)" d="M3,0A3,3 0 1,1 0,-3A3,3 0 0,1 3,0Z" style="opacity: 1; stroke-width: 0px; fill: rgb(31, 119, 180); fill-opacity: 1;"/><path class="point" transform="translate(610.62,145.7)" d="M3,0A3,3 0 1,1 0,-3A3,3 0 0,1 3,0Z" style="opacity: 1; stroke-width: 0px; fill: rgb(31, 119, 180); fill-opacity: 1;"/><path class="point" transform="translate(610.62,145.7)" d="M3,0A3,3 0 1,1 0,-3A3,3 0 0,1 3,0Z" style="opacity: 1; stroke-width: 0px; fill: rgb(31, 119, 180); fill-opacity: 1;"/><path class="point" transform="translate(610.62,145.7)" d="M3,0A3,3 0 1,1 0,-3A3,3 0 0,1 3,0Z" style="opacity: 1; stroke-width: 0px; fill: rgb(31, 119, 180); fill-opacity: 1;"/></g><g class="points"><path class="point" transform="translate(726.92,601.41)" d="M3,0A3,3 0 1,1 0,-3A3,3 0 0,1 3,0Z" style="opacity: 1; stroke-width: 0px; fill: rgb(31, 119, 180); fill-opacity: 1;"/><path class="point" transform="translate(726.92,601.41)" d="M3,0A3,3 0 1,1 0,-3A3,3 0 0,1 3,0Z" style="opacity: 1; stroke-width: 0px; fill: rgb(31, 119, 180); fill-opacity: 1;"/><path class="point" transform="translate(726.92,601.41)" d="M3,0A3,3 0 1,1 0,-3A3,3 0 0,1 3,0Z" style="opacity: 1; stroke-width: 0px; fill: rgb(31, 119, 180); fill-opacity: 1;"/><path class="point" transform="translate(726.92,601.41)" d="M3,0A3,3 0 1,1 0,-3A3,3 0 0,1 3,0Z" style="opacity: 1; stroke-width: 0px; fill: rgb(31, 119, 180); fill-opacity: 1;"/><path class="point" transform="translate(726.92,601.41)" d="M3,0A3,3 0 1,1 0,-3A3,3 0 0,1 3,0Z" style="opacity: 1; stroke-width: 0px; fill: rgb(31, 119, 180); fill-opacity: 1;"/><path class="point" transform="translate(726.92,601.41)" d="M3,0A3,3 0 1,1 0,-3A3,3 0 0,1 3,0Z" style="opacity: 1; stroke-width: 0px; fill: rgb(31, 119, 180); fill-opacity: 1;"/><path class="point" transform="translate(726.92,601.41)" d="M3,0A3,3 0 1,1 0,-3A3,3 0 0,1 3,0Z" style="opacity: 1; stroke-width: 0px; fill: rgb(31, 119, 180); fill-opacity: 1;"/><path class="point" transform="translate(726.92,601.41)" d="M3,0A3,3 0 1,1 0,-3A3,3 0 0,1 3,0Z" style="opacity: 1; stroke-width: 0px; fill: rgb(31, 119, 180); fill-opacity: 1;"/><path class="point" transform="translate(726.92,601.41)" d="M3,0A3,3 0 1,1 0,-3A3,3 0 0,1 3,0Z" style="opacity: 1; stroke-width: 0px; fill: rgb(31, 119, 180); fill-opacity: 1;"/><path class="point" transform="translate(726.92,536.24)" d="M3,0A3,3 0 1,1 0,-3A3,3 0 0,1 3,0Z" style="opacity: 1; stroke-width: 0px; fill: rgb(31, 119, 180); fill-opacity: 1;"/><path class="point" transform="translate(726.92,529.41)" d="M3,0A3,3 0 1,1 0,-3A3,3 0 0,1 3,0Z" style="opacity: 1; stroke-width: 0px; fill: rgb(31, 119, 180); fill-opacity: 1;"/><path class="point" transform="translate(726.92,145.7)" d="M3,0A3,3 0 1,1 0,-3A3,3 0 0,1 3,0Z" style="opacity: 1; stroke-width: 0px; fill: rgb(31, 119, 180); fill-opacity: 1;"/><path class="point" transform="translate(726.92,145.7)" d="M3,0A3,3 0 1,1 0,-3A3,3 0 0,1 3,0Z" style="opacity: 1; stroke-width: 0px; fill: rgb(31, 119, 180); fill-opacity: 1;"/><path class="point" transform="translate(726.92,145.7)" d="M3,0A3,3 0 1,1 0,-3A3,3 0 0,1 3,0Z" style="opacity: 1; stroke-width: 0px; fill: rgb(31, 119, 180); fill-opacity: 1;"/><path class="point" transform="translate(726.92,145.7)" d="M3,0A3,3 0 1,1 0,-3A3,3 0 0,1 3,0Z" style="opacity: 1; stroke-width: 0px; fill: rgb(31, 119, 180); fill-opacity: 1;"/><path class="point" transform="translate(726.92,145.7)" d="M3,0A3,3 0 1,1 0,-3A3,3 0 0,1 3,0Z" style="opacity: 1; stroke-width: 0px; fill: rgb(31, 119, 180); fill-opacity: 1;"/><path class="point" transform="translate(726.92,145.7)" d="M3,0A3,3 0 1,1 0,-3A3,3 0 0,1 3,0Z" style="opacity: 1; stroke-width: 0px; fill: rgb(31, 119, 180); fill-opacity: 1;"/><path class="point" transform="translate(726.92,145.7)" d="M3,0A3,3 0 1,1 0,-3A3,3 0 0,1 3,0Z" style="opacity: 1; stroke-width: 0px; fill: rgb(31, 119, 180); fill-opacity: 1;"/><path class="point" transform="translate(726.92,145.7)" d="M3,0A3,3 0 1,1 0,-3A3,3 0 0,1 3,0Z" style="opacity: 1; stroke-width: 0px; fill: rgb(31, 119, 180); fill-opacity: 1;"/><path class="point" transform="translate(726.92,145.7)" d="M3,0A3,3 0 1,1 0,-3A3,3 0 0,1 3,0Z" style="opacity: 1; stroke-width: 0px; fill: rgb(31, 119, 180); fill-opacity: 1;"/><path class="point" transform="translate(726.92,145.7)" d="M3,0A3,3 0 1,1 0,-3A3,3 0 0,1 3,0Z" style="opacity: 1; stroke-width: 0px; fill: rgb(31, 119, 180); fill-opacity: 1;"/></g></g><g class="trace violins" style="opacity: 1;"><path class="violin" d="M29.08,86.86L28.7,86.86Q28.5,93.34 28.36,96.58C28.22,99.82 28.05,103.06 27.85,106.3C27.65,109.54 27.41,112.78 27.15,116.02C26.89,119.26 26.59,122.5 26.29,125.74C25.99,128.98 25.66,132.22 25.33,135.46C25,138.7 24.66,141.93 24.33,145.17C23.99,148.41 23.66,151.65 23.32,154.89C22.98,158.13 22.64,161.37 22.27,164.61C21.9,167.85 21.53,171.09 21.11,174.33C20.69,177.57 20.26,180.81 19.76,184.05C19.26,187.29 18.73,190.54 18.13,193.77C17.53,197.01 16.86,200.25 16.15,203.48C15.44,206.72 14.65,209.96 13.85,213.2C13.05,216.44 12.17,219.68 11.33,222.92C10.49,226.16 9.61,229.39 8.81,232.64C8.02,235.87 7.22,239.11 6.56,242.36C5.9,245.59 5.3,248.83 4.84,252.08C4.39,255.31 4.03,258.55 3.82,261.79C3.61,265.03 3.54,268.27 3.55,271.51C3.56,274.75 3.71,277.99 3.9,281.23C4.09,284.47 4.37,287.71 4.67,290.95C4.97,294.19 5.34,297.43 5.68,300.67C6.03,303.91 6.39,307.15 6.74,310.39C7.09,313.63 7.43,316.87 7.77,320.11C8.11,323.35 8.44,326.58 8.79,329.82C9.14,333.06 9.47,336.3 9.86,339.54C10.25,342.78 10.65,346.02 11.12,349.26C11.59,352.5 12.12,355.75 12.7,358.98C13.29,362.23 13.94,365.46 14.63,368.7C15.32,371.94 16.08,375.18 16.84,378.42C17.6,381.66 18.41,384.89 19.17,388.13C19.93,391.37 20.7,394.61 21.4,397.85C22.1,401.09 22.76,404.32 23.35,407.57C23.94,410.8 24.48,414.05 24.95,417.29C25.42,420.53 25.82,423.77 26.18,427.01C26.54,430.25 26.83,433.49 27.09,436.73C27.35,439.97 27.56,443.2 27.75,446.44C27.94,449.68 28.08,452.92 28.21,456.16C28.34,459.4 28.43,462.64 28.51,465.88C28.59,469.12 28.63,472.36 28.67,475.6C28.71,478.84 28.73,482.08 28.73,485.32C28.73,488.56 28.71,491.8 28.7,495.04C28.68,498.28 28.66,501.52 28.64,504.76C28.62,508 28.58,511.23 28.56,514.47C28.54,517.71 28.53,520.95 28.51,524.19C28.5,527.43 28.48,530.67 28.47,533.91C28.46,537.15 28.45,540.39 28.43,543.63C28.41,546.87 28.38,550.11 28.34,553.35C28.3,556.59 28.25,559.83 28.19,563.07C28.13,566.31 28.04,569.54 27.97,572.78C27.89,576.02 27.81,579.26 27.74,582.5C27.67,585.74 27.61,588.98 27.57,592.22C27.53,595.46 27.5,598.7 27.51,601.94C27.52,605.18 27.56,608.42 27.62,611.66C27.68,614.9 27.76,618.14 27.85,621.38C27.94,624.62 28.05,627.85 28.15,631.09C28.25,634.33 28.36,637.57 28.45,640.81C28.54,644.05 28.62,647.29 28.69,650.53Q28.76,653.77 28.87,660.25L29.08,660.25" style="vector-effect: non-scaling-stroke; stroke-width: 2px; stroke: rgb(255, 127, 14); stroke-opacity: 1; fill: rgb(255, 127, 14); fill-opacity: 0.5;"/><path class="violin" d="M145.38,46.8L143.69,46.8Q142.85,57.39 142.25,62.67C141.65,67.96 140.93,73.25 140.11,78.53C139.29,83.82 138.31,89.11 137.32,94.39C136.32,99.68 135.19,104.96 134.14,110.25C133.09,115.54 131.98,120.82 131.04,126.12C130.11,131.4 129.21,136.68 128.52,141.98C127.84,147.26 127.29,152.55 126.93,157.84C126.57,163.12 126.42,168.42 126.35,173.71C126.28,179 126.39,184.28 126.5,189.57C126.61,194.86 126.84,200.14 126.99,205.43C127.15,210.72 127.32,216.01 127.43,221.3C127.54,226.59 127.6,231.87 127.66,237.16C127.71,242.45 127.71,247.73 127.76,253.02C127.81,258.31 127.83,263.6 127.96,268.89C128.09,274.18 128.26,279.47 128.55,284.75C128.84,290.04 129.22,295.33 129.69,300.61C130.16,305.9 130.74,311.19 131.36,316.47C131.98,321.76 132.71,327.05 133.42,332.34C134.13,337.63 134.89,342.91 135.62,348.2C136.34,353.49 137.09,358.77 137.77,364.06C138.45,369.35 139.12,374.64 139.72,379.93C140.32,385.21 140.87,390.5 141.37,395.79C141.87,401.07 142.32,406.36 142.71,411.65C143.1,416.94 143.43,422.23 143.72,427.52C144,432.81 144.23,438.09 144.42,443.38Q144.61,448.67 144.87,459.24L145.38,459.24" style="vector-effect: non-scaling-stroke; stroke-width: 2px; stroke: rgb(255, 127, 14); stroke-opacity: 1; fill: rgb(255, 127, 14); fill-opacity: 0.5;"/><path class="violin" d="M261.69,92.93L261.37,92.93Q261.2,98.78 261.08,101.7C260.96,104.62 260.82,107.55 260.66,110.47C260.5,113.39 260.31,116.32 260.11,119.24C259.91,122.16 259.68,125.09 259.47,128.01C259.25,130.93 259.03,133.86 258.82,136.78C258.61,139.7 258.4,142.63 258.2,145.55C258,148.47 257.82,151.4 257.64,154.32C257.46,157.24 257.29,160.17 257.1,163.09C256.91,166.01 256.72,168.94 256.51,171.86C256.3,174.78 256.07,177.7 255.83,180.62C255.59,183.54 255.34,186.47 255.09,189.39C254.84,192.31 254.58,195.24 254.31,198.16C254.04,201.08 253.78,204.01 253.49,206.93C253.2,209.85 252.92,212.78 252.58,215.7C252.24,218.63 251.88,221.55 251.44,224.47C251,227.4 250.52,230.32 249.96,233.24C249.4,236.17 248.77,239.09 248.1,242.01C247.43,244.94 246.69,247.86 245.96,250.78C245.23,253.71 244.45,256.63 243.71,259.55C242.97,262.47 242.21,265.39 241.51,268.32C240.81,271.24 240.13,274.16 239.49,277.09C238.85,280.01 238.25,282.93 237.69,285.86C237.13,288.78 236.6,291.7 236.12,294.63C235.64,297.55 235.19,300.47 234.8,303.4C234.41,306.32 234.06,309.24 233.79,312.17C233.53,315.09 233.31,318.02 233.21,320.94C233.11,323.86 233.08,326.79 233.2,329.71C233.32,332.64 233.54,335.57 233.92,338.48C234.3,341.41 234.84,344.34 235.49,347.25C236.15,350.19 236.98,353.11 237.87,356.02C238.77,358.96 239.81,361.87 240.86,364.79C241.91,367.72 243.07,370.64 244.16,373.56C245.25,376.48 246.37,379.4 247.41,382.33C248.44,385.25 249.46,388.16 250.36,391.1C251.26,394.01 252.09,396.94 252.81,399.87C253.53,402.78 254.16,405.71 254.69,408.64C255.22,411.55 255.65,414.47 256,417.4C256.35,420.32 256.6,423.24 256.81,426.17C257.01,429.09 257.13,432.02 257.23,434.94C257.33,437.86 257.36,440.79 257.42,443.71C257.47,446.63 257.5,449.56 257.56,452.48C257.62,455.4 257.67,458.33 257.76,461.25C257.85,464.17 257.97,467.1 258.11,470.02C258.25,472.94 258.42,475.87 258.6,478.79C258.78,481.71 258.99,484.64 259.19,487.56C259.39,490.48 259.6,493.41 259.8,496.33C259.99,499.25 260.19,502.18 260.36,505.1C260.53,508.02 260.69,510.95 260.83,513.87C260.96,516.79 261.08,519.72 261.17,522.64C261.26,525.56 261.33,528.49 261.39,531.41C261.44,534.33 261.48,537.26 261.5,540.18C261.52,543.1 261.52,546.03 261.52,548.95C261.52,551.87 261.5,554.8 261.47,557.72C261.44,560.64 261.4,563.57 261.36,566.49C261.32,569.41 261.27,572.34 261.22,575.26C261.17,578.18 261.12,581.11 261.08,584.03C261.04,586.95 261,589.88 260.97,592.8C260.95,595.72 260.93,598.65 260.93,601.57C260.93,604.49 260.95,607.42 260.97,610.34C261,613.26 261.04,616.19 261.08,619.11C261.12,622.03 261.18,624.96 261.23,627.88C261.28,630.8 261.33,633.73 261.38,636.65C261.42,639.57 261.46,642.5 261.5,645.42Q261.53,648.34 261.59,654.18L261.69,654.18" style="vector-effect: non-scaling-stroke; stroke-width: 2px; stroke: rgb(255, 127, 14); stroke-opacity: 1; fill: rgb(255, 127, 14); fill-opacity: 0.5;"/><path class="violin" d="M378,95.02L377.52,95.02Q377.27,100.65 377.1,103.46C376.93,106.27 376.72,109.09 376.49,111.9C376.26,114.71 375.98,117.53 375.7,120.34C375.42,123.15 375.1,125.97 374.81,128.78C374.52,131.59 374.22,134.41 373.94,137.22C373.67,140.03 373.4,142.85 373.16,145.66C372.92,148.47 372.7,151.29 372.49,154.1C372.28,156.91 372.1,159.73 371.9,162.54C371.7,165.35 371.5,168.17 371.29,170.98C371.08,173.79 370.85,176.61 370.62,179.42C370.39,182.23 370.14,185.05 369.89,187.86C369.64,190.67 369.38,193.49 369.12,196.3C368.86,199.11 368.61,201.93 368.34,204.74C368.06,207.55 367.8,210.37 367.47,213.18C367.14,216 366.8,218.81 366.38,221.62C365.96,224.44 365.49,227.26 364.93,230.07C364.37,232.89 363.73,235.71 363.01,238.51C362.29,241.33 361.46,244.14 360.61,246.95C359.75,249.77 358.79,252.58 357.87,255.39C356.95,258.2 355.96,261.01 355.07,263.83C354.19,266.64 353.3,269.44 352.56,272.27C351.83,275.07 351.16,277.88 350.67,280.71C350.19,283.51 349.83,286.33 349.64,289.15C349.45,291.96 349.44,294.78 349.55,297.59C349.66,300.41 349.95,303.22 350.32,306.03C350.69,308.85 351.2,311.66 351.75,314.47C352.3,317.29 352.95,320.1 353.6,322.91C354.25,325.73 354.96,328.54 355.64,331.35C356.32,334.16 357.02,336.97 357.69,339.79C358.36,342.6 359.01,345.41 359.64,348.23C360.27,351.04 360.87,353.86 361.45,356.68C362.03,359.49 362.56,362.31 363.1,365.12C363.63,367.93 364.14,370.75 364.66,373.56C365.18,376.37 365.68,379.19 366.2,382C366.72,384.81 367.24,387.63 367.76,390.44C368.28,393.25 368.81,396.07 369.33,398.88C369.85,401.69 370.37,404.51 370.86,407.32C371.35,410.13 371.84,412.94 372.28,415.76C372.72,418.57 373.14,421.38 373.52,424.2C373.9,427.01 374.25,429.82 374.57,432.64C374.89,435.45 375.17,438.27 375.42,441.08C375.67,443.89 375.88,446.71 376.07,449.52C376.25,452.33 376.4,455.15 376.53,457.96C376.65,460.77 376.74,463.59 376.82,466.4C376.9,469.21 376.95,472.03 377,474.84C377.05,477.66 377.07,480.47 377.1,483.29C377.13,486.1 377.14,488.92 377.16,491.73C377.17,494.54 377.18,497.36 377.19,500.17C377.2,502.98 377.2,505.8 377.21,508.61C377.22,511.42 377.23,514.24 377.24,517.05C377.25,519.86 377.26,522.68 377.27,525.49C377.28,528.3 377.3,531.12 377.31,533.93C377.32,536.74 377.33,539.56 377.32,542.37C377.31,545.18 377.29,548 377.24,550.81C377.19,553.62 377.13,556.44 377.03,559.25C376.93,562.06 376.8,564.88 376.66,567.69C376.51,570.5 376.33,573.32 376.16,576.13C375.99,578.94 375.79,581.76 375.64,584.57C375.49,587.38 375.33,590.2 375.24,593.01C375.15,595.82 375.1,598.64 375.1,601.45C375.1,604.26 375.16,607.08 375.26,609.89C375.36,612.71 375.52,615.52 375.68,618.34C375.84,621.15 376.05,623.97 376.24,626.78C376.43,629.59 376.64,632.41 376.81,635.22C376.98,638.03 377.15,640.85 377.28,643.66Q377.41,646.47 377.61,652.1L378,652.1" style="vector-effect: non-scaling-stroke; stroke-width: 2px; stroke: rgb(255, 127, 14); stroke-opacity: 1; fill: rgb(255, 127, 14); fill-opacity: 0.5;"/><path class="violin" d="M494.31,63.1L493.96,63.1Q493.78,72.04 493.63,76.51C493.48,80.98 493.31,85.44 493.07,89.91C492.83,94.38 492.56,98.85 492.21,103.32C491.86,107.79 491.46,112.26 490.97,116.72C490.48,121.19 489.93,125.67 489.29,130.13C488.65,134.6 487.92,139.07 487.11,143.53C486.3,148 485.4,152.47 484.45,156.93C483.49,161.41 482.43,165.87 481.38,170.34C480.33,174.81 479.19,179.27 478.15,183.74C477.11,188.2 476.04,192.67 475.15,197.15C474.26,201.61 473.42,206.07 472.81,210.55C472.21,215.01 471.75,219.49 471.51,223.96C471.27,228.42 471.25,232.89 471.36,237.36C471.47,241.83 471.8,246.3 472.15,250.77C472.5,255.24 473.02,259.7 473.48,264.17C473.94,268.64 474.46,273.1 474.9,277.57C475.34,282.04 475.76,286.51 476.13,290.98C476.49,295.45 476.79,299.91 477.09,304.38C477.39,308.85 477.64,313.32 477.94,317.79C478.24,322.26 478.54,326.72 478.91,331.19C479.28,335.66 479.7,340.13 480.18,344.6C480.66,349.07 481.23,353.53 481.8,358C482.38,362.47 483.02,366.94 483.63,371.41C484.24,375.88 484.88,380.34 485.46,384.81C486.04,389.28 486.6,393.75 487.09,398.22C487.58,402.68 488.02,407.15 488.41,411.62C488.8,416.08 489.13,420.55 489.44,425.02C489.75,429.49 490,433.96 490.26,438.43C490.52,442.9 490.76,447.36 491,451.83C491.24,456.3 491.47,460.77 491.7,465.24C491.93,469.71 492.16,474.17 492.37,478.64C492.58,483.11 492.79,487.58 492.97,492.05C493.15,496.52 493.32,500.98 493.46,505.45C493.6,509.92 493.71,514.39 493.81,518.86Q493.91,523.33 494.05,532.26L494.31,532.26" style="vector-effect: non-scaling-stroke; stroke-width: 2px; stroke: rgb(255, 127, 14); stroke-opacity: 1; fill: rgb(255, 127, 14); fill-opacity: 0.5;"/><path class="violin" d="M610.62,34.75L610.33,34.75Q610.18,47.06 610.08,53.21C609.98,59.37 609.86,65.52 609.73,71.68C609.6,77.83 609.44,83.99 609.29,90.14C609.14,96.29 608.97,102.45 608.82,108.6C608.67,114.75 608.52,120.91 608.39,127.06C608.26,133.22 608.15,139.37 608.05,145.53C607.95,151.68 607.87,157.84 607.77,163.99C607.67,170.14 607.59,176.3 607.46,182.45C607.33,188.6 607.19,194.76 607,200.91C606.8,207.07 606.57,213.23 606.29,219.38C606,225.54 605.66,231.69 605.29,237.84C604.92,243.99 604.5,250.15 604.06,256.3C603.62,262.46 603.14,268.61 602.65,274.77C602.16,280.92 601.66,287.08 601.13,293.23C600.6,299.38 600.06,305.54 599.49,311.69C598.92,317.84 598.31,324 597.69,330.15C597.07,336.31 596.41,342.46 595.75,348.62C595.1,354.77 594.39,360.92 593.76,367.08C593.14,373.23 592.5,379.38 592,385.54C591.51,391.69 591.05,397.84 590.79,404C590.53,410.15 590.38,416.31 590.44,422.47C590.5,428.62 590.73,434.78 591.12,440.93C591.52,447.09 592.11,453.24 592.81,459.39C593.51,465.55 594.4,471.71 595.31,477.86C596.22,484.02 597.28,490.17 598.28,496.32C599.29,502.47 600.36,508.62 601.34,514.78C602.32,520.93 603.3,527.08 604.15,533.24C605,539.39 605.79,545.55 606.46,551.71C607.13,557.86 607.7,564.01 608.17,570.17C608.64,576.32 609,582.47 609.3,588.63Q609.6,594.78 609.97,607.09L610.62,607.09" style="vector-effect: non-scaling-stroke; stroke-width: 2px; stroke: rgb(255, 127, 14); stroke-opacity: 1; fill: rgb(255, 127, 14); fill-opacity: 0.5;"/><path class="violin" d="M726.92,95.96L726.49,95.96Q726.24,103.34 726.05,107.03C725.85,110.72 725.62,114.42 725.32,118.11C725.02,121.8 724.66,125.49 724.23,129.18C723.8,132.87 723.29,136.56 722.72,140.25C722.15,143.94 721.5,147.63 720.82,151.32C720.14,155.02 719.39,158.71 718.66,162.4C717.93,166.09 717.14,169.78 716.42,173.47C715.7,177.16 714.98,180.84 714.36,184.54C713.74,188.22 713.17,191.91 712.71,195.61C712.25,199.3 711.9,202.99 711.62,206.69C711.35,210.38 711.19,214.07 711.06,217.76C710.93,221.45 710.9,225.14 710.82,228.83C710.74,232.52 710.71,236.21 710.57,239.9C710.43,243.59 710.26,247.29 709.97,250.98C709.68,254.67 709.29,258.37 708.81,262.05C708.33,265.75 707.72,269.43 707.1,273.12C706.48,276.81 705.74,280.5 705.07,284.19C704.41,287.88 703.68,291.57 703.11,295.27C702.54,298.95 701.99,302.64 701.64,306.34C701.29,310.02 701.06,313.72 701.03,317.41C701,321.1 701.16,324.81 701.48,328.49C701.8,332.19 702.34,335.88 702.98,339.56C703.62,343.26 704.46,346.95 705.34,350.63C706.23,354.33 707.26,358.01 708.28,361.7C709.3,365.4 710.41,369.09 711.47,372.78C712.53,376.47 713.62,380.15 714.63,383.85C715.64,387.53 716.63,391.22 717.52,394.92C718.41,398.6 719.25,402.29 719.98,405.99C720.71,409.67 721.35,413.37 721.9,417.07C722.45,420.75 722.91,424.45 723.3,428.14C723.69,431.83 723.98,435.52 724.25,439.21C724.52,442.9 724.71,446.59 724.9,450.28C725.09,453.97 725.23,457.67 725.38,461.36C725.52,465.05 725.65,468.74 725.77,472.43C725.89,476.12 726.01,479.81 726.11,483.5C726.21,487.19 726.31,490.88 726.39,494.57C726.47,498.26 726.54,501.96 726.6,505.65Q726.66,509.34 726.75,516.72L726.92,516.72" style="vector-effect: non-scaling-stroke; stroke-width: 2px; stroke: rgb(255, 127, 14); stroke-opacity: 1; fill: rgb(255, 127, 14); fill-opacity: 0.5;"/><path class="box" d="M19.95,281.05H27.08M19.95,341.43H27.08V243H19.95ZM27.08,341.43V430.52M27.08,243V145.7" style="vector-effect: non-scaling-stroke; stroke-width: 2px; stroke: rgb(255, 127, 14); stroke-opacity: 1; fill: rgb(255, 127, 14); fill-opacity: 0.5;"/><path class="box" d="M136.26,230.92H143.38M136.26,294.61H143.38V149.92H136.26ZM143.38,294.61V360.34M143.38,149.92V145.7" style="vector-effect: non-scaling-stroke; stroke-width: 2px; stroke: rgb(255, 127, 14); stroke-opacity: 1; fill: rgb(255, 127, 14); fill-opacity: 0.5;"/><path class="box" d="M252.57,313.63H259.69M252.57,350.77H259.69V267.38H252.57ZM259.69,350.77V471.08M259.69,267.38V145.7" style="vector-effect: non-scaling-stroke; stroke-width: 2px; stroke: rgb(255, 127, 14); stroke-opacity: 1; fill: rgb(255, 127, 14); fill-opacity: 0.5;"/><path class="box" d="M368.88,297.45H376M368.88,344.96H376V259.63H368.88ZM376,344.96V435.53M376,259.63V145.7" style="vector-effect: non-scaling-stroke; stroke-width: 2px; stroke: rgb(255, 127, 14); stroke-opacity: 1; fill: rgb(255, 127, 14); fill-opacity: 0.5;"/><path class="box" d="M485.18,257.35H492.31M485.18,333.8H492.31V218.96H485.18ZM492.31,333.8V449.66M492.31,218.96V145.7" style="vector-effect: non-scaling-stroke; stroke-width: 2px; stroke: rgb(255, 127, 14); stroke-opacity: 1; fill: rgb(255, 127, 14); fill-opacity: 0.5;"/><path class="box" d="M601.49,406.14H608.62M601.49,448.75H608.62V325.71H601.49ZM608.62,448.75V496.14M608.62,325.71V145.7" style="vector-effect: non-scaling-stroke; stroke-width: 2px; stroke: rgb(255, 127, 14); stroke-opacity: 1; fill: rgb(255, 127, 14); fill-opacity: 0.5;"/><path class="box" d="M717.8,302.01H724.92M717.8,333.11H724.92V221.81H717.8ZM724.92,333.11V449.66M724.92,221.81V163.02" style="vector-effect: non-scaling-stroke; stroke-width: 2px; stroke: rgb(255, 127, 14); stroke-opacity: 1; fill: rgb(255, 127, 14); fill-opacity: 0.5;"/><path class="mean" d="M19.95,292.34H27.08" style="fill: none; vector-effect: non-scaling-stroke; stroke-width: 1px; stroke-dasharray: 2px, 1px; stroke: rgb(255, 0, 0); stroke-opacity: 1;"/><path class="mean" d="M136.26,228.31H143.38" style="fill: none; vector-effect: non-scaling-stroke; stroke-width: 1px; stroke-dasharray: 2px, 1px; stroke: rgb(255, 0, 0); stroke-opacity: 1;"/><path class="mean" d="M252.57,312.97H259.69" style="fill: none; vector-effect: non-scaling-stroke; stroke-width: 1px; stroke-dasharray: 2px, 1px; stroke: rgb(255, 0, 0); stroke-opacity: 1;"/><path class="mean" d="M368.88,306.73H376" style="fill: none; vector-effect: non-scaling-stroke; stroke-width: 1px; stroke-dasharray: 2px, 1px; stroke: rgb(255, 0, 0); stroke-opacity: 1;"/><path class="mean" d="M485.18,272.2H492.31" style="fill: none; vector-effect: non-scaling-stroke; stroke-width: 1px; stroke-dasharray: 2px, 1px; stroke: rgb(255, 0, 0); stroke-opacity: 1;"/><path class="mean" d="M601.49,381.39H608.62" style="fill: none; vector-effect: non-scaling-stroke; stroke-width: 1px; stroke-dasharray: 2px, 1px; stroke: rgb(255, 0, 0); stroke-opacity: 1;"/><path class="mean" d="M717.8,289.38H724.92" style="fill: none; vector-effect: non-scaling-stroke; stroke-width: 1px; stroke-dasharray: 2px, 1px; stroke: rgb(255, 0, 0); stroke-opacity: 1;"/><g class="points"><path class="point" transform="translate(29.08,601.41)" d="M3,0A3,3 0 1,1 0,-3A3,3 0 0,1 3,0Z" style="opacity: 1; stroke-width: 0px; fill: rgb(255, 127, 14); fill-opacity: 1;"/><path class="point" transform="translate(29.08,601.41)" d="M3,0A3,3 0 1,1 0,-3A3,3 0 0,1 3,0Z" style="opacity: 1; stroke-width: 0px; fill: rgb(255, 127, 14); fill-opacity: 1;"/><path class="point" transform="translate(29.08,601.41)" d="M3,0A3,3 0 1,1 0,-3A3,3 0 0,1 3,0Z" style="opacity: 1; stroke-width: 0px; fill: rgb(255, 127, 14); fill-opacity: 1;"/><path class="point" transform="translate(29.08,525.31)" d="M3,0A3,3 0 1,1 0,-3A3,3 0 0,1 3,0Z" style="opacity: 1; stroke-width: 0px; fill: rgb(255, 127, 14); fill-opacity: 1;"/></g><g class="points"/><g class="points"><path class="point" transform="translate(261.69,601.41)" d="M3,0A3,3 0 1,1 0,-3A3,3 0 0,1 3,0Z" style="opacity: 1; stroke-width: 0px; fill: rgb(255, 127, 14); fill-opacity: 1;"/><path class="point" transform="translate(261.69,487.48)" d="M3,0A3,3 0 1,1 0,-3A3,3 0 0,1 3,0Z" style="opacity: 1; stroke-width: 0px; fill: rgb(255, 127, 14); fill-opacity: 1;"/></g><g class="points"><path class="point" transform="translate(378,601.41)" d="M3,0A3,3 0 1,1 0,-3A3,3 0 0,1 3,0Z" style="opacity: 1; stroke-width: 0px; fill: rgb(255, 127, 14); fill-opacity: 1;"/><path class="point" transform="translate(378,601.41)" d="M3,0A3,3 0 1,1 0,-3A3,3 0 0,1 3,0Z" style="opacity: 1; stroke-width: 0px; fill: rgb(255, 127, 14); fill-opacity: 1;"/><path class="point" transform="translate(378,601.41)" d="M3,0A3,3 0 1,1 0,-3A3,3 0 0,1 3,0Z" style="opacity: 1; stroke-width: 0px; fill: rgb(255, 127, 14); fill-opacity: 1;"/><path class="point" transform="translate(378,601.41)" d="M3,0A3,3 0 1,1 0,-3A3,3 0 0,1 3,0Z" style="opacity: 1; stroke-width: 0px; fill: rgb(255, 127, 14); fill-opacity: 1;"/><path class="point" transform="translate(378,601.41)" d="M3,0A3,3 0 1,1 0,-3A3,3 0 0,1 3,0Z" style="opacity: 1; stroke-width: 0px; fill: rgb(255, 127, 14); fill-opacity: 1;"/><path class="point" transform="translate(378,525.31)" d="M3,0A3,3 0 1,1 0,-3A3,3 0 0,1 3,0Z" style="opacity: 1; stroke-width: 0px; fill: rgb(255, 127, 14); fill-opacity: 1;"/><path class="point" transform="translate(378,479.74)" d="M3,0A3,3 0 1,1 0,-3A3,3 0 0,1 3,0Z" style="opacity: 1; stroke-width: 0px; fill: rgb(255, 127, 14); fill-opacity: 1;"/></g><g class="points"/><g class="points"/><g class="points"/></g></g></g><g class="overplot"/><path class="xlines-above crisp" d="M0,0" style="fill: none;"/><path class="ylines-above crisp" d="M0,0" style="fill: none;"/><g class="overlines-above"/><g class="xaxislayer-above"><g class="xtick"><text text-anchor="middle" x="0" y="758" transform="translate(81.08,0)" style="font-family: 'Open Sans', verdana, arial, sans-serif; font-size: 12px; fill: rgb(68, 68, 68); fill-opacity: 1; white-space: pre; opacity: 1;"></text></g><g class="xtick"><text text-anchor="middle" x="0" y="758" transform="translate(197.38,0)" style="font-family: 'Open Sans', verdana, arial, sans-serif; font-size: 12px; fill: rgb(68, 68, 68); fill-opacity: 1; white-space: pre; opacity: 1;"></text></g><g class="xtick"><text text-anchor="middle" x="0" y="758" transform="translate(313.69,0)" style="font-family: 'Open Sans', verdana, arial, sans-serif; font-size: 12px; fill: rgb(68, 68, 68); fill-opacity: 1; white-space: pre; opacity: 1;"></text></g><g class="xtick"><text text-anchor="middle" x="0" y="758" transform="translate(430,0)" style="font-family: 'Open Sans', verdana, arial, sans-serif; font-size: 12px; fill: rgb(68, 68, 68); fill-opacity: 1; white-space: pre; opacity: 1;"></text></g><g class="xtick"><text text-anchor="middle" x="0" y="758" transform="translate(546.31,0)" style="font-family: 'Open Sans', verdana, arial, sans-serif; font-size: 12px; fill: rgb(68, 68, 68); fill-opacity: 1; white-space: pre; opacity: 1;"></text></g><g class="xtick"><text text-anchor="middle" x="0" y="758" transform="translate(662.62,0)" style="font-family: 'Open Sans', verdana, arial, sans-serif; font-size: 12px; fill: rgb(68, 68, 68); fill-opacity: 1; white-space: pre; opacity: 1;"></text></g><g class="xtick"><text text-anchor="middle" x="0" y="758" transform="translate(778.92,0)" style="font-family: 'Open Sans', verdana, arial, sans-serif; font-size: 12px; fill: rgb(68, 68, 68); fill-opacity: 1; white-space: pre; opacity: 1;"></text></g></g><g class="yaxislayer-above"><g class="ytick"><text text-anchor="end" x="51" y="4.199999999999999" transform="translate(0,742.55)" style="font-family: 'Open Sans', verdana, arial, sans-serif; font-size: 12px; fill: rgb(68, 68, 68); fill-opacity: 1; white-space: pre; opacity: 1;">20</text></g><g class="ytick"><text text-anchor="end" x="51" y="4.199999999999999" style="font-family: 'Open Sans', verdana, arial, sans-serif; font-size: 12px; fill: rgb(68, 68, 68); fill-opacity: 1; white-space: pre; opacity: 1;" transform="translate(0,651.41)">0</text></g><g class="ytick"><text text-anchor="end" x="51" y="4.199999999999999" style="font-family: 'Open Sans', verdana, arial, sans-serif; font-size: 12px; fill: rgb(68, 68, 68); fill-opacity: 1; white-space: pre; opacity: 1;" transform="translate(0,560.27)">20</text></g><g class="ytick"><text text-anchor="end" x="51" y="4.199999999999999" style="font-family: 'Open Sans', verdana, arial, sans-serif; font-size: 12px; fill: rgb(68, 68, 68); fill-opacity: 1; white-space: pre; opacity: 1;" transform="translate(0,469.13)">40</text></g><g class="ytick"><text text-anchor="end" x="51" y="4.199999999999999" style="font-family: 'Open Sans', verdana, arial, sans-serif; font-size: 12px; fill: rgb(68, 68, 68); fill-opacity: 1; white-space: pre; opacity: 1;" transform="translate(0,377.99)">60</text></g><g class="ytick"><text text-anchor="end" x="51" y="4.199999999999999" style="font-family: 'Open Sans', verdana, arial, sans-serif; font-size: 12px; fill: rgb(68, 68, 68); fill-opacity: 1; white-space: pre; opacity: 1;" transform="translate(0,286.84000000000003)">80</text></g><g class="ytick"><text text-anchor="end" x="51" y="4.199999999999999" style="font-family: 'Open Sans', verdana, arial, sans-serif; font-size: 12px; fill: rgb(68, 68, 68); fill-opacity: 1; white-space: pre; opacity: 1;" transform="translate(0,195.7)">100</text></g><g class="ytick"><text text-anchor="end" x="51" y="4.199999999999999" style="font-family: 'Open Sans', verdana, arial, sans-serif; font-size: 12px; fill: rgb(68, 68, 68); fill-opacity: 1; white-space: pre; opacity: 1;" transform="translate(0,104.56)">120</text></g></g><g class="overaxes-above"/></g></g><g class="polarlayer"/><g class="ternarylayer"/><g class="geolayer"/><g class="funnelarealayer"/><g class="pielayer"/><g class="iciclelayer"/><g class="treemaplayer"/><g class="sunburstlayer"/><g class="glimages"/><defs id="topdefs-ce9b3d"><g class="clips"/><clipPath id="legendce9b3d"><rect width="93" height="48" x="0" y="0"/></clipPath></defs><g class="layer-above"><g class="imagelayer"/><g class="shapelayer"/></g><g class="infolayer"><g class="legend" pointer-events="all" transform="translate(823.12,50)"><rect class="bg" shape-rendering="crispEdges" width="93" height="48" x="0" y="0" style="stroke: rgb(68, 68, 68); stroke-opacity: 1; fill: rgb(255, 255, 255); fill-opacity: 1; stroke-width: 0px;"/><g class="scrollbox" transform="" clip-path="url(#legendce9b3d)"><g class="groups"><g class="traces" transform="translate(0,14.5)" style="opacity: 1;"><text class="legendtext" text-anchor="start" x="40" y="4.680000000000001" style="font-family: 'Open Sans', verdana, arial, sans-serif; font-size: 12px; fill: rgb(68, 68, 68); fill-opacity: 1; white-space: pre;"></text><g class="layers" style="opacity: 1;"><g class="legendfill"/><g class="legendlines"/><g class="legendsymbols"><g class="legendpoints"><path class="legendbox" d="M6,6H-6V-6H6Z" transform="translate(20,0)" style="stroke-width: 2px; fill: rgb(31, 119, 180); fill-opacity: 0.5; stroke: rgb(31, 119, 180); stroke-opacity: 1;"/></g></g></g><rect class="legendtoggle" x="0" y="-9.5" width="87.9847297668457" height="19" style="fill: rgb(0, 0, 0); fill-opacity: 0;"/></g><g class="traces" transform="translate(0,33.5)" style="opacity: 1;"><text class="legendtext" text-anchor="start" x="40" y="4.680000000000001" style="font-family: 'Open Sans', verdana, arial, sans-serif; font-size: 12px; fill: rgb(68, 68, 68); fill-opacity: 1; white-space: pre;"></text><g class="layers" style="opacity: 1;"><g class="legendfill"/><g class="legendlines"/><g class="legendsymbols"><g class="legendpoints"><path class="legendbox" d="M6,6H-6V-6H6Z" transform="translate(20,0)" style="stroke-width: 2px; fill: rgb(255, 127, 14); fill-opacity: 0.5; stroke: rgb(255, 127, 14); stroke-opacity: 1;"/></g></g></g><rect class="legendtoggle" x="0" y="-9.5" width="87.9847297668457" height="19" style="fill: rgb(0, 0, 0); fill-opacity: 0;"/></g></g></g><rect class="scrollbar" rx="20" ry="3" width="0" height="0" x="0" y="0" style="fill: rgb(128, 139, 164); fill-opacity: 1;"/></g><g class="g-gtitle"><text class="gtitle" x="464.091" y="25" text-anchor="middle" dy="0em" style="font-family: 'Open Sans', verdana, arial, sans-serif; font-size: 17px; fill: rgb(68, 68, 68); opacity: 1; font-weight: normal; white-space: pre;">   </text></g><g class="g-xtitle" transform="translate(0,-12.462174179077124)"><text class="xtitle" x="430" y="797" text-anchor="middle" style="font-family: 'Open Sans', verdana, arial, sans-serif; font-size: 14px; fill: rgb(68, 68, 68); opacity: 1; font-weight: normal; white-space: pre;"></text></g><g class="g-ytitle"><text class="ytitle" transform="rotate(-90,14,397.5)" x="14" y="397.5" text-anchor="middle" style="font-family: 'Open Sans', verdana, arial, sans-serif; font-size: 14px; fill: rgb(68, 68, 68); opacity: 1; font-weight: normal; white-space: pre;"></text></g></g></svg>